<svg width="994" height="305" viewBox="0 0 994 305" fill="none" xmlns="http://www.w3.org/2000/svg">
<g clip-path="url(#clip0_613_2622)">
<rect width="994" height="305" fill="#1D1F31"/>
<circle cx="594.25" cy="-1.74963" r="99.25" stroke="#73798C" stroke-width="2"/>
<circle cx="593.66" cy="-1.15986" r="88.0456" stroke="#73798C" stroke-width="2"/>
<circle cx="594.25" cy="-1.75028" r="78.0206" stroke="#73798C" stroke-width="2"/>
<circle cx="594.251" cy="-1.74894" r="68.5853" stroke="#73798C" stroke-width="2"/>
<circle cx="593.661" cy="-1.15955" r="58.5603" stroke="#73798C" stroke-width="2"/>
<circle cx="594.25" cy="-1.74998" r="48.5353" stroke="#73798C" stroke-width="2"/>
<circle cx="593.661" cy="-1.16048" r="38.5103" stroke="#73798C" stroke-width="2"/>
<circle cx="593.661" cy="-1.15984" r="27.8956" stroke="#73798C" stroke-width="2"/>
<path d="M996 -4L296.5 -35.9999L305.001 6.02037e-06L996 48.0002L996 -4Z" fill="#E7EDFF"/>
<path d="M-219.967 75.9773L267.02 -177.439L306.5 -0.000256295L-180.137 265.911L-219.967 75.9773Z" fill="white"/>
<path d="M319.197 63.7314L285.802 23.8242L266.714 22.7789L252.393 51.7818L272.124 75.184L283.323 76.5412L302.493 77.7102L319.197 63.7314Z" fill="#BC090D"/>
<path d="M308.887 18.9893L270.098 9.5451L268.879 14.5515L307.668 23.9957L308.887 18.9893Z" fill="#BC090D"/>
<path d="M270.003 10.5004L259.506 49.0175L264.477 50.3724L274.975 11.8553L270.003 10.5004Z" fill="#BC090D"/>
<path d="M303.971 18.0522L293.64 56.3153L298.819 57.7912L308.894 19.0518L303.971 18.0522Z" fill="#BC090D"/>
<path d="M329.256 54.0487L281.086 34.3646L260.541 84.6406L300.323 80.5337L329.256 54.0487Z" fill="#BC090D"/>
<path d="M329.272 54.2046L291.473 58.1068L260.563 84.9227L300.008 82.3585L329.272 54.2046Z" fill="#E7EDFF"/>
<path d="M314.813 60.2212L298.038 73.0116L273.186 80.6038L300.044 77.8312L314.813 60.2212Z" fill="#BC090D"/>
<path d="M296.005 67.0468L537.854 400.491L1096.55 228.104L296.005 67.0468Z" fill="white"/>
<path d="M304.699 68.6506L930.33 211.031L997.726 207.185L304.699 68.6506Z" fill="#E7EDFF"/>
<rect x="468" y="305.815" width="560.386" height="130.634" transform="rotate(-13.0793 468 305.815)" fill="#BC090D"/>
<rect x="-35" y="4.40491" width="346.467" height="72.4752" transform="rotate(-13.0793 -35 4.40491)" fill="#BC090D"/>
<path d="M722.802 100.173C720.049 100.357 717.386 101.112 714.577 101.251L730.579 114.068L730.576 114.075C726.311 114.933 722.901 121.256 726.419 124.187C730.94 127.985 739.366 119.547 733.092 114.024C728.96 110.714 724.828 107.405 720.696 104.095C724.282 101.013 728.258 103.02 729.517 107.113C728.756 100.999 726.254 99.9416 722.802 100.173Z" fill="white"/>
<path d="M1005 310L704 254L445 314L1005 310Z" fill="#D9D9D9" fill-opacity="0.2"/>
<path d="M539.552 196.218C540.13 193.203 540.064 190.123 540.707 187.061L522.335 200.667L522.328 200.662C522.604 195.829 516.73 190.375 512.569 193.334C507.186 197.128 513.932 208.577 521.674 203.384C526.417 199.871 531.161 196.357 535.905 192.844C538.226 197.573 534.934 201.286 530.154 201.486C536.978 202.393 538.828 199.998 539.552 196.218Z" fill="#1D1F31"/>
<path d="M853.636 98.1621C853.593 98.1262 853.546 98.0969 853.494 98.0757L835.796 90.5829C835.587 90.494 835.347 90.5452 835.196 90.7109L819.631 107.792C819.467 106.977 818.937 106.215 818.2 105.594C817.191 104.742 815.768 104.102 814.138 103.823C812.508 103.544 810.965 103.676 809.747 104.147C808.529 104.618 807.592 105.466 807.411 106.62C807.229 107.773 807.857 108.892 808.867 109.744C809.877 110.596 811.299 111.234 812.93 111.513C814.56 111.792 816.103 111.661 817.321 111.191C817.967 110.941 818.532 110.583 818.948 110.131C818.955 110.125 818.962 110.118 818.969 110.111L831.368 96.5042L848.052 103.517L837.506 115.09C837.339 114.281 836.809 113.524 836.077 112.906C835.067 112.054 833.645 111.414 832.015 111.135C830.385 110.856 828.842 110.989 827.625 111.459C826.407 111.93 825.47 112.779 825.289 113.933C825.108 115.086 825.735 116.203 826.745 117.055C827.755 117.907 829.177 118.547 830.808 118.826C832.438 119.105 833.98 118.972 835.197 118.501C835.758 118.285 836.258 117.987 836.653 117.618L836.656 117.614C836.785 117.493 836.902 117.365 837.006 117.23L853.69 98.921C853.786 98.8155 853.835 98.6754 853.825 98.5321C853.815 98.3888 853.747 98.2547 853.637 98.1607L853.636 98.1621Z" fill="white"/>
<path d="M606.66 208.352C606.715 208.335 606.768 208.309 606.815 208.276L623.301 196.896C623.496 196.762 623.585 196.522 623.523 196.297L617.118 173.09C617.929 173.4 618.898 173.358 619.857 173.057C621.173 172.644 622.531 171.751 623.686 170.474C624.842 169.196 625.586 167.766 625.849 166.433C626.112 165.1 625.886 163.803 624.968 163C624.05 162.197 622.713 162.125 621.397 162.538C620.082 162.951 618.725 163.845 617.569 165.123C616.413 166.4 615.669 167.83 615.405 169.163C615.265 169.87 615.266 170.566 615.433 171.185C615.435 171.194 615.438 171.204 615.44 171.214L620.541 189.701L605.045 200.458L600.706 184.733C601.514 185.037 602.477 184.994 603.431 184.695C604.747 184.282 606.105 183.389 607.261 182.111C608.416 180.834 609.159 179.404 609.422 178.071C609.686 176.738 609.459 175.441 608.541 174.639C607.623 173.836 606.287 173.765 604.972 174.178C603.656 174.59 602.298 175.484 601.142 176.761C599.987 178.039 599.244 179.468 598.981 180.801C598.86 181.415 598.843 182.02 598.95 182.574L598.951 182.578C598.986 182.759 599.033 182.933 599.095 183.101L605.96 207.977C605.999 208.12 606.096 208.241 606.228 208.312C606.36 208.383 606.516 208.398 606.661 208.354L606.66 208.352Z" fill="#1D1F31"/>
<path d="M681.021 100.174C678.229 100.263 675.508 100.933 672.661 100.974L688.394 114.507L688.39 114.515C684.045 115.231 680.37 121.508 683.824 124.597C688.263 128.6 697.087 120.362 690.937 114.552C686.875 111.057 682.813 107.563 678.75 104.068C682.488 101.077 686.439 103.249 687.566 107.434C687.015 101.221 684.521 100.063 681.021 100.174Z" fill="#1D1F31"/>
<path d="M664.138 260.077L652.398 209.583L663.557 206.989L668.209 226.999L669.331 226.738L672.097 205.003L683.193 202.424L679.474 228.257L695.244 252.845L683.774 255.511L671.302 235.216L670.18 235.477L675.296 257.482L664.138 260.077ZM699.542 263.344L695.151 244.456L696.585 244.122C697.473 243.609 698.23 242.908 698.855 242.018C699.512 241.076 700.028 239.905 700.403 238.504C700.778 237.102 701.019 235.404 701.124 233.408C701.23 231.412 701.17 229.083 700.945 226.419C700.71 223.714 700.321 220.629 699.779 217.163L697.048 199.202L720.55 193.739L730.434 236.253L736.107 234.934L740.498 253.822L733.142 255.532L730.045 244.754L705.297 250.507L707.21 261.561L699.542 263.344ZM707.12 241.673L720.023 238.673L711.98 204.076L707.305 205.163L709.265 216.14C709.888 219.762 710.282 222.869 710.446 225.459C710.652 228.039 710.678 230.223 710.524 232.011C710.402 233.748 710.171 235.203 709.831 236.378C709.491 237.552 709.065 238.549 708.555 239.368C708.086 240.178 707.608 240.946 707.12 241.673ZM775.055 245.788L771.085 235.212L743.033 241.734L731.294 191.241L742.453 188.646L752.438 231.597L760.916 229.626L750.93 186.675L762.089 184.081L772.074 227.032L778.932 225.438L783.221 243.889L775.055 245.788Z" fill="#1D1F31"/>
<mask id="mask0_613_2622" style="mask-type:alpha" maskUnits="userSpaceOnUse" x="-27" y="55" width="169" height="144">
<rect x="-26.6045" y="110.725" width="142.743" height="95.0661" transform="rotate(-22.5851 -26.6045 110.725)" fill="#D9D9D9"/>
</mask>
<g mask="url(#mask0_613_2622)">
<path d="M229.18 343.541C232.226 345.809 236.391 341.817 234.242 338.686L236.889 336.146C239.936 338.378 244.101 334.422 241.951 331.291L245.262 328.116C248.307 330.385 252.436 326.392 250.323 323.262L255.19 318.557L263.79 327.49L248.004 342.63L232.219 357.771L223.619 348.837L229.185 343.535L229.18 343.541ZM186.872 372.352L170.794 355.651C184.28 340.064 182.993 316.794 168.822 302.074C154.688 287.391 131.445 285.182 115.303 298.008C93.467 275.324 89.3075 241.174 106.084 215.749L224.203 338.449L217.974 344.384C215.522 346.736 215.443 350.661 217.798 353.107L227.744 363.401C230.062 365.847 233.991 365.924 236.447 363.573L269.422 331.945C271.836 329.63 271.916 325.668 269.598 323.259L259.652 312.928C257.333 310.519 253.404 310.442 250.95 312.756L245.42 318.096L127.448 195.548C153.483 180.437 187.003 186.052 208.618 208.503C195.132 224.09 196.42 247.36 210.554 262.042C224.725 276.763 247.968 278.975 264.072 266.146L280.189 282.847C340.614 345.654 247.337 435.12 186.874 372.347L186.872 372.352ZM110.403 209.964C111.145 209.064 111.965 208.166 112.784 207.305L231.912 331.053L229.343 333.517L110.395 209.956L110.403 209.964ZM117.925 202.377C119.053 201.371 120.217 200.442 121.417 199.549L240.25 323.026L237.056 326.126L117.925 202.377Z" fill="#1D1F31"/>
<path d="M229.18 343.541C232.226 345.809 236.391 341.817 234.242 338.686L236.889 336.146C239.936 338.378 244.101 334.422 241.951 331.291L245.262 328.116C248.307 330.385 252.436 326.392 250.323 323.262L255.19 318.557L263.79 327.49L248.004 342.63L232.219 357.771L223.619 348.837L229.185 343.535L229.18 343.541ZM186.872 372.352L170.794 355.651C184.28 340.064 182.993 316.794 168.822 302.074C154.688 287.391 131.445 285.182 115.303 298.008C93.467 275.324 89.3075 241.174 106.084 215.749L224.203 338.449L217.974 344.384C215.522 346.736 215.443 350.661 217.798 353.107L227.744 363.401C230.062 365.847 233.991 365.924 236.447 363.573L269.422 331.945C271.836 329.63 271.916 325.668 269.598 323.259L259.652 312.928C257.333 310.519 253.404 310.442 250.95 312.756L245.42 318.096L127.448 195.548C153.483 180.437 187.003 186.052 208.618 208.503C195.132 224.09 196.42 247.36 210.554 262.042C224.725 276.763 247.968 278.975 264.072 266.146L280.189 282.847C340.614 345.654 247.337 435.12 186.874 372.347L186.872 372.352ZM110.403 209.964C111.145 209.064 111.965 208.166 112.784 207.305L231.912 331.053L229.343 333.517L110.395 209.956L110.403 209.964ZM117.925 202.377C119.053 201.371 120.217 200.442 121.417 199.549L240.25 323.026L237.056 326.126L117.925 202.377Z" fill="#1D1F31"/>
<path d="M12.5717 110.285L42.478 85.6366C43.1133 85.1123 44.0938 85.2048 44.6215 85.8389L62.114 106.913C62.6355 107.584 62.5424 108.563 61.9071 109.088L57.6088 112.67L64.2813 120.725L71.2422 114.98C74.7018 112.125 79.0429 117.362 75.5806 120.217L68.6197 125.962L73.3204 131.637L80.2812 125.892C83.7408 123.036 88.0786 128.309 84.6196 131.129L77.6968 136.877L130.03 200.052C127.889 200.983 125.839 202.109 123.954 203.429L72.4093 141.206L69.1079 143.93L120.195 205.562C118.525 206.94 116.458 208.245 115.073 210.09L63.8583 148.265L61.2693 150.435L112.547 212.375C110.712 213.957 109.33 215.363 108.087 217.659L55.982 154.761L49.0592 160.509C45.5996 163.365 41.2584 158.127 44.7208 155.272L51.6437 149.524L46.943 143.849L39.9821 149.594C36.558 152.453 32.1847 147.177 35.6438 144.357L42.6046 138.612L35.932 130.557L32.0341 133.774C31.3607 134.295 30.3802 134.202 29.8551 133.569L12.3662 112.457C11.8411 111.823 11.9342 110.844 12.5731 110.282L12.5717 110.285ZM52.3576 117.003L49.0596 119.692L55.7285 127.785L59.0299 125.06L52.3574 117.005L52.3576 117.003ZM43.8072 124.06L41.186 126.19L47.855 134.283L50.4795 132.117L43.8069 124.062L43.8072 124.06ZM56.894 145.195L52.1933 139.521L54.8178 137.354L59.5185 143.029L56.894 145.195ZM64.7704 138.694L60.0697 133.02L63.3712 130.295L68.0719 135.97L64.7704 138.694Z" fill="#C23336"/>
</g>
<path d="M230.179 345.543C233.225 347.812 237.39 343.819 235.241 340.688L237.888 338.149C240.935 340.38 245.1 336.425 242.95 333.294L246.261 330.119C249.306 332.388 253.435 328.394 251.322 325.264L256.189 320.56L264.789 329.493L249.003 344.633L233.218 359.773L224.618 350.84L230.184 345.538L230.179 345.543ZM187.871 374.354L171.793 357.653C185.279 342.066 183.992 318.797 169.821 304.076C155.687 289.394 132.444 287.184 116.302 300.01C94.466 277.327 90.3065 243.176 107.083 217.751L225.202 340.452L218.973 346.387C216.521 348.739 216.442 352.663 218.797 355.11L228.743 365.404C231.061 367.849 234.99 367.927 237.446 365.575L270.421 333.948C272.835 331.632 272.915 327.671 270.597 325.262L260.651 314.93C258.332 312.522 254.403 312.444 251.949 314.759L246.419 320.099L128.447 197.551C154.482 182.44 188.002 188.055 209.617 210.506C196.131 226.093 197.419 249.362 211.553 264.045C225.724 278.766 248.967 280.978 265.071 268.148L281.188 284.85C341.614 347.657 248.336 437.122 187.873 374.35L187.871 374.354ZM111.402 211.967C112.144 211.067 112.964 210.169 113.783 209.308L232.911 333.055L230.342 335.519L111.394 211.959L111.402 211.967ZM118.924 204.38C120.052 203.373 121.216 202.445 122.416 201.551L241.249 325.028L238.055 328.128L118.924 204.38Z" fill="#E7EDFF"/>
<path d="M230.179 345.543C233.225 347.812 237.39 343.819 235.241 340.688L237.888 338.149C240.935 340.38 245.1 336.425 242.95 333.294L246.261 330.119C249.306 332.388 253.435 328.394 251.322 325.264L256.189 320.56L264.789 329.493L249.003 344.633L233.218 359.773L224.618 350.84L230.184 345.538L230.179 345.543ZM187.871 374.354L171.793 357.653C185.279 342.066 183.992 318.797 169.821 304.076C155.687 289.394 132.444 287.184 116.302 300.01C94.466 277.327 90.3065 243.176 107.083 217.751L225.202 340.452L218.973 346.387C216.521 348.739 216.442 352.663 218.797 355.11L228.743 365.404C231.061 367.849 234.99 367.927 237.446 365.575L270.421 333.948C272.835 331.632 272.915 327.671 270.597 325.262L260.651 314.93C258.332 312.522 254.403 312.444 251.949 314.759L246.419 320.099L128.447 197.551C154.482 182.44 188.002 188.055 209.617 210.506C196.131 226.093 197.419 249.362 211.553 264.045C225.724 278.766 248.967 280.978 265.071 268.148L281.188 284.85C341.614 347.657 248.336 437.122 187.873 374.35L187.871 374.354ZM111.402 211.967C112.144 211.067 112.964 210.169 113.783 209.308L232.911 333.055L230.342 335.519L111.394 211.959L111.402 211.967ZM118.924 204.38C120.052 203.373 121.216 202.445 122.416 201.551L241.249 325.028L238.055 328.128L118.924 204.38Z" fill="#E7EDFF"/>
<path d="M230.179 345.543C233.225 347.812 237.39 343.819 235.241 340.688L237.888 338.149C240.935 340.38 245.1 336.425 242.95 333.294L246.261 330.119C249.306 332.388 253.435 328.394 251.322 325.264L256.189 320.56L264.789 329.493L249.003 344.633L233.218 359.773L224.618 350.84L230.184 345.538L230.179 345.543ZM187.871 374.354L171.793 357.653C185.279 342.066 183.992 318.797 169.821 304.076C155.687 289.394 132.444 287.184 116.302 300.01C94.466 277.327 90.3065 243.176 107.083 217.751L225.202 340.452L218.973 346.387C216.521 348.739 216.442 352.663 218.797 355.11L228.743 365.404C231.061 367.849 234.99 367.927 237.446 365.575L270.421 333.948C272.835 331.632 272.915 327.671 270.597 325.262L260.651 314.93C258.332 312.522 254.403 312.444 251.949 314.759L246.419 320.099L128.447 197.551C154.482 182.44 188.002 188.055 209.617 210.506C196.131 226.093 197.419 249.362 211.553 264.045C225.724 278.766 248.967 280.978 265.071 268.148L281.188 284.85C341.614 347.657 248.336 437.122 187.873 374.35L187.871 374.354ZM111.402 211.967C112.144 211.067 112.964 210.169 113.783 209.308L232.911 333.055L230.342 335.519L111.394 211.959L111.402 211.967ZM118.924 204.38C120.052 203.373 121.216 202.445 122.416 201.551L241.249 325.028L238.055 328.128L118.924 204.38Z" stroke="black" stroke-width="2"/>
<path d="M230.179 345.543C233.225 347.812 237.39 343.819 235.241 340.688L237.888 338.149C240.935 340.38 245.1 336.425 242.95 333.294L246.261 330.119C249.306 332.388 253.435 328.394 251.322 325.264L256.189 320.56L264.789 329.493L249.003 344.633L233.218 359.773L224.618 350.84L230.184 345.538L230.179 345.543ZM187.871 374.354L171.793 357.653C185.279 342.066 183.992 318.797 169.821 304.076C155.687 289.394 132.444 287.184 116.302 300.01C94.466 277.327 90.3065 243.176 107.083 217.751L225.202 340.452L218.973 346.387C216.521 348.739 216.442 352.663 218.797 355.11L228.743 365.404C231.061 367.849 234.99 367.927 237.446 365.575L270.421 333.948C272.835 331.632 272.915 327.671 270.597 325.262L260.651 314.93C258.332 312.522 254.403 312.444 251.949 314.759L246.419 320.099L128.447 197.551C154.482 182.44 188.002 188.055 209.617 210.506C196.131 226.093 197.419 249.362 211.553 264.045C225.724 278.766 248.967 280.978 265.071 268.148L281.188 284.85C341.614 347.657 248.336 437.122 187.873 374.35L187.871 374.354ZM111.402 211.967C112.144 211.067 112.964 210.169 113.783 209.308L232.911 333.055L230.342 335.519L111.394 211.959L111.402 211.967ZM118.924 204.38C120.052 203.373 121.216 202.445 122.416 201.551L241.249 325.028L238.055 328.128L118.924 204.38Z" stroke="black" stroke-width="2"/>
<path d="M13.1366 111.819C12.9805 111.63 12.9783 111.283 13.2077 111.057L43.1138 86.4084L43.1143 86.4079C43.3229 86.2358 43.675 86.2666 43.852 86.4786C43.8522 86.4788 43.8524 86.479 43.8525 86.4792L61.3315 107.537C61.5305 107.804 61.464 108.157 61.2707 108.317L61.2671 108.32L56.9688 111.903L56.2026 112.541L56.8384 113.309L63.511 121.364L64.1475 122.132L64.9176 121.496L71.8785 115.751C72.5309 115.213 73.1637 115.093 73.708 115.18C74.2774 115.271 74.8283 115.603 75.2368 116.096C75.6454 116.589 75.8678 117.19 75.8503 117.763C75.8336 118.311 75.5977 118.908 74.9446 119.446L74.9443 119.447L67.9834 125.192L67.2105 125.83L67.8493 126.601L72.55 132.275L73.1866 133.044L73.9567 132.408L80.9175 126.663C81.5688 126.125 82.2 126.007 82.7433 126.096C83.3124 126.189 83.864 126.523 84.2734 127.019C84.683 127.515 84.9053 128.118 84.8879 128.69C84.8714 129.235 84.6367 129.825 83.988 130.354L83.981 130.36L77.0582 136.109L76.2895 136.747L76.9264 137.516L128.426 199.685C126.943 200.391 125.507 201.193 124.145 202.091L73.1797 140.568L72.5431 139.799L71.773 140.435L68.4716 143.16L67.6984 143.798L68.3377 144.569L118.774 205.416C118.612 205.542 118.446 205.669 118.277 205.798L118.208 205.851C117.781 206.178 117.336 206.519 116.897 206.875C116.279 207.377 115.656 207.922 115.082 208.533L64.6287 147.628L63.9874 146.853L63.2163 147.5L60.6272 149.669L59.865 150.308L60.4987 151.073L111.158 212.267C109.944 213.365 108.901 214.472 107.952 215.929L56.7524 154.123L56.114 153.352L55.3434 153.992L48.4229 159.739C48.4226 159.739 48.4223 159.739 48.4221 159.739C47.77 160.277 47.1375 160.397 46.5934 160.31C46.024 160.219 45.4731 159.887 45.0646 159.394C44.656 158.901 44.4336 158.3 44.4511 157.727C44.4678 157.179 44.7037 156.582 45.3568 156.044L45.3594 156.042L52.2823 150.293L53.051 149.655L52.414 148.886L47.7134 143.211L47.0768 142.443L46.3067 143.078L39.3458 148.824L39.3415 148.827C38.7006 149.362 38.076 149.48 37.5351 149.392C36.9677 149.299 36.4143 148.965 36.0021 148.467C35.5898 147.969 35.3651 147.365 35.3805 146.794C35.3953 146.249 35.6277 145.66 36.2754 145.132L36.2801 145.128L43.2409 139.383L44.0138 138.745L43.375 137.974L36.7024 129.919L36.0659 129.151L35.2957 129.786L31.4128 132.991C31.1438 133.191 30.7862 133.125 30.6254 132.931L13.1366 111.819ZM53.3922 116.687L53.5797 114.717L51.7259 116.228L48.4278 118.918L47.6486 119.553L48.2875 120.329L54.9565 128.422L55.5926 129.194L56.3648 128.556L59.6662 125.832L60.4392 125.194L59.8003 124.423L53.3922 116.687ZM44.8418 123.744L45.0288 121.779L43.1766 123.284L40.5555 125.415L39.774 126.05L40.414 126.827L47.0829 134.92L47.7191 135.692L48.4913 135.055L51.1158 132.889L51.8887 132.251L51.2499 131.48L44.8418 123.744ZM56.1236 145.834L56.7601 146.602L57.5303 145.966L60.1548 143.8L60.9277 143.162L60.2889 142.391L55.5882 136.717L54.9516 135.948L54.1815 136.584L51.557 138.75L50.784 139.388L51.4229 140.159L56.1236 145.834ZM64 139.333L64.6366 140.101L65.4067 139.466L68.7081 136.741L69.4811 136.103L68.8422 135.332L64.1416 129.657L63.505 128.889L62.7349 129.524L59.4334 132.249L58.6605 132.887L59.2993 133.658L64 139.333ZM58.1092 142.896L57.0278 143.789L53.6025 139.654L54.6839 138.761L58.1092 142.896ZM66.6626 135.837L64.9043 137.288L61.479 133.153L63.2373 131.702L66.6626 135.837Z" fill="#E7EDFF" stroke="black" stroke-width="2"/>
<g clip-path="url(#clip1_613_2622)">
<path d="M391.455 231.457L391.455 231.458C389.953 235.475 390.283 239.137 391.794 242.111C393.294 245.065 395.924 247.275 398.922 248.495C401.919 249.715 405.342 249.97 408.463 248.94C411.606 247.903 414.383 245.581 416.069 241.776C416.086 241.736 416.122 241.643 416.176 241.5C417.347 238.407 427.325 212.065 457.785 200.124L469.892 230.789C460.517 234.283 453.074 241.682 448.937 251.02L446.581 256.338C436.931 278.119 411.331 290.181 388.7 281.734C362.984 271.918 352.71 241.341 364.652 219.079L364.656 219.072L364.659 219.066L441.889 69.8264L441.893 69.8185L441.897 69.8105C442.582 68.4276 442.86 67.0992 442.746 65.8522C442.632 64.6007 442.128 63.5001 441.359 62.5712C439.846 60.7425 437.313 59.5781 434.559 59.0172C431.781 58.4514 428.635 58.4687 425.742 59.1341C422.856 59.7976 420.131 61.1281 418.302 63.2712L418.302 63.2712L418.294 63.2806C417.891 63.7643 417.497 64.2396 417.109 64.7062C414.762 67.5335 412.68 70.0401 410.682 72.1579C408.355 74.6231 406.198 76.497 403.955 77.6928C401.736 78.8758 399.409 79.4075 396.703 79.149C393.973 78.8882 390.805 77.8178 386.932 75.7054L386.896 75.6857L386.858 75.669C384.827 74.7692 384.096 72.4197 385.103 70.1455C386.02 68.0764 388.322 67.371 390.57 68.3436L390.607 68.3651C392.543 69.4748 394.116 70.3761 395.493 70.8596C396.957 71.3734 398.298 71.4529 399.727 70.8414C401.076 70.2643 402.411 69.1072 403.996 67.4162C405.566 65.7415 407.476 63.4344 409.972 60.417C410.009 60.3932 410.038 60.3721 410.058 60.3574C410.17 60.2751 410.27 60.1796 410.351 60.0971C410.515 59.931 410.708 59.7076 410.908 59.4724C410.946 59.4282 410.985 59.3827 411.024 59.3359C411.423 58.8669 411.929 58.2729 412.573 57.605C413.987 56.1402 416.055 54.3372 418.96 52.9246C424.725 50.1212 434.007 48.7506 448.397 55.1262C452.291 56.8514 454.072 61.4059 452.741 65.594L439.595 101.241L439.27 102.121L440.128 102.501L452.065 107.79L452.783 108.108L453.262 107.485C454.096 106.402 455.684 106.212 457.235 106.899C458.999 107.681 460.114 109.886 459.183 111.986C458.176 114.26 455.944 115.297 453.913 114.397C453.18 114.073 452.658 113.629 452.306 113.078C451.95 112.522 451.727 111.795 451.693 110.848L451.671 110.223L451.099 109.97L439.162 104.681L438.176 104.245L437.815 105.26L433.568 117.195L433.257 118.069L434.105 118.444L445.172 123.347L445.891 123.666L446.37 123.043C447.203 121.96 448.791 121.77 450.342 122.457C452.107 123.239 453.221 125.444 452.291 127.544C451.283 129.818 449.051 130.855 447.02 129.955C446.287 129.63 445.766 129.187 445.413 128.635C445.057 128.079 444.835 127.352 444.801 126.406L444.778 125.781L444.206 125.527L433.574 120.817L432.588 120.38L432.227 121.396L427.98 133.33L427.669 134.204L428.517 134.58L438.714 139.098L439.433 139.416L439.912 138.793C440.745 137.71 442.333 137.52 443.885 138.207C444.732 138.583 445.371 139.494 445.692 140.671C446.015 141.853 445.943 143.045 445.639 143.731C444.851 145.511 442.645 146.628 440.563 145.705C439.829 145.381 439.308 144.937 438.955 144.386C438.6 143.83 438.377 143.103 438.343 142.156L438.32 141.531L437.749 141.278L428.025 136.97L427.056 136.541L426.684 137.533L391.455 231.457ZM405.12 176.838L405.124 176.83L405.127 176.821C406.334 174.098 405.124 170.931 402.402 169.725C399.68 168.519 396.521 169.75 395.315 172.474C394.108 175.198 395.318 178.365 398.04 179.571C400.776 180.783 403.877 179.513 405.12 176.838ZM414.175 156.398L414.179 156.39L414.183 156.382C415.389 153.658 414.179 150.492 411.457 149.286C408.735 148.08 405.577 149.311 404.37 152.035C403.163 154.759 404.373 157.925 407.095 159.131C409.832 160.344 412.933 159.073 414.175 156.398ZM386.453 192.477C385.246 195.201 386.456 198.367 389.178 199.573C390.517 200.167 392.084 200.221 393.419 199.757C394.743 199.297 395.912 198.293 396.303 196.737C397.446 194.033 396.233 190.921 393.54 189.728C390.818 188.522 387.659 189.753 386.453 192.477ZM419.635 250.24C418.428 252.964 419.639 256.131 422.361 257.337C425.077 258.54 428.221 257.357 429.448 254.588C430.655 251.864 429.444 248.697 426.723 247.491C424.001 246.285 420.842 247.516 419.635 250.24ZM435.924 245.827C438.646 247.032 441.805 245.801 443.011 243.077C444.218 240.354 443.008 237.187 440.286 235.981C437.564 234.775 434.405 236.006 433.199 238.73C431.992 241.454 433.202 244.621 435.924 245.827Z" fill="white" stroke="black" stroke-width="2"/>
<path d="M463.833 191.732L464.218 191.583L464.368 191.243C466.12 190.987 467.543 191.806 468.027 193.068L482.264 230.18C482.691 232.134 481.875 233.828 480.85 234.503L480.374 234.688C478.439 235.142 476.832 234.297 476.311 232.94L462.072 195.822C461.624 193.881 462.474 192.26 463.833 191.732Z" fill="#1D1F31" stroke="black" stroke-width="2"/>
<path d="M452.47 106.875C452.47 106.875 450.984 109.161 450.694 110.884C450.386 112.647 450.947 114.794 454.804 115.696C458.66 116.597 460.098 112.391 460.098 112.391C460.098 112.391 462.66 108.209 457.64 105.985C454.162 104.444 452.47 106.875 452.47 106.875Z" fill="#1D1F31"/>
<path d="M445.542 122.513C445.542 122.513 444.056 124.798 443.766 126.521C443.458 128.284 444.019 130.432 447.876 131.333C451.749 132.194 453.17 128.028 453.17 128.028C453.17 128.028 455.732 123.846 450.712 121.622C447.251 120.041 445.542 122.513 445.542 122.513Z" fill="#1D1F31"/>
<path d="M439.133 138.047C439.133 138.047 437.63 140.372 437.322 142.135C437.014 143.897 437.518 146.068 441.374 146.969C445.389 147.94 446.73 143.739 446.73 143.739C446.73 143.739 449.261 139.306 444.281 137.099C440.842 135.576 439.133 138.047 439.133 138.047Z" fill="#1D1F31"/>
<path d="M407.5 158.217C409.705 159.194 412.288 158.191 413.268 155.977C414.249 153.763 413.257 151.177 411.052 150.2C408.847 149.223 406.265 150.226 405.284 152.44C404.303 154.654 405.296 157.24 407.5 158.217Z" fill="#E7EDFF"/>
<path d="M398.445 178.656C400.65 179.633 403.232 178.63 404.213 176.416C405.194 174.203 404.202 171.616 401.997 170.639C399.792 169.662 397.21 170.665 396.229 172.879C395.248 175.093 396.24 177.679 398.445 178.656Z" fill="#E7EDFF"/>
<path d="M389.583 198.659C391.788 199.636 394.37 198.633 395.351 196.419C396.332 194.205 395.339 191.619 393.135 190.642C390.93 189.665 388.347 190.668 387.367 192.882C386.386 195.096 387.378 197.682 389.583 198.659Z" fill="#1D1F31"/>
<path d="M389.86 198.782C392.195 199.816 394.884 198.861 395.865 196.647C396.846 194.433 395.747 191.799 393.411 190.765C391.076 189.73 388.387 190.686 387.406 192.899C386.425 195.113 387.524 197.747 389.86 198.782Z" fill="#E7EDFF"/>
<circle cx="424.716" cy="252.41" r="4.73141" transform="rotate(40.4344 424.716 252.41)" fill="#E7EDFF"/>
<circle cx="438.254" cy="240.866" r="4.75833" transform="rotate(40.4344 438.254 240.866)" fill="#E7EDFF"/>
</g>
<circle cx="984" cy="7" r="89" fill="#BC090D"/>
<circle cx="983.616" cy="7.38363" r="41.8147" fill="white"/>
<circle cx="984" cy="6.99979" r="16.8793" fill="#1D1F31"/>
<mask id="mask1_613_2622" style="mask-type:alpha" maskUnits="userSpaceOnUse" x="105" y="96" width="274" height="211">
<path d="M136.789 190.547L129.839 193.79L105.64 96.5H358.544L377.952 306.5H295.316L290.952 297.286L290.933 297.247L290.908 297.212L284.908 288.712L284.888 288.682L284.863 288.656L275.363 278.656L275.361 278.654L264.361 267.154L264.155 266.939L263.868 267.018L238.549 273.968L206.897 258.637L195.554 228.551L206.896 209.811L208.354 208.354L208.72 207.987L208.34 207.634L201.34 201.134L201.313 201.108L201.282 201.087L190.282 193.587L190.229 193.551L190.169 193.53L177.669 189.03L177.63 189.015L177.589 189.008L166.589 187.008L166.554 187.002L166.518 187L152.518 186.5L152.445 186.498L152.375 186.516L136.875 190.516L136.83 190.527L136.789 190.547Z" fill="#C4C4C4" stroke="#73798C"/>
</mask>
<g mask="url(#mask1_613_2622)">
<circle cx="240" cy="233" r="113" stroke="#73798C" stroke-width="2"/>
<circle cx="239.329" cy="233.671" r="100.259" stroke="#73798C" stroke-width="2"/>
<circle cx="239.999" cy="233" r="88.8588" stroke="#73798C" stroke-width="2"/>
<circle cx="240.001" cy="233.001" r="78.1294" stroke="#73798C" stroke-width="2"/>
<circle cx="239.33" cy="233.671" r="66.7294" stroke="#73798C" stroke-width="2"/>
<circle cx="240" cy="233" r="55.3294" stroke="#73798C" stroke-width="2"/>
<circle cx="239.329" cy="233.671" r="43.9294" stroke="#73798C" stroke-width="2"/>
<circle cx="239.329" cy="233.67" r="31.8588" stroke="#73798C" stroke-width="2"/>
</g>
<path d="M213.857 108.671C213.803 108.679 213.751 108.695 213.702 108.719L196.784 116.892C196.584 116.988 196.467 117.201 196.491 117.423L198.963 140.312C198.26 139.893 197.359 139.782 196.428 139.917C195.152 140.102 193.764 140.733 192.508 141.759C191.25 142.784 190.351 144.018 189.91 145.235C189.469 146.451 189.486 147.71 190.215 148.61C190.943 149.51 192.168 149.786 193.444 149.601C194.721 149.416 196.107 148.783 197.364 147.758C198.622 146.732 199.522 145.499 199.963 144.283C200.197 143.637 200.299 142.98 200.237 142.371L200.237 142.371C200.237 142.361 200.236 142.352 200.235 142.342L198.266 124.109L214.177 116.37L215.852 131.879C215.151 131.467 214.254 131.358 213.329 131.492C212.052 131.676 210.665 132.308 209.408 133.333C208.151 134.359 207.253 135.592 206.812 136.809C206.371 138.026 206.388 139.284 207.117 140.184C207.845 141.084 209.069 141.358 210.345 141.173C211.622 140.989 213.009 140.357 214.266 139.332C215.523 138.306 216.421 137.073 216.862 135.856C217.065 135.296 217.17 134.728 217.154 134.189L217.154 134.189L217.153 134.184C217.148 134.009 217.13 133.837 217.098 133.669L214.448 109.134L214.448 109.134C214.433 108.993 214.362 108.864 214.25 108.776C214.139 108.689 213.996 108.65 213.856 108.67L213.857 108.671Z" fill="white"/>
<path d="M288.413 174.471C285.909 174.557 283.47 175.165 280.916 175.209L295.061 187.308L295.058 187.315C291.163 187.968 287.882 193.607 290.988 196.369C294.979 199.948 302.873 192.538 297.343 187.342C293.691 184.217 290.038 181.093 286.386 177.969C289.73 175.277 293.28 177.215 294.302 180.966C293.791 175.395 291.552 174.362 288.413 174.471Z" fill="white"/>
</g>
<defs>
<clipPath id="clip0_613_2622">
<rect width="994" height="305" fill="white"/>
</clipPath>
<clipPath id="clip1_613_2622">
<rect width="156.583" height="233.452" fill="white" transform="translate(400.542 32.8306) rotate(23.895)"/>
</clipPath>
</defs>
</svg>
