<svg width="445" height="384" viewBox="0 0 445 384" fill="none" xmlns="http://www.w3.org/2000/svg">
<mask id="mask0_816_109707" style="mask-type:alpha" maskUnits="userSpaceOnUse" x="0" y="0" width="445" height="384">
<rect width="444.972" height="383.948" fill="#C4C4C4"/>
</mask>
<g mask="url(#mask0_816_109707)">
<path d="M370 283L339 332H-2.49951L322 283H370Z" fill="#BC090D"/>
<path d="M216.067 27.2279C216.067 64.9749 187.305 95.5749 151.826 95.5749C116.346 95.5749 87.5845 64.9749 87.5845 27.2279C87.5845 -10.5191 116.346 -41.1191 151.826 -41.1191C187.305 -41.1191 216.067 -10.5191 216.067 27.2279ZM143.54 27.2279C143.54 32.0966 147.249 36.0434 151.826 36.0434C156.402 36.0434 160.111 32.0966 160.111 27.2279C160.111 22.3592 156.402 18.4124 151.826 18.4124C147.249 18.4124 143.54 22.3592 143.54 27.2279Z" fill="white"/>
<path d="M216.067 27.2279C216.067 64.9749 187.305 95.5749 151.826 95.5749C116.346 95.5749 87.5845 64.9749 87.5845 27.2279C87.5845 -10.5191 116.346 -41.1191 151.826 -41.1191C187.305 -41.1191 216.067 -10.5191 216.067 27.2279ZM128.027 27.2279C128.027 41.2115 138.682 52.5475 151.826 52.5475C164.969 52.5475 175.624 41.2115 175.624 27.2279C175.624 13.2443 164.969 1.90829 151.826 1.90829C138.682 1.90829 128.027 13.2443 128.027 27.2279Z" fill="#BC090D"/>
<path d="M344.082 174.738C344.082 239.76 291.236 292.476 226.041 292.476C160.847 292.476 108 239.76 108 174.738C108 109.716 160.847 57.0005 226.041 57.0005C291.236 57.0005 344.082 109.716 344.082 174.738Z" stroke="white" stroke-width="2"/>
<path d="M336.921 174.738C336.921 235.816 287.281 285.333 226.041 285.333C164.801 285.333 115.161 235.816 115.161 174.738C115.161 113.66 164.801 64.1426 226.041 64.1426C287.281 64.1426 336.921 113.66 336.921 174.738Z" stroke="white" stroke-width="2"/>
<path d="M330.656 174.738C330.656 232.365 283.821 279.084 226.041 279.084C168.262 279.084 121.426 232.365 121.426 174.738C121.426 117.112 168.262 70.3921 226.041 70.3921C283.821 70.3921 330.656 117.112 330.656 174.738Z" stroke="white" stroke-width="2"/>
<path d="M323.496 174.738C323.496 228.42 279.866 271.942 226.041 271.942C172.216 271.942 128.586 228.42 128.586 174.738C128.586 121.056 172.216 77.5342 226.041 77.5342C279.866 77.5342 323.496 121.056 323.496 174.738Z" stroke="white" stroke-width="2"/>
<path d="M309.175 174.739C309.175 220.532 271.957 257.658 226.041 257.658C180.125 257.658 142.907 220.532 142.907 174.739C142.907 128.946 180.125 91.8188 226.041 91.8188C271.957 91.8188 309.175 128.946 309.175 174.739Z" stroke="white" stroke-width="2"/>
<path d="M302.91 174.738C302.91 217.079 268.497 251.408 226.041 251.408C183.585 251.408 149.172 217.079 149.172 174.738C149.172 132.396 183.585 98.0674 226.041 98.0674C268.497 98.0674 302.91 132.396 302.91 174.738Z" stroke="white" stroke-width="2"/>
<path d="M295.749 174.738C295.749 213.135 264.542 244.266 226.041 244.266C187.54 244.266 156.333 213.135 156.333 174.738C156.333 136.341 187.54 105.209 226.041 105.209C264.542 105.209 295.749 136.341 295.749 174.738Z" stroke="white" stroke-width="2"/>
<path d="M288.589 174.738C288.589 209.19 260.587 237.124 226.041 237.124C191.494 237.124 163.493 209.19 163.493 174.738C163.493 140.285 191.494 112.352 226.041 112.352C260.587 112.352 288.589 140.285 288.589 174.738Z" stroke="white" stroke-width="2"/>
<path d="M282.324 174.738C282.324 205.739 257.128 230.875 226.041 230.875C194.955 230.875 169.758 205.739 169.758 174.738C169.758 143.737 194.955 118.601 226.041 118.601C257.128 118.601 282.324 143.737 282.324 174.738Z" stroke="white" stroke-width="2"/>
<path d="M275.163 174.738C275.163 201.795 253.173 223.733 226.041 223.733C198.909 223.733 176.918 201.795 176.918 174.738C176.918 147.681 198.909 125.743 226.041 125.743C253.173 125.743 275.163 147.681 275.163 174.738Z" stroke="white" stroke-width="2"/>
<path d="M316.335 174.738C316.335 224.475 275.911 264.799 226.041 264.799C176.17 264.799 135.747 224.475 135.747 174.738C135.747 125 176.17 84.6758 226.041 84.6758C275.911 84.6758 316.335 125 316.335 174.738Z" stroke="white" stroke-width="2"/>
<path d="M211.597 -59.7225L577.028 217.801L345.5 132.5L-64.4995 -90L211.597 -59.7225Z" fill="#E7EDFF"/>
</g>
</svg>
