<svg width="997" height="224" viewBox="0 0 997 224" fill="none" xmlns="http://www.w3.org/2000/svg">
<g clip-path="url(#clip0_507_64725)">
<path d="M259.998 257.618C259.998 339.695 193.291 406.236 110.998 406.236C28.7055 406.236 -38.0017 339.695 -38.0017 257.618C-38.0017 175.541 28.7055 109 110.998 109C193.291 109 259.998 175.541 259.998 257.618Z" stroke="#E7EDFF" stroke-width="2"/>
<path d="M250.976 257.617C250.976 334.724 188.308 397.236 110.998 397.236C33.6883 397.236 -28.9794 334.724 -28.9794 257.617C-28.9794 180.511 33.6883 117.999 110.998 117.999C188.308 117.999 250.976 180.511 250.976 257.617Z" stroke="#E7EDFF" stroke-width="2"/>
<path d="M243.081 257.618C243.081 330.376 183.948 389.362 110.999 389.362C38.0488 389.362 -21.0842 330.376 -21.0842 257.618C-21.0842 184.861 38.0488 125.875 110.999 125.875C183.948 125.875 243.081 184.861 243.081 257.618Z" stroke="#E7EDFF" stroke-width="2"/>
<path d="M234.058 257.618C234.058 325.405 178.965 380.362 110.998 380.362C43.0316 380.362 -12.0619 325.405 -12.0619 257.618C-12.0619 189.83 43.0316 134.873 110.998 134.873C178.965 134.873 234.058 189.83 234.058 257.618Z" stroke="#E7EDFF" stroke-width="2"/>
<path d="M216.013 257.619C216.013 315.466 168.998 362.364 110.998 362.364C52.9972 362.364 5.98279 315.466 5.98279 257.619C5.98279 199.772 52.9972 152.874 110.998 152.874C168.998 152.874 216.013 199.772 216.013 257.619Z" stroke="#E7EDFF" stroke-width="2"/>
<path d="M208.119 257.618C208.119 311.116 164.639 354.489 110.998 354.489C57.3578 354.489 13.8779 311.116 13.8779 257.618C13.8779 204.121 57.3578 160.748 110.998 160.748C164.639 160.748 208.119 204.121 208.119 257.618Z" stroke="#E7EDFF" stroke-width="2"/>
<path d="M199.096 257.618C199.096 306.145 159.655 345.489 110.998 345.489C62.3406 345.489 22.9003 306.145 22.9003 257.618C22.9003 209.09 62.3406 169.747 110.998 169.747C159.655 169.747 199.096 209.09 199.096 257.618Z" stroke="#E7EDFF" stroke-width="2"/>
<path d="M190.073 257.617C190.073 301.174 154.672 336.488 110.998 336.488C67.3234 336.488 31.9226 301.174 31.9226 257.617C31.9226 214.06 67.3234 178.746 110.998 178.746C154.672 178.746 190.073 214.06 190.073 257.617Z" stroke="#E7EDFF" stroke-width="2"/>
<path d="M182.179 257.618C182.179 296.826 150.313 328.615 110.998 328.615C71.6839 328.615 39.8177 296.826 39.8177 257.618C39.8177 218.41 71.6839 186.621 110.998 186.621C150.313 186.621 182.179 218.41 182.179 257.618Z" stroke="#E7EDFF" stroke-width="2"/>
<path d="M173.156 257.617C173.156 291.855 145.329 319.614 110.998 319.614C76.6667 319.614 48.8401 291.855 48.8401 257.617C48.8401 223.38 76.6667 195.62 110.998 195.62C145.329 195.62 173.156 223.38 173.156 257.617Z" stroke="#E7EDFF" stroke-width="2"/>
<path d="M225.036 257.618C225.036 320.435 173.982 371.363 110.998 371.363C48.0144 371.363 -3.03955 320.435 -3.03955 257.618C-3.03955 194.801 48.0144 143.874 110.998 143.874C173.982 143.874 225.036 194.801 225.036 257.618Z" stroke="#E7EDFF" stroke-width="2"/>
<path d="M890.985 148.558C890.985 216.242 945.995 271.115 1013.86 271.115C1081.72 271.115 1136.73 216.242 1136.73 148.558C1136.73 80.8737 1081.72 26.0005 1013.86 26.0005C945.995 26.0005 890.985 80.8737 890.985 148.558Z" stroke="#E7EDFF" stroke-width="2"/>
<path d="M898.437 148.558C898.437 212.137 950.111 263.683 1013.86 263.683C1077.61 263.683 1129.28 212.137 1129.28 148.558C1129.28 84.9781 1077.61 33.4324 1013.86 33.4324C950.111 33.4324 898.437 84.9781 898.437 148.558Z" stroke="#E7EDFF" stroke-width="2"/>
<path d="M904.955 148.558C904.955 208.546 953.71 257.18 1013.86 257.18C1074 257.18 1122.76 208.546 1122.76 148.558C1122.76 88.5701 1074 39.9358 1013.86 39.9358C953.71 39.9358 904.955 88.5701 904.955 148.558Z" stroke="#E7EDFF" stroke-width="2"/>
<path d="M912.407 148.558C912.407 204.441 957.826 249.748 1013.86 249.748C1069.89 249.748 1115.31 204.441 1115.31 148.558C1115.31 92.6743 1069.89 47.3674 1013.86 47.3674C957.826 47.3674 912.407 92.6743 912.407 148.558Z" stroke="#E7EDFF" stroke-width="2"/>
<path d="M927.309 148.558C927.309 196.233 966.056 234.885 1013.86 234.885C1061.66 234.885 1100.41 196.233 1100.41 148.558C1100.41 100.884 1061.66 62.2322 1013.86 62.2322C966.056 62.2322 927.309 100.884 927.309 148.558Z" stroke="#E7EDFF" stroke-width="2"/>
<path d="M933.829 148.558C933.829 192.641 969.657 228.381 1013.86 228.381C1058.06 228.381 1093.89 192.641 1093.89 148.558C1093.89 104.475 1058.06 68.7346 1013.86 68.7346C969.657 68.7346 933.829 104.475 933.829 148.558Z" stroke="#E7EDFF" stroke-width="2"/>
<path d="M941.28 148.557C941.28 188.536 973.772 220.949 1013.86 220.949C1053.94 220.949 1086.44 188.536 1086.44 148.557C1086.44 108.579 1053.94 76.1663 1013.86 76.1663C973.772 76.1663 941.28 108.579 941.28 148.557Z" stroke="#E7EDFF" stroke-width="2"/>
<path d="M948.731 148.557C948.731 184.431 977.888 213.516 1013.86 213.516C1049.83 213.516 1078.99 184.431 1078.99 148.557C1078.99 112.684 1049.83 83.5981 1013.86 83.5981C977.888 83.5981 948.731 112.684 948.731 148.557Z" stroke="#E7EDFF" stroke-width="2"/>
<path d="M955.25 148.558C955.25 180.84 981.487 207.014 1013.86 207.014C1046.23 207.014 1072.47 180.84 1072.47 148.558C1072.47 116.276 1046.23 90.1016 1013.86 90.1016C981.487 90.1016 955.25 116.276 955.25 148.558Z" stroke="#E7EDFF" stroke-width="2"/>
<path d="M962.701 148.558C962.701 176.735 985.603 199.582 1013.86 199.582C1042.11 199.582 1065.02 176.735 1065.02 148.558C1065.02 120.38 1042.11 97.5334 1013.86 97.5334C985.603 97.5334 962.701 120.38 962.701 148.558Z" stroke="#E7EDFF" stroke-width="2"/>
<path d="M919.858 148.558C919.858 200.336 961.941 242.316 1013.86 242.316C1065.78 242.316 1107.86 200.336 1107.86 148.558C1107.86 96.7787 1065.78 54.7993 1013.86 54.7993C961.941 54.7993 919.858 96.7787 919.858 148.558Z" stroke="#E7EDFF" stroke-width="2"/>
<path d="M279.5 154.001L-146.002 297.766L403.5 273.001L279.5 154.001Z" fill="#1D1F31"/>
<path d="M866.962 93.9285L1264.5 338.001L537 415.001L866.962 93.9285Z" fill="#BC090D"/>
<path d="M69.5895 117C69.5895 155.66 40.1322 187 3.79475 187C-32.5427 187 -62 155.66 -62 117C-62 78.3401 -32.5427 47 3.79475 47C40.1322 47 69.5895 78.3401 69.5895 117ZM-9.22588 117C-9.22588 124.651 -3.39635 130.853 3.79475 130.853C10.9859 130.853 16.8154 124.651 16.8154 117C16.8154 109.349 10.9859 103.147 3.79475 103.147C-3.39635 103.147 -9.22588 109.349 -9.22588 117Z" fill="white"/>
<path d="M69.5895 117C69.5895 155.66 40.1322 187 3.79475 187C-32.5427 187 -62 155.66 -62 117C-62 78.3401 -32.5427 47 3.79475 47C40.1322 47 69.5895 78.3401 69.5895 117ZM-9.22588 117C-9.22588 124.651 -3.39635 130.853 3.79475 130.853C10.9859 130.853 16.8154 124.651 16.8154 117C16.8154 109.349 10.9859 103.147 3.79475 103.147C-3.39635 103.147 -9.22588 109.349 -9.22588 117Z" stroke="white" stroke-width="4" mask="url(#path-26-outside-1_507_64725)"/>
<path d="M69.5895 117C69.5895 155.66 40.1322 187 3.79475 187C-32.5427 187 -62 155.66 -62 117C-62 78.3401 -32.5427 47 3.79475 47C40.1322 47 69.5895 78.3401 69.5895 117ZM-20.5793 117C-20.5793 131.322 -9.66669 142.932 3.79475 142.932C17.2562 142.932 28.1688 131.322 28.1688 117C28.1688 102.678 17.2562 91.068 3.79475 91.068C-9.66669 91.068 -20.5793 102.678 -20.5793 117Z" fill="#BC090D"/>
<path d="M69.5895 117C69.5895 155.66 40.1322 187 3.79475 187C-32.5427 187 -62 155.66 -62 117C-62 78.3401 -32.5427 47 3.79475 47C40.1322 47 69.5895 78.3401 69.5895 117ZM-20.5793 117C-20.5793 131.322 -9.66669 142.932 3.79475 142.932C17.2562 142.932 28.1688 131.322 28.1688 117C28.1688 102.678 17.2562 91.068 3.79475 91.068C-9.66669 91.068 -20.5793 102.678 -20.5793 117Z" stroke="white" stroke-width="4" mask="url(#path-27-outside-2_507_64725)"/>
<path d="M796 258.177C796 305.771 759.735 344.354 715 344.354C670.265 344.354 634 305.771 634 258.177C634 210.583 670.265 172 715 172C759.735 172 796 210.583 796 258.177ZM684.993 258.177C684.993 275.809 698.428 290.102 715 290.102C731.572 290.102 745.007 275.809 745.007 258.177C745.007 240.545 731.572 226.252 715 226.252C698.428 226.252 684.993 240.545 684.993 258.177Z" fill="#1D1F31"/>
</g>
<defs>
<clipPath id="clip0_507_64725">
<rect x="1" y="1" width="995" height="222" fill="white"/>
</clipPath>
</defs>
</svg>
