<svg width="187" height="178" viewBox="0 0 187 178" fill="none" xmlns="http://www.w3.org/2000/svg">
<mask id="path-1-inside-1_816_109863" fill="white">
<path d="M93.4539 130.242C93.4539 130.242 72.9098 130.918 61.2872 126.917C49.6647 122.917 37.285 101.687 40.6612 88.1413C44.0375 74.5953 63.6302 0 63.6302 0H11.0216C11.0216 0 -10.6172 39.6866 6.745 51.1557C21.9383 61.1925 31.044 42.848 24.5063 33.0057C21.7029 28.7904 16.4032 20.6055 16.4032 20.6055C16.4032 20.6055 25.3862 11.0803 36.0982 17.5976C40.4873 20.2679 43.352 24.8412 44.2012 29.9056C46.0633 41.1087 35.8219 64.3232 18.9405 109.616C17.8458 112.543 17.5082 116.819 18.1937 121.239C19.7488 131.245 26.2865 139.809 35.4536 144.095C35.5661 144.147 35.6787 144.198 35.8015 144.259C54.0743 152.72 69.2982 147.144 72.9917 157.662C74.7719 162.726 67.2929 177.48 41.9094 177.766L143.423 177.725L145.091 177.766C119.717 177.48 112.228 162.726 114.008 157.662C117.702 147.155 132.926 152.72 151.199 144.259C151.311 144.208 151.424 144.157 151.546 144.095C160.724 139.798 167.251 131.245 168.806 121.239C169.492 116.809 169.124 112.553 168.059 109.616C153.337 68.6612 140.937 41.1087 142.799 29.9056C143.638 24.8412 146.513 20.2679 150.902 17.5976C161.614 11.0803 170.597 20.6055 170.597 20.6055C170.597 20.6055 165.297 28.7904 162.494 33.0057C155.956 42.848 165.062 61.1925 180.255 51.1557C197.617 39.6866 175.978 0 175.978 0H123.37C123.37 0 142.962 74.5953 146.339 88.1413C149.715 101.687 137.335 122.907 125.713 126.917C114.09 130.918 93.546 130.242 93.546 130.242"/>
</mask>
<path d="M93.4539 130.242C93.4539 130.242 72.9098 130.918 61.2872 126.917C49.6647 122.917 37.285 101.687 40.6612 88.1413C44.0375 74.5953 63.6302 0 63.6302 0H11.0216C11.0216 0 -10.6172 39.6866 6.745 51.1557C21.9383 61.1925 31.044 42.848 24.5063 33.0057C21.7029 28.7904 16.4032 20.6055 16.4032 20.6055C16.4032 20.6055 25.3862 11.0803 36.0982 17.5976C40.4873 20.2679 43.352 24.8412 44.2012 29.9056C46.0633 41.1087 35.8219 64.3232 18.9405 109.616C17.8458 112.543 17.5082 116.819 18.1937 121.239C19.7488 131.245 26.2865 139.809 35.4536 144.095C35.5661 144.147 35.6787 144.198 35.8015 144.259C54.0743 152.72 69.2982 147.144 72.9917 157.662C74.7719 162.726 67.2929 177.48 41.9094 177.766L143.423 177.725L145.091 177.766C119.717 177.48 112.228 162.726 114.008 157.662C117.702 147.155 132.926 152.72 151.199 144.259C151.311 144.208 151.424 144.157 151.546 144.095C160.724 139.798 167.251 131.245 168.806 121.239C169.492 116.809 169.124 112.553 168.059 109.616C153.337 68.6612 140.937 41.1087 142.799 29.9056C143.638 24.8412 146.513 20.2679 150.902 17.5976C161.614 11.0803 170.597 20.6055 170.597 20.6055C170.597 20.6055 165.297 28.7904 162.494 33.0057C155.956 42.848 165.062 61.1925 180.255 51.1557C197.617 39.6866 175.978 0 175.978 0H123.37C123.37 0 142.962 74.5953 146.339 88.1413C149.715 101.687 137.335 122.907 125.713 126.917C114.09 130.918 93.546 130.242 93.546 130.242" fill="white"/>
<path d="M63.6302 0L65.5646 0.508073L66.2233 -2H63.6302V0ZM11.0216 0V-2H9.83413L9.26567 -0.957419L11.0216 0ZM6.745 51.1557L7.84739 49.487L7.84736 49.4869L6.745 51.1557ZM24.5063 33.0057L26.1722 31.8991L26.1716 31.8981L24.5063 33.0057ZM16.4032 20.6055L14.9482 19.2333L13.8714 20.3751L14.7244 21.6925L16.4032 20.6055ZM36.0982 17.5976L35.0586 19.3062L35.0587 19.3062L36.0982 17.5976ZM44.2012 29.9056L46.1741 29.5777L46.1737 29.5749L44.2012 29.9056ZM18.9405 109.616L20.8137 110.317L20.8146 110.315L18.9405 109.616ZM18.1937 121.239L16.2173 121.546L16.2174 121.546L18.1937 121.239ZM35.4536 144.095L34.6064 145.907L34.6162 145.912L34.626 145.916L35.4536 144.095ZM35.8015 144.259L34.907 146.048L34.9339 146.061L34.9611 146.074L35.8015 144.259ZM72.9917 157.662L71.1046 158.325L71.1049 158.325L72.9917 157.662ZM41.9094 177.766L41.8869 175.766L41.9103 179.766L41.9094 177.766ZM143.423 177.725L143.472 175.726L143.447 175.725L143.422 175.725L143.423 177.725ZM145.091 177.766L145.068 179.766L145.14 175.767L145.091 177.766ZM114.008 157.662L115.895 158.325V158.325L114.008 157.662ZM151.199 144.259L150.371 142.438L150.358 142.444L151.199 144.259ZM151.546 144.095L150.698 142.284L150.675 142.295L150.652 142.307L151.546 144.095ZM168.806 121.239L170.783 121.546L170.783 121.545L168.806 121.239ZM168.059 109.616L166.177 110.293L166.179 110.298L168.059 109.616ZM142.799 29.9056L144.772 30.2336L144.772 30.2325L142.799 29.9056ZM150.902 17.5976L151.941 19.3062L151.941 19.3062L150.902 17.5976ZM170.597 20.6055L172.276 21.6925L173.129 20.3751L172.052 19.2333L170.597 20.6055ZM162.494 33.0057L160.828 31.8981L160.828 31.8991L162.494 33.0057ZM180.255 51.1557L179.153 49.4869L179.153 49.487L180.255 51.1557ZM175.978 0L177.734 -0.957419L177.166 -2H175.978V0ZM123.37 0V-2H120.777L121.435 0.508071L123.37 0ZM125.713 126.917L126.364 128.808L126.365 128.808L125.713 126.917ZM93.4539 130.242C93.3882 128.244 93.3884 128.244 93.3884 128.244C93.3883 128.244 93.3883 128.244 93.3881 128.244C93.3878 128.244 93.3871 128.244 93.3862 128.244C93.3842 128.244 93.3811 128.244 93.3767 128.244C93.3679 128.244 93.3542 128.245 93.3357 128.245C93.2988 128.246 93.2428 128.248 93.1686 128.25C93.0202 128.254 92.7989 128.259 92.512 128.264C91.9382 128.274 91.1023 128.285 90.0616 128.285C87.9789 128.286 85.0825 128.246 81.8295 128.083C75.2644 127.753 67.4645 126.928 61.9381 125.026L60.6363 128.808C66.7325 130.907 75.016 131.745 81.6286 132.078C84.9645 132.245 87.9305 132.286 90.0631 132.285C91.13 132.285 91.9898 132.274 92.5849 132.263C92.8825 132.258 93.114 132.252 93.2721 132.248C93.3512 132.246 93.412 132.245 93.4535 132.243C93.4743 132.243 93.4903 132.242 93.5013 132.242C93.5069 132.242 93.5112 132.242 93.5142 132.242C93.5157 132.242 93.517 132.241 93.5179 132.241C93.5183 132.241 93.5188 132.241 93.519 132.241C93.5193 132.241 93.5196 132.241 93.4539 130.242ZM61.9381 125.026C56.8104 123.261 51.1263 117.461 47.1021 110.145C43.0869 102.845 41.0888 94.6955 42.6019 88.625L38.7206 87.6576C36.8574 95.1331 39.361 104.371 43.5973 112.073C47.8245 119.758 54.1415 126.573 60.6363 128.808L61.9381 125.026ZM42.6019 88.625C44.2864 81.8663 50.0247 59.846 55.3467 39.4969C58.0067 29.3265 60.5612 19.5792 62.4506 12.3745C63.3954 8.7722 64.1739 5.80554 64.7162 3.73948C64.9873 2.70646 65.1994 1.89858 65.3437 1.34897C65.4159 1.07417 65.4711 0.863933 65.5083 0.722403C65.5269 0.651638 65.5409 0.59805 65.5504 0.562156C65.5551 0.544208 65.5586 0.530685 65.561 0.521649C65.5622 0.517132 65.5631 0.513736 65.5637 0.511471C65.564 0.510338 65.5642 0.509488 65.5643 0.508921C65.5645 0.508355 65.5646 0.508073 63.6302 0C61.6958 -0.508073 61.6957 -0.507786 61.6956 -0.507216C61.6954 -0.506647 61.6952 -0.505793 61.6949 -0.504657C61.6943 -0.502386 61.6934 -0.498985 61.6922 -0.494461C61.6898 -0.485414 61.6863 -0.471879 61.6816 -0.45392C61.6721 -0.418002 61.6581 -0.36439 61.6395 -0.293601C61.6023 -0.152022 61.5471 0.0582649 61.4749 0.33312C61.3306 0.882831 61.1184 1.69082 60.8472 2.72396C60.3049 4.79025 59.5263 7.75717 58.5815 11.3598C56.6919 18.565 54.1371 28.3132 51.4769 38.4848C46.1585 58.8199 40.4123 80.8703 38.7206 87.6576L42.6019 88.625ZM63.6302 -2H11.0216V2H63.6302V-2ZM11.0216 0C9.26567 -0.957419 9.26537 -0.956873 9.26499 -0.956177C9.26476 -0.955743 9.26429 -0.954894 9.26382 -0.954026C9.26288 -0.952291 9.26161 -0.949951 9.26001 -0.947012C9.25682 -0.941134 9.25233 -0.932857 9.24658 -0.922214C9.23507 -0.900927 9.2185 -0.870174 9.19709 -0.830213C9.15428 -0.750294 9.09212 -0.633529 9.01248 -0.481998C8.8532 -0.17896 8.6239 0.263288 8.33946 0.828118C7.77072 1.95745 6.98059 3.57869 6.08841 5.55856C4.30721 9.5113 2.10443 14.9261 0.449197 20.7283C-1.19869 26.5047 -2.34487 32.8035 -1.90551 38.4785C-1.4638 44.1838 0.612846 49.5019 5.64265 52.8245L7.84736 49.4869C4.19604 47.075 2.4667 43.1314 2.08256 38.1697C1.69607 33.1778 2.70419 27.4045 4.29573 21.8256C5.87993 16.2725 8.00173 11.0488 9.73524 7.20191C10.6004 5.28197 11.3652 3.71308 11.912 2.62725C12.1853 2.0845 12.404 1.66291 12.5532 1.379C12.6278 1.23705 12.685 1.12957 12.723 1.05861C12.7421 1.02313 12.7563 0.996782 12.7654 0.97983C12.77 0.971354 12.7733 0.965227 12.7754 0.961481C12.7764 0.959608 12.7771 0.95833 12.7774 0.957652C12.7776 0.957312 12.7777 0.957255 12.7777 0.957084C12.7777 0.957176 12.7776 0.957419 11.0216 0ZM5.64262 52.8245C9.75321 55.54 13.6706 56.4722 17.1652 55.913C20.6567 55.3543 23.45 53.35 25.3854 50.7211C29.1746 45.574 29.9658 37.6102 26.1722 31.8991L22.8403 34.1123C25.5844 38.2435 25.0917 44.3731 22.1641 48.3496C20.7411 50.2826 18.8179 51.5976 16.5332 51.9632C14.2517 52.3283 11.3334 51.7899 7.84739 49.487L5.64262 52.8245ZM26.1716 31.8981C24.7759 29.7995 22.7549 26.7068 21.0795 24.1336C20.2426 22.8481 19.4931 21.6942 18.9528 20.8616C18.6827 20.4454 18.4649 20.1095 18.3147 19.8777C18.2396 19.7618 18.1814 19.672 18.142 19.6111C18.1223 19.5807 18.1073 19.5575 18.0972 19.5419C18.0922 19.5342 18.0883 19.5283 18.0858 19.5244C18.0845 19.5224 18.0836 19.5209 18.083 19.52C18.0826 19.5195 18.0824 19.5191 18.0822 19.5189C18.0822 19.5187 18.0821 19.5186 18.0821 19.5186C18.082 19.5185 18.082 19.5185 16.4032 20.6055C14.7244 21.6925 14.7244 21.6926 14.7245 21.6927C14.7245 21.6927 14.7246 21.6928 14.7247 21.6929C14.7248 21.6932 14.7251 21.6936 14.7254 21.6941C14.7261 21.6951 14.727 21.6966 14.7283 21.6986C14.7309 21.7026 14.7347 21.7085 14.7398 21.7163C14.75 21.732 14.765 21.7553 14.7848 21.7858C14.8244 21.8469 14.8828 21.9371 14.9581 22.0532C15.1086 22.2855 15.3268 22.622 15.5973 23.0389C16.1384 23.8728 16.8891 25.0285 17.7274 26.3161C19.4028 28.8892 21.4333 31.9966 22.8409 34.1132L26.1716 31.8981ZM16.4032 20.6055C17.8582 21.9777 17.8576 21.9783 17.8571 21.9789C17.8569 21.9791 17.8564 21.9797 17.8561 21.98C17.8555 21.9806 17.8551 21.981 17.8548 21.9813C17.8542 21.982 17.8541 21.9821 17.8546 21.9816C17.8554 21.9807 17.8584 21.9776 17.8635 21.9723C17.8736 21.9619 17.892 21.9432 17.9185 21.9168C17.9714 21.864 18.0564 21.7811 18.1717 21.674C18.4025 21.4594 18.7526 21.15 19.2078 20.7932C20.1232 20.0758 21.4361 19.1888 23.0346 18.4902C26.1886 17.1118 30.3982 16.4707 35.0586 19.3062L37.1377 15.8889C31.0862 12.2072 25.4482 13.0701 21.4328 14.825C19.4465 15.693 17.8442 16.7799 16.7405 17.6449C16.1862 18.0793 15.7508 18.4631 15.4486 18.744C15.2973 18.8846 15.1788 18.9999 15.0949 19.0835C15.053 19.1253 15.0196 19.1592 14.9951 19.1845C14.9828 19.1971 14.9728 19.2075 14.965 19.2157C14.961 19.2198 14.9577 19.2233 14.9549 19.2263C14.9535 19.2277 14.9522 19.2291 14.9511 19.2302C14.9506 19.2308 14.9498 19.2316 14.9495 19.2319C14.9488 19.2326 14.9482 19.2333 16.4032 20.6055ZM35.0587 19.3062C38.9048 21.6462 41.4662 25.6888 42.2287 30.2364L46.1737 29.5749C45.2378 23.9936 42.0699 18.8896 37.1377 15.8889L35.0587 19.3062ZM42.2283 30.2336C42.6328 32.6672 42.4007 35.9291 41.4587 40.2956C40.5219 44.6383 38.9192 49.9174 36.709 56.3251C32.2808 69.1628 25.53 86.2101 17.0664 108.918L20.8146 110.315C29.2324 87.7296 36.0429 70.523 40.4903 57.6294C42.7179 51.1715 44.3815 45.7155 45.3688 41.1392C46.3509 36.5867 46.7007 32.7457 46.1741 29.5777L42.2283 30.2336ZM17.0673 108.916C15.8217 112.245 15.4945 116.885 16.2173 121.546L20.17 120.933C19.5219 116.753 19.8699 112.84 20.8137 110.317L17.0673 108.916ZM16.2174 121.546C17.8769 132.224 24.8481 141.344 34.6064 145.907L36.3008 142.284C27.7249 138.273 21.6207 130.267 20.1699 120.932L16.2174 121.546ZM34.626 145.916C34.7413 145.969 34.8219 146.005 34.907 146.048L36.6959 142.47C36.5354 142.39 36.3909 142.325 36.2812 142.275L34.626 145.916ZM34.9611 146.074C44.4201 150.454 53.137 151.207 59.5685 152.167C62.8512 152.658 65.3906 153.179 67.3155 154.118C69.1254 155.001 70.3735 156.243 71.1046 158.325L74.8787 156.999C73.7631 153.823 71.7232 151.817 69.0688 150.523C66.5294 149.285 63.4282 148.699 60.1592 148.211C53.4871 147.215 45.4556 146.525 36.6418 142.444L34.9611 146.074ZM71.1049 158.325C71.3278 158.959 71.3494 160.297 70.601 162.151C69.8773 163.944 68.5029 166.027 66.2958 168.022C61.9038 171.992 54.1884 175.627 41.8869 175.766L41.932 179.766C55.014 179.618 63.7297 175.734 68.9781 170.989C71.5911 168.627 73.3391 166.054 74.3103 163.648C75.2568 161.303 75.5457 158.897 74.8785 156.999L71.1049 158.325ZM41.9103 179.766L143.424 179.725L143.422 175.725L41.9086 175.766L41.9103 179.766ZM143.374 179.725L145.041 179.766L145.14 175.767L143.472 175.726L143.374 179.725ZM145.113 175.766C132.817 175.627 125.101 171.992 120.708 168.022C118.5 166.027 117.125 163.944 116.4 162.15C115.651 160.296 115.672 158.959 115.895 158.325L112.122 156.999C111.454 158.897 111.744 161.304 112.691 163.649C113.663 166.055 115.412 168.628 118.026 170.99C123.275 175.734 131.991 179.618 145.068 179.766L145.113 175.766ZM115.895 158.325C116.626 156.246 117.874 155.005 119.684 154.123C121.609 153.184 124.149 152.662 127.432 152.171C133.864 151.21 142.58 150.454 152.039 146.074L150.358 142.444C141.544 146.526 133.512 147.218 126.84 148.215C123.571 148.704 120.471 149.289 117.932 150.527C115.278 151.821 113.237 153.824 112.122 156.999L115.895 158.325ZM152.026 146.08C152.136 146.03 152.28 145.965 152.441 145.884L150.652 142.307C150.567 142.349 150.486 142.386 150.371 142.438L152.026 146.08ZM152.395 145.907C162.162 141.333 169.123 132.224 170.783 121.546L166.83 120.932C165.379 130.266 159.285 138.263 150.698 142.284L152.395 145.907ZM170.783 121.545C171.508 116.86 171.142 112.253 169.94 108.935L166.179 110.298C167.105 112.852 167.476 116.758 166.83 120.933L170.783 121.545ZM169.942 108.94C162.524 88.3066 155.827 71.4129 151.097 57.9414C148.75 51.2564 146.942 45.562 145.837 40.8687C144.719 36.1255 144.374 32.6254 144.772 30.2336L140.826 29.5777C140.292 32.7874 140.799 36.9325 141.943 41.7861C143.099 46.6897 144.962 52.5436 147.323 59.2666C152.008 72.6109 158.872 89.9711 166.177 110.293L169.942 108.94ZM144.772 30.2325C145.524 25.6907 148.093 21.6475 151.941 19.3062L149.862 15.8889C144.932 18.8883 141.751 23.9918 140.826 29.5788L144.772 30.2325ZM151.941 19.3062C156.602 16.4707 160.811 17.1118 163.965 18.4902C165.564 19.1888 166.877 20.0758 167.792 20.7932C168.247 21.15 168.598 21.4594 168.828 21.674C168.944 21.7811 169.029 21.864 169.082 21.9168C169.108 21.9432 169.126 21.9619 169.137 21.9723C169.142 21.9776 169.145 21.9807 169.145 21.9816C169.146 21.9821 169.146 21.982 169.145 21.9813C169.145 21.981 169.144 21.9806 169.144 21.98C169.144 21.9797 169.143 21.9791 169.143 21.9789C169.142 21.9783 169.142 21.9777 170.597 20.6055C172.052 19.2333 172.051 19.2326 172.05 19.2319C172.05 19.2316 172.049 19.2308 172.049 19.2302C172.048 19.2291 172.047 19.2277 172.045 19.2263C172.042 19.2233 172.039 19.2198 172.035 19.2157C172.027 19.2075 172.017 19.1971 172.005 19.1845C171.98 19.1592 171.947 19.1253 171.905 19.0835C171.821 18.9999 171.703 18.8846 171.551 18.744C171.249 18.4631 170.814 18.0793 170.26 17.6449C169.156 16.7799 167.553 15.693 165.567 14.825C161.552 13.0701 155.914 12.2072 149.862 15.8889L151.941 19.3062ZM170.597 20.6055C168.918 19.5185 168.918 19.5185 168.918 19.5186C168.918 19.5186 168.918 19.5187 168.918 19.5189C168.918 19.5191 168.917 19.5195 168.917 19.52C168.916 19.5209 168.915 19.5224 168.914 19.5244C168.912 19.5283 168.908 19.5342 168.903 19.5419C168.893 19.5575 168.878 19.5807 168.858 19.6111C168.819 19.672 168.76 19.7618 168.685 19.8777C168.535 20.1095 168.317 20.4454 168.047 20.8616C167.507 21.6942 166.757 22.8481 165.92 24.1336C164.245 26.7068 162.224 29.7995 160.828 31.8981L164.159 34.1132C165.567 31.9966 167.597 28.8892 169.273 26.3161C170.111 25.0285 170.862 23.8728 171.403 23.0389C171.673 22.622 171.891 22.2855 172.042 22.0532C172.117 21.9371 172.176 21.8469 172.215 21.7858C172.235 21.7553 172.25 21.732 172.26 21.7163C172.265 21.7085 172.269 21.7026 172.272 21.6986C172.273 21.6966 172.274 21.6951 172.275 21.6941C172.275 21.6936 172.275 21.6932 172.275 21.6929C172.275 21.6928 172.275 21.6927 172.276 21.6927C172.276 21.6926 172.276 21.6925 170.597 20.6055ZM160.828 31.8991C157.034 37.6102 157.825 45.574 161.615 50.7211C163.55 53.35 166.343 55.3543 169.835 55.913C173.329 56.4722 177.247 55.54 181.357 52.8245L179.153 49.487C175.667 51.7899 172.748 52.3283 170.467 51.9632C168.182 51.5976 166.259 50.2826 164.836 48.3496C161.908 44.3731 161.416 38.2435 164.16 34.1123L160.828 31.8991ZM181.357 52.8245C186.387 49.5019 188.464 44.1838 188.906 38.4785C189.345 32.8035 188.199 26.5047 186.551 20.7283C184.896 14.9261 182.693 9.5113 180.912 5.55856C180.019 3.57869 179.229 1.95745 178.661 0.828118C178.376 0.263288 178.147 -0.178961 177.988 -0.481998C177.908 -0.63353 177.846 -0.750294 177.803 -0.830213C177.781 -0.870174 177.765 -0.900928 177.753 -0.922214C177.748 -0.932857 177.743 -0.941134 177.74 -0.947012C177.738 -0.949951 177.737 -0.952291 177.736 -0.954027C177.736 -0.954894 177.735 -0.955743 177.735 -0.956177C177.735 -0.956873 177.734 -0.957419 175.978 0C174.222 0.957419 174.222 0.957176 174.222 0.957084C174.222 0.957255 174.222 0.957312 174.223 0.957652C174.223 0.95833 174.224 0.959608 174.225 0.961481C174.227 0.965227 174.23 0.971355 174.235 0.979831C174.244 0.996783 174.258 1.02313 174.277 1.05861C174.315 1.12957 174.372 1.23705 174.447 1.379C174.596 1.66291 174.815 2.0845 175.088 2.62725C175.635 3.71308 176.4 5.28197 177.265 7.20192C178.998 11.0488 181.12 16.2725 182.704 21.8256C184.296 27.4045 185.304 33.1778 184.917 38.1697C184.533 43.1314 182.804 47.075 179.153 49.4869L181.357 52.8245ZM175.978 -2H123.37V2H175.978V-2ZM123.37 0C121.435 0.508071 121.436 0.508354 121.436 0.50892C121.436 0.509487 121.436 0.510336 121.436 0.511469C121.437 0.513735 121.438 0.51713 121.439 0.521648C121.441 0.530683 121.445 0.544207 121.45 0.562154C121.459 0.598048 121.473 0.651637 121.492 0.722402C121.529 0.863932 121.584 1.07417 121.656 1.34897C121.801 1.89858 122.013 2.70646 122.284 3.73948C122.826 5.80554 123.605 8.7722 124.549 12.3745C126.439 19.5792 128.993 29.3265 131.653 39.4969C136.975 59.846 142.714 81.8663 144.398 88.625L148.279 87.6576C146.588 80.8703 140.841 58.8199 135.523 38.4848C132.863 28.3132 130.308 18.565 128.419 11.3598C127.474 7.75718 126.695 4.79025 126.153 2.72396C125.882 1.69082 125.669 0.882832 125.525 0.333122C125.453 0.0582664 125.398 -0.15202 125.361 -0.293599C125.342 -0.364388 125.328 -0.418001 125.318 -0.453918C125.314 -0.471877 125.31 -0.485413 125.308 -0.49446C125.307 -0.498983 125.306 -0.502385 125.305 -0.504656C125.305 -0.505792 125.305 -0.506645 125.304 -0.507214C125.304 -0.507784 125.304 -0.508071 123.37 0ZM144.398 88.625C145.911 94.6954 143.913 102.843 139.898 110.141C135.874 117.456 130.189 123.257 125.06 125.027L126.365 128.808C132.859 126.567 139.175 119.753 143.403 112.069C147.639 104.369 150.143 95.1332 148.279 87.6576L144.398 88.625ZM125.062 125.026C119.535 126.928 111.736 127.753 105.171 128.083C101.918 128.246 99.021 128.286 96.9384 128.285C95.8977 128.285 95.0618 128.274 94.4879 128.264C94.2011 128.259 93.9798 128.254 93.8314 128.25C93.7571 128.248 93.7011 128.246 93.6642 128.245C93.6458 128.245 93.6321 128.244 93.6233 128.244C93.6189 128.244 93.6158 128.244 93.6138 128.244C93.6129 128.244 93.6122 128.244 93.6118 128.244C93.6117 128.244 93.6116 128.244 93.6116 128.244C93.6116 128.244 93.6117 128.244 93.546 130.242C93.4803 132.241 93.4806 132.241 93.481 132.241C93.4812 132.241 93.4817 132.241 93.4821 132.241C93.483 132.241 93.4842 132.242 93.4858 132.242C93.4888 132.242 93.4931 132.242 93.4986 132.242C93.5097 132.242 93.5257 132.243 93.5464 132.243C93.588 132.245 93.6488 132.246 93.7278 132.248C93.886 132.252 94.1175 132.258 94.4151 132.263C95.0101 132.274 95.87 132.285 96.9369 132.285C99.0695 132.286 102.035 132.245 105.371 132.078C111.984 131.745 120.267 130.907 126.364 128.808L125.062 125.026Z" fill="#1D1F31" mask="url(#path-1-inside-1_816_109863)"/>
<path d="M134.96 46.0472L137.001 53.36H124.332H123.333L123.332 54.3596L123.302 128.603L116.019 129.671L115.828 54.3268L115.825 53.3276L114.826 53.3293L97.3511 53.36L96.3528 53.3618V54.36V131.209H89.3323L89.5848 54.5986L89.5881 53.6076L88.5971 53.5954L69.4341 53.3601L68.4218 53.3477V54.36V128.274L61.3243 125.911L61.1217 54.5925L61.1189 53.6147L60.1413 53.5955L49.4054 53.3852L51.4356 45.7759L134.96 46.0472Z" fill="#E7EDFF" stroke="#1D1F31" stroke-width="2"/>
</svg>
