<svg width="994" height="181" viewBox="0 0 994 181" fill="none" xmlns="http://www.w3.org/2000/svg">
<path d="M287.995 173.554C287.995 268.85 210.544 346.108 114.998 346.108C19.4519 346.108 -57.999 268.85 -57.999 173.554C-57.999 78.2574 19.4519 1 114.998 1C210.544 1 287.995 78.2574 287.995 173.554Z" stroke="#E7EDFF" stroke-width="2"/>
<path d="M277.529 173.553C277.529 263.084 204.763 335.668 114.998 335.668C25.2319 335.668 -47.5332 263.084 -47.5332 173.553C-47.5332 84.0221 25.2319 11.4386 114.998 11.4386C204.763 11.4386 277.529 84.0221 277.529 173.553Z" stroke="#E7EDFF" stroke-width="2"/>
<path d="M268.371 173.554C268.371 258.04 199.706 326.534 114.998 326.534C30.2901 326.534 -38.375 258.04 -38.375 173.554C-38.375 89.0679 30.2901 20.574 114.998 20.574C199.706 20.574 268.371 89.0679 268.371 173.554Z" stroke="#E7EDFF" stroke-width="2"/>
<path d="M257.905 173.553C257.905 252.274 193.926 316.094 114.998 316.094C36.0701 316.094 -27.9092 252.274 -27.9092 173.553C-27.9092 94.8326 36.0701 31.0126 114.998 31.0126C193.926 31.0126 257.905 94.8326 257.905 173.553Z" stroke="#E7EDFF" stroke-width="2"/>
<path d="M236.973 173.555C236.973 240.744 182.365 295.217 114.998 295.217C47.6302 295.217 -6.97754 240.744 -6.97754 173.555C-6.97754 106.365 47.6302 51.8926 114.998 51.8926C182.365 51.8926 236.973 106.365 236.973 173.555Z" stroke="#E7EDFF" stroke-width="2"/>
<path d="M227.816 173.554C227.816 235.699 177.308 286.082 114.998 286.082C52.6884 286.082 2.18066 235.699 2.18066 173.554C2.18066 111.409 52.6884 61.0265 114.998 61.0265C177.308 61.0265 227.816 111.409 227.816 173.554Z" stroke="#E7EDFF" stroke-width="2"/>
<path d="M217.349 173.553C217.349 229.933 171.527 275.642 114.997 275.642C58.4674 275.642 12.6455 229.933 12.6455 173.553C12.6455 117.174 58.4674 71.4651 114.997 71.4651C171.527 71.4651 217.349 117.174 217.349 173.553Z" stroke="#E7EDFF" stroke-width="2"/>
<path d="M206.882 173.553C206.882 224.167 165.746 265.202 114.997 265.202C64.2475 265.202 23.1113 224.167 23.1113 173.553C23.1113 122.939 64.2475 81.9037 114.997 81.9037C165.746 81.9037 206.882 122.939 206.882 173.553Z" stroke="#E7EDFF" stroke-width="2"/>
<path d="M197.725 173.554C197.725 219.123 160.689 256.068 114.997 256.068C69.3056 256.068 32.2695 219.123 32.2695 173.554C32.2695 127.985 69.3056 91.0391 114.997 91.0391C160.689 91.0391 197.725 127.985 197.725 173.554Z" stroke="#E7EDFF" stroke-width="2"/>
<path d="M187.259 173.553C187.259 213.357 154.909 245.628 114.997 245.628C75.0857 245.628 42.7354 213.357 42.7354 173.553C42.7354 133.749 75.0857 101.478 114.997 101.478C154.909 101.478 187.259 133.749 187.259 173.553Z" stroke="#E7EDFF" stroke-width="2"/>
<path d="M247.439 173.554C247.439 246.509 188.145 305.655 114.998 305.655C41.8502 305.655 -17.4434 246.509 -17.4434 173.554C-17.4434 100.599 41.8502 41.4525 114.998 41.4525C188.145 41.4525 247.439 100.599 247.439 173.554Z" stroke="#E7EDFF" stroke-width="2"/>
<path d="M653.615 197.446C653.615 296.634 734.228 377.045 833.675 377.045C933.121 377.045 1013.73 296.634 1013.73 197.446C1013.73 98.2593 933.121 17.8478 833.675 17.8478C734.228 17.8478 653.615 98.2593 653.615 197.446Z" stroke="#E7EDFF" stroke-width="2"/>
<path d="M664.508 197.446C664.508 290.634 740.245 366.182 833.677 366.182C927.109 366.182 1002.85 290.634 1002.85 197.446C1002.85 104.258 927.109 28.7103 833.677 28.7103C740.245 28.7103 664.508 104.258 664.508 197.446Z" stroke="#E7EDFF" stroke-width="2"/>
<path d="M674.035 197.447C674.035 285.385 745.506 356.678 833.675 356.678C921.844 356.678 993.314 285.385 993.314 197.447C993.314 109.509 921.844 38.2168 833.675 38.2168C745.506 38.2168 674.035 109.509 674.035 197.447Z" stroke="#E7EDFF" stroke-width="2"/>
<path d="M684.927 197.447C684.927 279.385 751.521 345.814 833.675 345.814C915.829 345.814 982.424 279.385 982.424 197.447C982.424 115.508 915.829 49.0793 833.675 49.0793C751.521 49.0793 684.927 115.508 684.927 197.447Z" stroke="#E7EDFF" stroke-width="2"/>
<path d="M706.71 197.447C706.71 267.387 763.553 324.088 833.677 324.088C903.802 324.088 960.645 267.387 960.645 197.447C960.645 127.507 903.802 70.8058 833.677 70.8058C763.553 70.8058 706.71 127.507 706.71 197.447Z" stroke="#E7EDFF" stroke-width="2"/>
<path d="M716.24 197.447C716.24 262.137 768.816 314.583 833.678 314.583C898.539 314.583 951.115 262.137 951.115 197.447C951.115 132.757 898.539 80.3109 833.678 80.3109C768.816 80.3109 716.24 132.757 716.24 197.447Z" stroke="#E7EDFF" stroke-width="2"/>
<path d="M727.127 197.446C727.127 256.137 774.827 303.719 833.674 303.719C892.52 303.719 940.221 256.137 940.221 197.446C940.221 138.756 892.52 91.1733 833.674 91.1733C774.827 91.1733 727.127 138.756 727.127 197.446Z" stroke="#E7EDFF" stroke-width="2"/>
<path d="M738.02 197.446C738.02 250.137 780.844 292.856 833.676 292.856C886.508 292.856 929.332 250.137 929.332 197.446C929.332 144.755 886.508 102.036 833.676 102.036C780.844 102.036 738.02 144.755 738.02 197.446Z" stroke="#E7EDFF" stroke-width="2"/>
<path d="M747.548 197.446C747.548 244.887 786.106 283.35 833.674 283.35C881.243 283.35 919.801 244.887 919.801 197.446C919.801 150.004 881.243 111.541 833.674 111.541C786.106 111.541 747.548 150.004 747.548 197.446Z" stroke="#E7EDFF" stroke-width="2"/>
<path d="M758.441 197.446C758.441 238.888 792.123 272.488 833.676 272.488C875.23 272.488 908.912 238.888 908.912 197.446C908.912 156.005 875.23 122.405 833.676 122.405C792.123 122.405 758.441 156.005 758.441 197.446Z" stroke="#E7EDFF" stroke-width="2"/>
<path d="M695.816 197.446C695.816 273.385 757.534 334.95 833.673 334.95C909.813 334.95 971.531 273.385 971.531 197.446C971.531 121.507 909.813 59.9419 833.673 59.9419C757.534 59.9419 695.816 121.507 695.816 197.446Z" stroke="#E7EDFF" stroke-width="2"/>
<path d="M634.501 84L149 237.614L741.493 229.788L634.501 84Z" fill="#1D1F31"/>
<rect width="41.9893" height="478.2" transform="matrix(-0.667423 0.744678 -0.746276 -0.665637 265.895 324.308)" fill="#1D1F31"/>
<path d="M352.219 198.601C352.219 253.774 310.179 298.501 258.32 298.501C206.462 298.501 164.422 253.774 164.422 198.601C164.422 143.428 206.462 98.701 258.32 98.701C310.179 98.701 352.219 143.428 352.219 198.601ZM246.209 198.601C246.209 205.717 251.632 211.486 258.32 211.486C265.009 211.486 270.432 205.717 270.432 198.601C270.432 191.485 265.009 185.716 258.32 185.716C251.632 185.716 246.209 191.485 246.209 198.601Z" fill="white"/>
<path d="M352.219 198.601C352.219 253.774 310.179 298.501 258.32 298.501C206.462 298.501 164.422 253.774 164.422 198.601C164.422 143.428 206.462 98.701 258.32 98.701C310.179 98.701 352.219 143.428 352.219 198.601ZM223.535 198.601C223.535 219.04 239.109 235.61 258.32 235.61C277.532 235.61 293.106 219.04 293.106 198.601C293.106 178.162 277.532 161.592 258.32 161.592C239.109 161.592 223.535 178.162 223.535 198.601Z" fill="#BC090D"/>
</svg>
