<svg width="344" height="237" viewBox="0 0 344 237" fill="none" xmlns="http://www.w3.org/2000/svg">
<mask id="mask0_475_56944" style="mask-type:alpha" maskUnits="userSpaceOnUse" x="0" y="0" width="344" height="237">
<rect x="0.998047" y="0.928711" width="342.425" height="236" fill="#C4C4C4"/>
</mask>
<g mask="url(#mask0_475_56944)">
<path d="M171.171 42.6127C171.171 126.09 103.681 193.758 20.4331 193.758C-62.8146 193.758 -130.305 126.09 -130.305 42.6127C-130.305 -40.8648 -62.8146 -108.532 20.4331 -108.532C103.681 -108.532 171.171 -40.8648 171.171 42.6127Z" stroke="#1D1F31" stroke-width="2"/>
<path d="M162.043 42.6126C162.043 121.036 98.6389 184.606 20.432 184.606C-57.7749 184.606 -121.179 121.036 -121.179 42.6126C-121.179 -35.8108 -57.7749 -99.3809 20.432 -99.3809C98.6389 -99.3809 162.043 -35.8108 162.043 42.6126Z" stroke="#1D1F31" stroke-width="2"/>
<path d="M154.059 42.6128C154.059 116.614 94.2303 176.599 20.4341 176.599C-53.3622 176.599 -113.19 116.614 -113.19 42.6128C-113.19 -31.3881 -53.3622 -91.373 20.4341 -91.373C94.2303 -91.373 154.059 -31.3881 154.059 42.6128Z" stroke="#1D1F31" stroke-width="2"/>
<path d="M144.93 42.6125C144.93 111.559 89.1884 167.447 20.433 167.447C-48.3225 167.447 -104.064 111.559 -104.064 42.6125C-104.064 -26.334 -48.3225 -82.2217 20.433 -82.2217C89.1884 -82.2217 144.93 -26.334 144.93 42.6125Z" stroke="#1D1F31" stroke-width="2"/>
<path d="M126.676 42.6131C126.676 101.451 79.1067 149.144 20.4327 149.144C-38.2413 149.144 -85.8105 101.451 -85.8105 42.6131C-85.8105 -16.2249 -38.2413 -63.918 20.4327 -63.918C79.1067 -63.918 126.676 -16.2249 126.676 42.6131Z" stroke="#1D1F31" stroke-width="2"/>
<path d="M118.69 42.6123C118.69 97.0278 74.6962 141.136 20.4328 141.136C-33.8305 141.136 -77.8242 97.0278 -77.8242 42.6123C-77.8242 -11.8032 -33.8305 -55.9111 20.4328 -55.9111C74.6962 -55.9111 118.69 -11.8032 118.69 42.6123Z" stroke="#1D1F31" stroke-width="2"/>
<path d="M109.563 42.6121C109.563 91.9733 69.6558 131.984 20.4332 131.984C-28.7894 131.984 -68.6968 91.9733 -68.6968 42.6121C-68.6968 -6.74916 -28.7894 -46.7598 20.4332 -46.7598C69.6558 -46.7598 109.563 -6.74916 109.563 42.6121Z" stroke="#1D1F31" stroke-width="2"/>
<path d="M100.435 42.6128C100.435 86.9198 64.6139 122.833 20.4321 122.833C-23.7498 122.833 -59.5708 86.9198 -59.5708 42.6128C-59.5708 -1.69412 -23.7498 -37.6074 20.4321 -37.6074C64.6139 -37.6074 100.435 -1.69412 100.435 42.6128Z" stroke="#1D1F31" stroke-width="2"/>
<path d="M92.4489 42.6121C92.4489 82.4965 60.2034 114.825 20.4322 114.825C-19.339 114.825 -51.5845 82.4965 -51.5845 42.6121C-51.5845 2.72758 -19.339 -29.6006 20.4322 -29.6006C60.2034 -29.6006 92.4489 2.72758 92.4489 42.6121Z" stroke="#1D1F31" stroke-width="2"/>
<path d="M83.3226 42.6118C83.3226 77.442 55.1635 105.673 20.433 105.673C-14.2974 105.673 -42.4565 77.442 -42.4565 42.6118C-42.4565 7.78165 -14.2974 -20.4492 20.433 -20.4492C55.1635 -20.4492 83.3226 7.78165 83.3226 42.6118Z" stroke="#1D1F31" stroke-width="2"/>
<path d="M135.804 42.6123C135.804 106.505 84.1486 158.295 20.4338 158.295C-43.2809 158.295 -94.9365 106.505 -94.9365 42.6123C-94.9365 -21.28 -43.2809 -73.0703 20.4338 -73.0703C84.1486 -73.0703 135.804 -21.28 135.804 42.6123Z" stroke="#1D1F31" stroke-width="2"/>
<path d="M110.743 70.2373C110.743 70.2373 63.8291 168.443 63.8291 169.198L117.254 203.99H181.784L234.177 164.415L189.521 70.2373L170.632 77.9539C157.078 83.4921 141.893 83.3953 128.407 77.7022L110.743 70.2373Z" fill="#1D1F31"/>
<path d="M73.7031 67.9836C73.7031 67.9836 128.454 25.1101 222.356 67.9836L216.321 106.823H190.159C182.519 106.823 176.329 100.616 176.329 92.9552V83.1218C176.329 83.1218 150.419 62.9408 117.719 83.1218V89.8423C117.719 99.22 110.136 106.823 100.784 106.823H79.9897L73.7031 67.9836Z" fill="#BC090D"/>
<path d="M147.982 184.89C172.595 184.89 192.549 164.883 192.549 140.203C192.549 115.523 172.595 95.5156 147.982 95.5156C123.368 95.5156 103.415 115.523 103.415 140.203C103.415 164.883 123.368 184.89 147.982 184.89Z" fill="white"/>
<path d="M147.983 157.813C157.635 157.813 165.459 149.946 165.459 140.241C165.459 130.536 157.635 122.669 147.983 122.669C138.33 122.669 130.506 130.536 130.506 140.241C130.506 149.946 138.33 157.813 147.983 157.813Z" fill="#1D1F31"/>
<path d="M148.01 114.183C152.123 114.183 155.457 110.831 155.457 106.697C155.457 102.562 152.123 99.21 148.01 99.21C143.897 99.21 140.562 102.562 140.562 106.697C140.562 110.831 143.897 114.183 148.01 114.183Z" fill="#1D1F31"/>
<path d="M131.153 119.478C135.266 119.478 138.6 116.126 138.6 111.992C138.6 107.857 135.266 104.505 131.153 104.505C127.04 104.505 123.706 107.857 123.706 111.992C123.706 116.126 127.04 119.478 131.153 119.478Z" fill="#1D1F31"/>
<path d="M119.081 131.59C123.194 131.59 126.529 128.239 126.529 124.104C126.529 119.969 123.194 116.617 119.081 116.617C114.968 116.617 111.634 119.969 111.634 124.104C111.634 128.239 114.968 131.59 119.081 131.59Z" fill="#1D1F31"/>
<path d="M115.562 147.728C119.675 147.728 123.009 144.376 123.009 140.242C123.009 136.107 119.675 132.755 115.562 132.755C111.449 132.755 108.115 136.107 108.115 140.242C108.115 144.376 111.449 147.728 115.562 147.728Z" fill="#1D1F31"/>
<path d="M119.081 163.875C123.194 163.875 126.529 160.523 126.529 156.388C126.529 152.253 123.194 148.901 119.081 148.901C114.968 148.901 111.634 152.253 111.634 156.388C111.634 160.523 114.968 163.875 119.081 163.875Z" fill="#1D1F31"/>
<path d="M130.485 176.821C134.598 176.821 137.932 173.469 137.932 169.334C137.932 165.2 134.598 161.848 130.485 161.848C126.372 161.848 123.038 165.2 123.038 169.334C123.038 173.469 126.372 176.821 130.485 176.821Z" fill="#1D1F31"/>
<path d="M180.372 147.728C184.485 147.728 187.82 144.376 187.82 140.242C187.82 136.107 184.485 132.755 180.372 132.755C176.26 132.755 172.925 136.107 172.925 140.242C172.925 144.376 176.26 147.728 180.372 147.728Z" fill="#1D1F31"/>
<path d="M176.687 163.7C180.8 163.7 184.134 160.348 184.134 156.213C184.134 152.078 180.8 148.727 176.687 148.727C172.574 148.727 169.24 152.078 169.24 156.213C169.24 160.348 172.574 163.7 176.687 163.7Z" fill="#1D1F31"/>
<path d="M165.448 175.977C169.561 175.977 172.895 172.625 172.895 168.491C172.895 164.356 169.561 161.004 165.448 161.004C161.335 161.004 158 164.356 158 168.491C158 172.625 161.335 175.977 165.448 175.977Z" fill="#1D1F31"/>
<path d="M164.442 119.478C168.555 119.478 171.889 116.126 171.889 111.992C171.889 107.857 168.555 104.505 164.442 104.505C160.329 104.505 156.995 107.857 156.995 111.992C156.995 116.126 160.329 119.478 164.442 119.478Z" fill="#1D1F31"/>
<path d="M176.687 131.756C180.8 131.756 184.134 128.405 184.134 124.27C184.134 120.135 180.8 116.783 176.687 116.783C172.574 116.783 169.24 120.135 169.24 124.27C169.24 128.405 172.574 131.756 176.687 131.756Z" fill="#1D1F31"/>
<path d="M148.01 181.273C152.123 181.273 155.457 177.921 155.457 173.786C155.457 169.652 152.123 166.3 148.01 166.3C143.897 166.3 140.562 169.652 140.562 173.786C140.562 177.921 143.897 181.273 148.01 181.273Z" fill="#1D1F31"/>
<path d="M212.683 152.774C212.909 154.915 214.295 156.362 216.063 157.454C217.761 158.504 219.585 159.383 221.382 160.22C225.144 161.95 229.048 163.368 233.051 164.404C237.026 165.425 241.085 166.077 245.173 166.375C247.167 166.517 249.176 166.574 251.184 166.531C253.023 166.488 254.947 166.432 256.715 165.822C258.596 165.169 260.209 163.936 261.043 162.078C261.92 160.135 262.104 157.993 262.33 155.908C262.571 153.696 262.74 151.483 262.811 149.257C262.868 147.186 262.783 145.002 262.033 143.045C261.283 141.073 260.011 139.456 258.511 137.995C257.083 136.606 255.555 135.301 253.971 134.095C250.93 131.755 247.139 129.684 243.179 129.897C241.905 129.968 240.703 130.465 240.081 131.656C239.558 132.649 239.388 133.84 239.26 134.946C239.006 137.003 239.246 139.116 239.741 141.116C240.746 145.087 242.825 148.732 245.003 152.15C247.054 155.355 249.303 158.532 252.146 161.085C255.145 163.794 258.723 165.623 262.67 166.46C264.692 166.886 266.757 167.112 268.808 167.212C269.798 167.268 270.789 167.283 271.779 167.297C272.825 167.311 273.9 167.325 274.933 167.07C277.026 166.559 278.314 164.758 279.332 162.985C280.251 161.368 280.973 159.61 281.454 157.809C283.476 150.334 281.906 142.335 278.356 135.599C276.545 132.152 274.212 129.004 271.651 126.082C270.393 124.65 269.091 123.274 267.733 121.927C266.291 120.508 264.622 118.452 262.429 118.452C260.308 118.452 258.78 120.608 257.875 122.295C256.984 123.997 256.503 125.841 256.319 127.756C255.965 131.514 257.068 135.272 258.936 138.52C260.859 141.867 263.561 144.817 266.404 147.399C269.516 150.235 273.023 152.504 277.125 153.554C279.205 154.079 281.355 154.348 283.49 154.419C284.466 154.447 285.456 154.447 286.432 154.405C287.606 154.348 288.795 154.263 289.855 153.696C291.638 152.731 292.387 150.689 292.953 148.859C293.59 146.817 294.099 144.732 294.537 142.633C295.428 138.308 295.966 133.911 296.433 129.514C296.871 125.416 297.861 120.778 295.372 117.133C294.24 115.488 292.741 114.211 291.128 113.048C289.488 111.857 287.72 110.822 285.867 109.985C284.82 109.503 283.66 108.85 282.472 109.02C281.213 109.191 280.463 110.07 279.869 111.134C278.893 112.85 278.158 114.722 277.705 116.651C276.8 120.466 276.885 124.55 278.059 128.295C279.332 132.322 281.793 135.74 284.367 139.017C286.616 141.896 289.092 144.69 292.147 146.732C293.646 147.725 295.329 148.533 297.083 148.93C299.049 149.384 301.765 149.725 303.038 147.753C303.618 146.86 303.844 145.682 304.17 144.676C304.509 143.612 304.863 142.534 305.202 141.47C305.909 139.3 306.603 137.13 307.31 134.946C308.003 132.805 308.696 130.663 309.375 128.521C310.04 126.465 310.733 124.409 311.27 122.31C312.232 118.551 312.557 114.651 311.525 110.864C311.072 109.205 310.365 107.574 309.361 106.17C308.837 105.446 308.257 104.737 307.593 104.142C306.73 103.362 305.768 102.61 304.566 102.525C302.147 102.369 300.832 104.794 300.153 106.737C299.474 108.708 299.29 110.836 299.163 112.906C298.894 117.175 298.851 121.473 299.148 125.742C299.417 129.585 300.011 133.457 301.511 137.017C302.953 140.449 305.33 144.023 308.852 145.569C310.605 146.335 312.473 146.604 314.34 146.108C316.079 145.64 317.621 144.52 318.526 142.945C318.965 142.165 318.739 141.045 317.918 140.605C317.112 140.18 316.065 140.392 315.584 141.215C315.485 141.385 315.386 141.541 315.287 141.697C315.457 141.428 315.231 141.74 315.146 141.839C315.033 141.952 314.92 142.066 314.792 142.179C314.552 142.392 314.75 142.208 314.806 142.165C314.707 142.236 314.608 142.293 314.509 142.364C314.368 142.449 314.226 142.52 314.085 142.605C314.028 142.647 313.788 142.732 314.113 142.605C314.028 142.633 313.944 142.676 313.845 142.704C313.505 142.818 313.166 142.889 312.812 142.959C312.557 143.002 313.095 142.945 312.84 142.945C312.741 142.945 312.656 142.959 312.557 142.959C312.388 142.959 312.232 142.974 312.062 142.959C311.963 142.959 311.878 142.945 311.779 142.945C311.737 142.945 311.511 142.903 311.723 142.945C311.963 142.988 311.638 142.931 311.596 142.917C311.468 142.889 311.341 142.86 311.2 142.832C311.016 142.789 310.846 142.732 310.662 142.662C310.577 142.633 310.153 142.449 310.407 142.562C310.026 142.378 309.644 142.179 309.29 141.938C309.106 141.825 308.936 141.697 308.767 141.57C308.993 141.74 308.597 141.428 308.54 141.371C308.215 141.087 307.89 140.775 307.593 140.463C307.31 140.165 307.041 139.853 306.786 139.527C306.942 139.726 306.645 139.343 306.603 139.286C306.461 139.088 306.32 138.889 306.192 138.676C305.74 137.996 305.344 137.286 304.99 136.549C304.891 136.35 304.806 136.152 304.721 135.953C304.693 135.882 304.651 135.797 304.622 135.726C304.509 135.471 304.707 135.939 304.608 135.684C304.453 135.272 304.297 134.861 304.156 134.45C303.604 132.847 303.236 131.174 302.953 129.5C302.925 129.302 302.897 129.117 302.868 128.919C302.868 128.876 302.812 128.536 302.84 128.72C302.868 128.904 302.826 128.621 302.826 128.607C302.769 128.153 302.713 127.713 302.67 127.259C302.586 126.394 302.529 125.515 302.472 124.65C302.26 120.65 302.303 116.636 302.571 112.637C302.6 112.183 302.642 111.729 302.684 111.275C302.699 111.063 302.727 110.85 302.755 110.637C302.755 110.609 302.812 110.226 302.784 110.41C302.769 110.538 302.84 110.084 302.84 110.098C302.982 109.205 303.194 108.325 303.505 107.474C303.632 107.12 303.675 106.978 303.929 106.553C303.972 106.482 304.24 106.085 304.057 106.312C304.113 106.226 304.184 106.155 304.255 106.085C304.283 106.042 304.594 105.815 304.424 105.929C304.255 106.042 304.467 105.914 304.495 105.9C304.17 106.028 304.41 105.929 304.481 105.914C303.972 105.999 304.453 105.914 304.438 105.929C304.354 106.014 304.127 105.73 304.438 105.957C304.212 105.787 304.594 106.07 304.665 106.127C304.735 106.17 304.792 106.226 304.863 106.269C304.566 106.056 304.948 106.34 304.976 106.368C305.231 106.595 305.485 106.822 305.711 107.077C305.839 107.219 305.98 107.361 306.107 107.503C306.178 107.588 306.504 107.999 306.291 107.73C306.73 108.325 307.112 108.949 307.437 109.602C307.522 109.772 307.607 109.956 307.692 110.141C307.55 109.843 307.734 110.254 307.777 110.354C307.918 110.722 308.045 111.105 308.158 111.488C308.385 112.24 308.54 113.006 308.654 113.786C308.597 113.46 308.668 113.899 308.682 114.013C308.696 114.197 308.71 114.367 308.724 114.552C308.753 114.963 308.767 115.36 308.781 115.771C308.781 116.566 308.738 117.36 308.654 118.14C308.583 118.75 308.356 119.913 308.158 120.735C307.932 121.714 307.649 122.678 307.366 123.643C306.164 127.571 304.849 131.471 303.59 135.386C302.953 137.357 302.317 139.343 301.68 141.314C301.355 142.321 301.03 143.328 300.704 144.335C300.563 144.775 300.421 145.214 300.28 145.654C300.252 145.753 300.223 145.853 300.181 145.952C300.266 145.782 300.252 145.881 300.153 145.952C300.209 145.909 300.308 145.81 300.351 145.782C300.138 145.966 300.351 145.782 300.351 145.796C300.351 145.824 300.082 145.853 300.365 145.824C300.266 145.839 300.167 145.838 300.068 145.838C299.884 145.838 299.7 145.838 299.53 145.838C299.346 145.838 299.163 145.824 298.993 145.81C298.894 145.796 298.795 145.796 298.682 145.782C298.936 145.81 298.752 145.796 298.611 145.768C297.833 145.64 297.083 145.413 296.348 145.129C296.334 145.129 296.093 145.03 296.263 145.101C296.447 145.172 296.164 145.058 296.121 145.03C295.952 144.959 295.796 144.874 295.641 144.803C295.273 144.619 294.905 144.42 294.551 144.207C294.212 144.009 293.887 143.796 293.561 143.569C293.406 143.47 293.264 143.357 293.109 143.243C293.024 143.186 292.939 143.115 292.854 143.045C292.995 143.158 292.911 143.087 292.826 143.016C291.524 141.952 290.322 140.761 289.205 139.499C288.667 138.889 288.13 138.265 287.621 137.627C287.366 137.315 287.111 136.989 286.857 136.677C286.729 136.506 286.602 136.35 286.461 136.18C286.249 135.911 286.348 136.038 286.39 136.095C286.291 135.982 286.206 135.854 286.121 135.74C283.915 132.833 281.963 129.826 281.086 126.422C280.987 126.011 280.888 125.6 280.803 125.174C280.76 124.976 280.732 124.791 280.704 124.593C280.704 124.55 280.647 124.21 280.676 124.394C280.704 124.579 280.647 124.097 280.647 124.111C280.548 123.26 280.506 122.409 280.52 121.572C280.52 121.147 280.548 120.721 280.577 120.296C280.591 120.097 280.605 119.898 280.633 119.7C280.647 119.586 280.661 119.473 280.676 119.36C280.718 119.048 280.661 119.416 280.69 119.218C280.817 118.381 281.001 117.544 281.227 116.736C281.34 116.324 281.468 115.927 281.609 115.53C281.68 115.346 281.736 115.161 281.807 114.977C281.85 114.878 281.892 114.764 281.934 114.665C282.005 114.509 281.878 114.793 281.991 114.523C282.331 113.772 282.698 113.02 283.151 112.325C283.377 111.985 283.165 112.325 283.151 112.325C283.08 112.282 283.561 112.126 283.137 112.325C283.038 112.367 282.981 112.396 282.882 112.424C282.826 112.438 282.67 112.353 282.84 112.424C283.009 112.509 283.222 112.552 283.391 112.623C283.717 112.75 283.561 112.694 283.49 112.665C283.632 112.722 283.773 112.793 283.915 112.85C284.778 113.233 285.64 113.672 286.461 114.14C287.267 114.594 288.045 115.091 288.809 115.601C289.176 115.856 289.544 116.126 289.912 116.395C290.068 116.509 289.912 116.395 289.884 116.367C289.969 116.438 290.053 116.495 290.138 116.566C290.322 116.722 290.52 116.878 290.69 117.034C290.973 117.289 291.256 117.544 291.51 117.814C291.666 117.97 291.807 118.126 291.949 118.282C292.005 118.338 292.048 118.409 292.104 118.466C292.104 118.452 292.373 118.806 292.274 118.665C292.161 118.509 292.359 118.778 292.373 118.821C292.416 118.891 292.458 118.948 292.515 119.019C292.628 119.204 292.741 119.374 292.854 119.572C292.939 119.742 293.024 119.898 293.109 120.069C293.222 120.31 293.024 119.842 293.123 120.111C293.165 120.239 293.222 120.366 293.264 120.494C293.392 120.905 293.491 121.331 293.547 121.756C293.519 121.515 293.547 121.827 293.547 121.856C293.561 121.983 293.561 122.097 293.575 122.224C293.59 122.466 293.59 122.721 293.59 122.962C293.59 123.926 293.491 124.891 293.392 125.855C293.194 127.841 292.996 129.812 292.769 131.798C292.331 135.627 291.793 139.4 290.916 143.3C290.492 145.172 290.011 147.058 289.389 148.888C289.36 148.987 289.318 149.086 289.29 149.171C289.275 149.214 289.162 149.512 289.233 149.327C289.304 149.157 289.205 149.384 289.205 149.413C289.162 149.498 289.12 149.597 289.077 149.682C288.993 149.838 288.908 149.994 288.823 150.136C288.766 150.221 288.71 150.306 288.653 150.377C288.554 150.533 288.823 150.221 288.597 150.434C288.526 150.49 288.455 150.575 288.384 150.632C288.356 150.661 288.172 150.788 288.328 150.675C288.455 150.59 288.059 150.831 287.974 150.859C288.201 150.76 287.932 150.859 287.889 150.859C287.776 150.888 287.663 150.916 287.55 150.944C287.507 150.958 287.225 150.987 287.479 150.958C287.366 150.973 287.253 150.987 287.126 150.987C283.307 151.27 279.799 151.015 276.248 149.781C275.4 149.483 274.848 149.257 273.985 148.788C273.179 148.363 272.387 147.881 271.637 147.356C270.845 146.803 270.463 146.505 269.728 145.867C269.021 145.271 268.342 144.633 267.677 143.981C265.117 141.484 263.037 139.158 261.411 136.024C261.213 135.641 261.029 135.258 260.859 134.875C260.845 134.833 260.732 134.577 260.831 134.819C260.803 134.733 260.76 134.663 260.732 134.577C260.633 134.336 260.548 134.095 260.463 133.854C260.194 133.102 259.996 132.337 259.841 131.542C259.798 131.344 259.77 131.131 259.742 130.933C259.798 131.259 259.728 130.791 259.713 130.691C259.671 130.28 259.643 129.855 259.643 129.443C259.643 129.06 259.643 128.663 259.671 128.28C259.685 128.096 259.699 127.912 259.713 127.741C259.728 127.671 259.728 127.585 259.742 127.515C259.798 127.004 259.685 127.855 259.77 127.359C259.897 126.607 260.081 125.855 260.336 125.132C260.364 125.033 260.407 124.947 260.435 124.848C260.449 124.834 260.534 124.593 260.463 124.777C260.392 124.976 260.506 124.678 260.534 124.635C260.576 124.55 260.619 124.451 260.661 124.366C260.831 124.026 261.015 123.699 261.213 123.373C261.326 123.203 261.439 123.033 261.552 122.877C261.581 122.834 261.75 122.622 261.552 122.863C261.595 122.806 261.651 122.749 261.694 122.692C261.807 122.551 261.92 122.423 262.047 122.295C262.118 122.21 262.203 122.139 262.274 122.068C262.415 121.955 262.429 121.927 262.344 121.997C262.274 122.04 262.288 122.04 262.358 121.983C262.387 121.969 262.401 121.955 262.429 121.941C262.288 121.983 262.274 121.997 262.387 121.955C262.585 121.941 262.358 121.927 262.33 121.941C262.443 121.856 262.556 121.969 262.344 121.927C262.443 121.955 262.556 121.983 262.656 122.012C262.387 121.912 262.854 122.139 262.91 122.182C262.938 122.196 263.221 122.409 263.094 122.31C262.995 122.239 263.334 122.508 263.32 122.508C265.937 124.82 268.37 127.444 270.562 130.153C270.817 130.465 271.072 130.777 271.312 131.103C271.524 131.372 271.411 131.23 271.369 131.174C271.439 131.259 271.51 131.358 271.581 131.443C271.722 131.628 271.864 131.812 271.991 131.996C272.514 132.72 273.023 133.457 273.519 134.195C274.48 135.67 275.343 137.201 276.093 138.79C276.277 139.187 276.461 139.57 276.63 139.981C276.715 140.165 276.644 140.009 276.63 139.967C276.673 140.08 276.715 140.18 276.758 140.293C276.857 140.534 276.941 140.775 277.041 141.002C277.338 141.768 277.592 142.548 277.818 143.342C278.059 144.165 278.257 145.002 278.427 145.838C278.497 146.221 278.568 146.604 278.625 146.987C278.639 147.058 278.724 147.668 278.681 147.356C278.71 147.569 278.738 147.796 278.752 148.008C278.936 149.696 278.964 151.412 278.823 153.114C278.794 153.497 278.752 153.88 278.71 154.249C278.752 153.908 278.667 154.532 278.653 154.603C278.625 154.816 278.582 155.029 278.54 155.242C278.384 156.036 278.2 156.83 277.96 157.596C277.847 157.979 277.719 158.362 277.578 158.745C277.507 158.915 277.451 159.099 277.38 159.269C277.253 159.581 277.338 159.383 277.366 159.312C277.309 159.44 277.253 159.553 277.21 159.681C276.871 160.447 276.475 161.184 276.036 161.893C275.838 162.219 275.626 162.531 275.414 162.843C275.569 162.617 275.216 163.07 275.173 163.127C275.032 163.283 274.876 163.439 274.721 163.567C274.947 163.382 274.48 163.694 274.41 163.737C274.438 163.723 274.608 163.666 274.424 163.737C274.311 163.78 274.212 163.808 274.098 163.836C274.028 163.85 273.504 163.95 273.787 163.921C273.533 163.95 273.264 163.964 273.009 163.964C271.199 164.006 269.36 163.936 267.55 163.808C267.125 163.78 266.715 163.737 266.291 163.694C266.05 163.666 265.81 163.638 265.583 163.609C265.654 163.624 265.852 163.652 265.499 163.595C265.385 163.581 265.258 163.567 265.145 163.538C264.24 163.397 263.334 163.212 262.443 162.985C261.552 162.758 260.675 162.475 259.827 162.134C259.827 162.134 259.558 162.021 259.699 162.092C259.855 162.163 259.515 162.021 259.487 162.007C259.303 161.922 259.105 161.837 258.921 161.737C258.511 161.539 258.101 161.326 257.705 161.085C257.351 160.872 256.998 160.659 256.658 160.432C256.503 160.319 256.347 160.22 256.191 160.106C256.107 160.035 256.008 159.979 255.923 159.908C255.894 159.879 255.555 159.638 255.696 159.737C255.824 159.837 255.612 159.667 255.612 159.667C255.527 159.596 255.442 159.525 255.357 159.454C255.187 159.312 255.017 159.17 254.848 159.028C254.537 158.759 254.225 158.475 253.928 158.192C253.306 157.596 252.712 156.958 252.146 156.319C251.892 156.022 251.637 155.724 251.382 155.412C251.241 155.242 251.099 155.057 250.958 154.887C250.887 154.802 250.817 154.717 250.746 154.618C250.859 154.759 250.76 154.632 250.703 154.561C249.657 153.157 248.667 151.71 247.733 150.221C246.743 148.661 245.795 147.072 244.961 145.427C244.763 145.044 244.579 144.647 244.395 144.264C244.296 144.037 244.197 143.81 244.098 143.583C244.027 143.399 244.07 143.527 244.084 143.569C244.027 143.427 243.971 143.286 243.914 143.144C243.575 142.264 243.263 141.371 243.037 140.463C242.938 140.052 242.839 139.655 242.754 139.244C242.712 139.017 242.669 138.776 242.627 138.534C242.627 138.492 242.584 138.194 242.613 138.464C242.599 138.35 242.584 138.222 242.57 138.109C242.485 137.201 242.471 136.279 242.57 135.372C242.584 135.287 242.584 135.202 242.599 135.102C242.57 135.358 242.599 135.06 242.613 135.031C242.655 134.79 242.698 134.563 242.74 134.322C242.782 134.124 242.839 133.911 242.896 133.712C242.924 133.641 242.938 133.556 242.966 133.485C243.023 133.315 243.037 133.287 242.995 133.386C242.952 133.485 242.966 133.471 243.051 133.301C243.023 133.315 242.938 133.4 242.91 133.429C242.754 133.571 243.136 133.315 242.938 133.4C242.782 133.471 243.419 133.358 243.051 133.372C243.49 133.344 243.942 133.358 244.381 133.4C244.494 133.415 244.607 133.429 244.706 133.429C244.678 133.429 244.466 133.386 244.664 133.429C244.876 133.471 245.102 133.5 245.314 133.542C245.725 133.627 246.121 133.741 246.517 133.854C246.729 133.925 246.941 133.996 247.153 134.067C247.252 134.109 247.365 134.152 247.464 134.18C247.464 134.18 247.719 134.294 247.577 134.223C247.408 134.152 247.719 134.294 247.761 134.308C247.832 134.336 247.917 134.379 247.988 134.421C248.214 134.535 248.44 134.648 248.667 134.762C249.459 135.173 250.208 135.655 250.944 136.152C251.283 136.379 251.609 136.62 251.934 136.875C252.203 137.074 252.061 136.974 252.005 136.932C252.104 137.003 252.189 137.074 252.273 137.145C252.457 137.286 252.641 137.442 252.825 137.584C254.169 138.69 255.513 139.853 256.729 141.13C257.026 141.442 257.309 141.754 257.578 142.094C257.606 142.123 257.776 142.35 257.62 142.151C257.677 142.222 257.719 142.293 257.776 142.364C257.917 142.576 258.059 142.789 258.2 143.002C258.299 143.172 258.398 143.342 258.497 143.527C258.525 143.583 258.737 144.009 258.653 143.839C258.837 144.278 258.978 144.746 259.091 145.214C259.148 145.456 259.19 145.682 259.233 145.924C259.247 146.037 259.275 146.165 259.289 146.278C259.289 146.236 259.261 146.08 259.289 146.278C259.346 146.76 259.374 147.257 259.388 147.739C259.416 148.703 259.374 149.668 259.332 150.618C259.233 152.66 259.049 154.717 258.808 156.745C258.78 156.972 258.752 157.213 258.723 157.44C258.709 157.568 258.695 157.681 258.681 157.809C258.681 157.78 258.723 157.568 258.681 157.766C258.61 158.206 258.539 158.645 258.455 159.085C258.37 159.482 258.257 159.893 258.115 160.276C258.073 160.376 258.044 160.475 258.002 160.574C258.016 160.546 258.101 160.362 258.016 160.532C257.903 160.744 257.804 160.957 257.663 161.17C257.606 161.255 257.549 161.354 257.479 161.439C257.493 161.411 257.62 161.269 257.493 161.411C257.38 161.539 257.252 161.666 257.125 161.794C257.054 161.865 256.984 161.922 256.899 161.993C256.955 161.95 257.153 161.822 256.885 161.993C256.715 162.106 256.559 162.205 256.39 162.305C256.319 162.347 255.795 162.588 256.121 162.446C255.965 162.517 255.795 162.574 255.626 162.631C255.244 162.758 254.848 162.858 254.452 162.929C254.282 162.957 254.098 162.985 253.928 163.014C254.296 162.957 253.688 163.042 253.617 163.042C253.207 163.085 252.811 163.113 252.401 163.127C251.495 163.17 250.604 163.184 249.699 163.184C247.846 163.184 245.993 163.099 244.154 162.929C243.221 162.843 242.287 162.744 241.354 162.617C241.608 162.645 241.057 162.574 241 162.56C240.788 162.531 240.576 162.503 240.364 162.461C239.883 162.39 239.402 162.305 238.921 162.219C237.068 161.893 235.229 161.482 233.405 161C231.637 160.532 229.897 159.993 228.171 159.369C226.332 158.716 224.819 158.092 223.15 157.341C221.537 156.603 219.953 155.795 218.411 154.93C218.072 154.745 217.747 154.547 217.421 154.334C217.28 154.235 217.124 154.135 216.983 154.036C217.252 154.235 216.799 153.88 216.757 153.823C216.629 153.71 216.53 153.568 216.403 153.455C216.219 153.299 216.53 153.667 216.403 153.455C216.36 153.398 216.318 153.341 216.29 153.27C216.233 153.185 216.191 153.1 216.148 153.029C216.092 152.93 216.092 152.774 216.148 153.043C216.12 152.944 216.021 152.391 216.063 152.788C215.979 151.909 215.342 151.044 214.366 151.086C213.532 151.114 212.584 151.824 212.683 152.774Z" fill="#1D1F31"/>
<path d="M150.75 174.099H148.541V176.577H147.657V174.099H145.449V173.285H147.657V170.891H148.541V173.285H150.75V174.099Z" fill="#FAFAF7"/>
<path d="M130.211 173.27H128.683L131.692 166.518H127.561V165.285H133.304V166.255L130.211 173.27Z" fill="#FAFAF7"/>
<path d="M120.121 159.709C119.32 160.185 118.516 160.319 117.709 160.111L117.729 158.875C118.348 159.046 118.934 158.967 119.489 158.638C120.072 158.292 120.387 157.808 120.436 157.186C120.488 156.553 120.331 155.927 119.966 155.309L119.845 155.103C119.817 155.462 119.694 155.841 119.475 156.24C119.253 156.631 118.954 156.939 118.577 157.162C117.926 157.548 117.263 157.677 116.586 157.55C115.917 157.419 115.376 157.003 114.962 156.302C114.577 155.649 114.488 154.965 114.694 154.249C114.904 153.523 115.382 152.938 116.128 152.495C116.772 152.113 117.409 151.962 118.039 152.043C118.672 152.112 119.235 152.353 119.728 152.766C120.217 153.171 120.658 153.707 121.051 154.373C121.659 155.403 121.896 156.408 121.762 157.387C121.627 158.366 121.08 159.14 120.121 159.709ZM118.282 155.933C118.576 155.758 118.814 155.519 118.996 155.216C119.179 154.914 119.282 154.588 119.308 154.239C119.018 153.827 118.651 153.534 118.207 153.362C117.77 153.185 117.309 153.241 116.822 153.53C116.404 153.778 116.145 154.098 116.044 154.492C115.944 154.885 115.982 155.233 116.161 155.535C116.396 155.934 116.71 156.16 117.102 156.215C117.491 156.262 117.884 156.168 118.282 155.933Z" fill="#FAFAF7"/>
<path d="M112.218 143.379C111.707 142.934 111.331 142.449 111.091 141.923C110.857 141.402 110.757 140.903 110.791 140.425L111.961 140.223C111.961 140.614 112.053 141.006 112.239 141.4C112.425 141.794 112.677 142.13 112.995 142.407C113.386 142.747 113.763 142.933 114.126 142.964C114.495 142.989 114.802 142.859 115.047 142.576C115.537 142.01 115.338 141.339 114.448 140.565C114.046 140.214 113.812 140.016 113.746 139.97L114.568 139.021C114.635 139.089 114.864 139.294 115.254 139.634C115.627 139.958 115.982 140.151 116.319 140.212C116.662 140.278 116.949 140.179 117.178 139.913C117.413 139.642 117.479 139.335 117.376 138.991C117.278 138.642 117.051 138.313 116.697 138.004C116.108 137.492 115.398 137.265 114.567 137.323L114.597 136.193C115.68 136.025 116.684 136.345 117.61 137.15C118.265 137.721 118.663 138.326 118.804 138.967C118.95 139.601 118.807 140.169 118.374 140.669C118.05 141.042 117.65 141.238 117.171 141.255C116.704 141.271 116.27 141.157 115.869 140.914C116.186 141.242 116.379 141.664 116.449 142.18C116.519 142.695 116.369 143.167 115.999 143.595C115.55 144.113 114.978 144.355 114.281 144.319C113.591 144.289 112.903 143.975 112.218 143.379Z" fill="#FAFAF7"/>
<path d="M122.254 127.426H116.488V126.324C118.151 125.063 119.282 124.13 119.878 123.523C120.483 122.909 120.786 122.33 120.786 121.787C120.786 121.396 120.643 121.097 120.356 120.889C120.077 120.674 119.739 120.566 119.341 120.566C118.466 120.566 117.749 120.885 117.192 121.524L116.38 120.602C116.723 120.187 117.152 119.872 117.67 119.656C118.195 119.433 118.744 119.321 119.317 119.321C120.129 119.321 120.814 119.541 121.371 119.98C121.928 120.419 122.207 121.021 122.207 121.787C122.207 122.474 121.92 123.156 121.347 123.834C120.774 124.513 119.898 125.299 118.72 126.193H122.254V127.426Z" fill="#FAFAF7"/>
<path d="M130.57 115.237C129.893 115.237 129.292 115.118 128.767 114.878C128.25 114.639 127.848 114.327 127.561 113.944L128.313 113.023C128.568 113.318 128.894 113.553 129.292 113.729C129.69 113.904 130.1 113.992 130.522 113.992C131.039 113.992 131.445 113.885 131.74 113.669C132.034 113.446 132.181 113.146 132.181 112.771C132.181 112.021 131.592 111.646 130.414 111.646C129.881 111.646 129.575 111.65 129.495 111.658V110.401C129.591 110.409 129.897 110.413 130.414 110.413C130.908 110.413 131.302 110.325 131.596 110.15C131.899 109.974 132.05 109.711 132.05 109.359C132.05 109 131.899 108.725 131.596 108.534C131.294 108.334 130.908 108.234 130.438 108.234C129.658 108.234 128.974 108.53 128.385 109.12L127.668 108.246C128.377 107.408 129.344 106.989 130.57 106.989C131.437 106.989 132.134 107.185 132.659 107.576C133.184 107.959 133.447 108.482 133.447 109.144C133.447 109.639 133.272 110.05 132.922 110.377C132.579 110.696 132.177 110.896 131.716 110.976C132.169 111.015 132.591 111.207 132.981 111.55C133.371 111.893 133.566 112.348 133.566 112.915C133.566 113.601 133.292 114.16 132.743 114.591C132.201 115.022 131.477 115.237 130.57 115.237Z" fill="#FAFAF7"/>
<path d="M150.866 108.586L149.71 109.373L148.697 107.878L145.557 110.018L144.926 109.087L144.8 103.066L146.39 101.982L149.161 106.071L150.04 105.473L150.731 106.492L149.852 107.091L150.866 108.586ZM148.006 106.859L145.939 103.809L146.001 108.224L148.006 106.859Z" fill="#FAFAF7"/>
<path d="M162.656 114.58C162.055 114.268 161.576 113.885 161.219 113.431C160.869 112.98 160.655 112.518 160.576 112.046L161.666 111.574C161.757 111.953 161.939 112.313 162.212 112.652C162.485 112.991 162.809 113.258 163.184 113.452C163.644 113.691 164.053 113.782 164.414 113.726C164.778 113.663 165.046 113.465 165.217 113.132C165.561 112.466 165.21 111.861 164.164 111.319C163.69 111.073 163.416 110.935 163.342 110.906L163.917 109.789C163.999 109.841 164.269 109.985 164.728 110.224C165.167 110.451 165.557 110.554 165.899 110.534C166.248 110.517 166.503 110.353 166.664 110.041C166.829 109.722 166.82 109.408 166.639 109.099C166.462 108.782 166.165 108.516 165.748 108.299C165.055 107.94 164.312 107.887 163.518 108.14L163.282 107.034C164.295 106.616 165.346 106.689 166.435 107.254C167.206 107.654 167.735 108.148 168.022 108.737C168.313 109.32 168.307 109.905 168.003 110.493C167.777 110.933 167.433 111.217 166.972 111.347C166.522 111.472 166.073 111.464 165.627 111.323C166.011 111.567 166.298 111.932 166.487 112.416C166.677 112.901 166.641 113.394 166.382 113.898C166.067 114.507 165.567 114.877 164.882 115.007C164.204 115.14 163.462 114.998 162.656 114.58Z" fill="#FAFAF7"/>
<path d="M177.528 127.569C176.851 127.569 176.25 127.45 175.725 127.21C175.208 126.971 174.806 126.659 174.519 126.276L175.271 125.355C175.526 125.65 175.852 125.885 176.25 126.061C176.648 126.236 177.058 126.324 177.48 126.324C177.997 126.324 178.403 126.217 178.698 126.001C178.992 125.778 179.139 125.478 179.139 125.103C179.139 124.353 178.55 123.978 177.372 123.978C176.839 123.978 176.533 123.982 176.453 123.99V122.733C176.549 122.741 176.855 122.745 177.372 122.745C177.866 122.745 178.26 122.657 178.554 122.482C178.857 122.306 179.008 122.043 179.008 121.692C179.008 121.332 178.857 121.057 178.554 120.866C178.252 120.666 177.866 120.566 177.396 120.566C176.616 120.566 175.932 120.862 175.343 121.452L174.626 120.578C175.335 119.74 176.302 119.321 177.528 119.321C178.395 119.321 179.092 119.517 179.617 119.908C180.142 120.291 180.405 120.814 180.405 121.476C180.405 121.971 180.23 122.382 179.88 122.709C179.537 123.028 179.135 123.228 178.674 123.308C179.127 123.347 179.549 123.539 179.939 123.882C180.329 124.225 180.524 124.68 180.524 125.247C180.524 125.933 180.25 126.492 179.701 126.923C179.159 127.354 178.435 127.569 177.528 127.569Z" fill="#FAFAF7"/>
<path d="M180.129 159.145C179.606 159.574 179.065 159.863 178.507 160.011C177.955 160.154 177.448 160.168 176.984 160.054L176.984 158.863C177.368 158.93 177.769 158.905 178.188 158.788C178.607 158.671 178.98 158.479 179.306 158.211C179.707 157.883 179.953 157.542 180.045 157.188C180.132 156.828 180.057 156.503 179.82 156.213C179.346 155.632 178.654 155.716 177.742 156.463C177.329 156.802 177.094 156.999 177.038 157.056L176.244 156.083C176.323 156.029 176.563 155.837 176.963 155.509C177.345 155.196 177.595 154.878 177.712 154.555C177.835 154.227 177.786 153.927 177.564 153.655C177.337 153.377 177.047 153.26 176.691 153.304C176.331 153.341 175.97 153.509 175.606 153.807C175.002 154.302 174.659 154.965 174.576 155.796L173.47 155.575C173.489 154.476 173.973 153.538 174.922 152.76C175.593 152.209 176.256 151.919 176.909 151.888C177.558 151.851 178.091 152.089 178.509 152.602C178.822 152.985 178.946 153.414 178.881 153.89C178.818 154.354 178.633 154.764 178.326 155.118C178.702 154.861 179.15 154.742 179.668 154.76C180.187 154.778 180.625 155.006 180.983 155.445C181.416 155.976 181.556 156.583 181.403 157.265C181.256 157.942 180.832 158.569 180.129 159.145Z" fill="#FAFAF7"/>
<path d="M184.524 142.25L179.377 144.856L178.882 143.873C179.8 141.996 180.389 140.651 180.649 139.84C180.913 139.018 180.922 138.365 180.678 137.881C180.502 137.532 180.24 137.329 179.891 137.273C179.545 137.207 179.195 137.264 178.84 137.444C178.058 137.84 177.562 138.448 177.352 139.27L176.213 138.814C176.332 138.289 176.574 137.813 176.939 137.387C177.307 136.95 177.747 136.602 178.259 136.343C178.983 135.976 179.693 135.863 180.388 136.003C181.082 136.143 181.602 136.555 181.946 137.238C182.255 137.851 182.306 138.59 182.1 139.454C181.893 140.319 181.465 141.416 180.815 142.746L183.97 141.149L184.524 142.25Z" fill="#FAFAF7"/>
<path d="M168.094 172.268H162.327V171.167C163.991 169.906 165.121 168.972 165.718 168.366C166.323 167.751 166.625 167.173 166.625 166.63C166.625 166.239 166.482 165.94 166.195 165.732C165.917 165.517 165.579 165.409 165.181 165.409C164.305 165.409 163.589 165.728 163.032 166.367L162.22 165.445C162.562 165.03 162.992 164.715 163.509 164.499C164.034 164.276 164.584 164.164 165.157 164.164C165.969 164.164 166.653 164.384 167.21 164.822C167.767 165.261 168.046 165.864 168.046 166.63C168.046 167.316 167.759 167.999 167.186 168.677C166.613 169.355 165.738 170.142 164.56 171.035H168.094V172.268Z" fill="#FAFAF7"/>
<ellipse rx="118.887" ry="119.017" transform="matrix(0.838591 0.544761 -0.542708 0.839921 399.894 148.659)" fill="#E7EDFF"/>
</g>
</svg>
