<svg width="473" height="241" viewBox="0 0 473 241" fill="none" xmlns="http://www.w3.org/2000/svg">
<mask id="mask0_532_1503" style="mask-type:alpha" maskUnits="userSpaceOnUse" x="0" y="0" width="473" height="241">
<rect width="473" height="241" fill="#C4C4C4"/>
</mask>
<g mask="url(#mask0_532_1503)">
<path d="M-1.99954 33.5005L266 197L266 318.5L-294 369.001L-1.99954 33.5005Z" fill="#1D1F31"/>
<path d="M90 3.17709C90 50.7714 53.7351 89.3542 9 89.3542C-35.7351 89.3542 -72 50.7714 -72 3.17709C-72 -44.4172 -35.7351 -83 9 -83C53.7351 -83 90 -44.4172 90 3.17709ZM-21.007 3.17709C-21.007 20.8087 -7.5724 35.1019 9 35.1019C25.5724 35.1019 39.007 20.8087 39.007 3.17709C39.007 -14.4545 25.5724 -28.7478 9 -28.7478C-7.5724 -28.7478 -21.007 -14.4545 -21.007 3.17709Z" fill="#BC090D"/>
<path d="M274.875 311.618C274.875 393.705 208.858 460.236 127.438 460.236C46.0175 460.236 -20 393.705 -20 311.618C-20 229.531 46.0175 163 127.438 163C208.858 163 274.875 229.531 274.875 311.618Z" stroke="white" stroke-width="2"/>
<path d="M265.947 311.617C265.947 388.734 203.927 451.236 127.438 451.236C50.9487 451.236 -11.0713 388.734 -11.0713 311.617C-11.0713 234.501 50.9487 171.999 127.438 171.999C203.927 171.999 265.947 234.501 265.947 311.617Z" stroke="white" stroke-width="2"/>
<path d="M258.134 311.618C258.134 384.385 199.611 443.362 127.437 443.362C55.263 443.362 -3.25928 384.385 -3.25928 311.618C-3.25928 238.85 55.263 179.874 127.437 179.874C199.611 179.874 258.134 238.85 258.134 311.618Z" stroke="white" stroke-width="2"/>
<path d="M249.205 311.617C249.205 379.415 194.68 434.362 127.437 434.362C60.1942 434.362 5.66943 379.415 5.66943 311.617C5.66943 243.82 60.1942 188.873 127.437 188.873C194.68 188.873 249.205 243.82 249.205 311.617Z" stroke="white" stroke-width="2"/>
<path d="M231.348 311.619C231.348 369.476 184.818 416.364 127.437 416.364C70.0562 416.364 23.5264 369.476 23.5264 311.619C23.5264 253.763 70.0562 206.874 127.437 206.874C184.818 206.874 231.348 253.763 231.348 311.619Z" stroke="white" stroke-width="2"/>
<path d="M223.536 311.618C223.536 365.126 180.504 408.489 127.438 408.489C74.3714 408.489 31.3394 365.126 31.3394 311.618C31.3394 258.111 74.3714 214.748 127.438 214.748C180.504 214.748 223.536 258.111 223.536 311.618Z" stroke="white" stroke-width="2"/>
<path d="M214.607 311.618C214.607 360.155 175.573 399.489 127.438 399.489C79.3027 399.489 40.2681 360.155 40.2681 311.618C40.2681 263.081 79.3027 223.747 127.438 223.747C175.573 223.747 214.607 263.081 214.607 311.618Z" stroke="white" stroke-width="2"/>
<path d="M205.677 311.617C205.677 355.184 170.64 390.489 127.436 390.489C84.2325 390.489 49.1953 355.184 49.1953 311.617C49.1953 268.05 84.2325 232.746 127.436 232.746C170.64 232.746 205.677 268.05 205.677 311.617Z" stroke="white" stroke-width="2"/>
<path d="M197.866 311.618C197.866 350.836 166.327 382.614 127.437 382.614C88.5482 382.614 57.0088 350.836 57.0088 311.618C57.0088 272.4 88.5482 240.621 127.437 240.621C166.327 240.621 197.866 272.4 197.866 311.618Z" stroke="white" stroke-width="2"/>
<path d="M240.276 311.618C240.276 374.445 189.749 425.362 127.437 425.362C65.125 425.362 14.5977 374.445 14.5977 311.618C14.5977 248.791 65.125 197.873 127.437 197.873C189.749 197.873 240.276 248.791 240.276 311.618Z" stroke="white" stroke-width="2"/>
</g>
</svg>
