<svg width="484" height="173" viewBox="0 0 484 173" fill="none" xmlns="http://www.w3.org/2000/svg">
<path d="M484 0H0V173H484V0Z" fill="white"/>
<path d="M-44.4987 74.5308L434.501 298.03L-123 244.272L-44.4987 74.5308Z" fill="#1D1F31"/>
<path d="M548 76C548 108.585 521.585 135 489 135C456.415 135 430 108.585 430 76C430 43.4152 456.415 17 489 17C521.585 17 548 43.4152 548 76ZM477.324 76C477.324 82.4485 482.552 87.676 489 87.676C495.448 87.676 500.676 82.4485 500.676 76C500.676 69.5515 495.448 64.324 489 64.324C482.552 64.324 477.324 69.5515 477.324 76Z" fill="white"/>
<path d="M548 76C548 108.585 521.585 135 489 135C456.415 135 430 108.585 430 76C430 43.4152 456.415 17 489 17C521.585 17 548 43.4152 548 76ZM467.143 76C467.143 88.0713 476.929 97.8569 489 97.8569C501.071 97.8569 510.857 88.0713 510.857 76C510.857 63.9287 501.071 54.1431 489 54.1431C476.929 54.1431 467.143 63.9287 467.143 76Z" fill="#BC090D"/>
<path d="M443.628 212C443.628 279.376 388.869 334 321.314 334C253.759 334 199 279.376 199 212C199 144.624 253.759 90 321.314 90C388.869 90 443.628 144.624 443.628 212Z" stroke="#E7EDFF" stroke-width="2"/>
<path d="M436.21 211.999C436.21 275.29 384.772 326.601 321.314 326.601C257.856 326.601 206.417 275.29 206.417 211.999C206.417 148.709 257.856 97.3979 321.314 97.3979C384.772 97.3979 436.21 148.709 436.21 211.999Z" stroke="#E7EDFF" stroke-width="2"/>
<path d="M429.721 212C429.721 271.715 381.188 320.128 321.315 320.128C261.441 320.128 212.908 271.715 212.908 212C212.908 152.285 261.441 103.872 321.315 103.872C381.188 103.872 429.721 152.285 429.721 212Z" stroke="#E7EDFF" stroke-width="2"/>
<path d="M422.303 211.999C422.303 267.628 377.091 312.729 321.314 312.729C265.537 312.729 220.325 267.628 220.325 211.999C220.325 156.37 265.537 111.27 321.314 111.27C377.091 111.27 422.303 156.37 422.303 211.999Z" stroke="#E7EDFF" stroke-width="2"/>
<path d="M407.468 212.001C407.468 259.457 368.898 297.933 321.313 297.933C273.729 297.933 235.159 259.457 235.159 212.001C235.159 164.544 273.729 126.068 321.313 126.068C368.898 126.068 407.468 164.544 407.468 212.001Z" stroke="#E7EDFF" stroke-width="2"/>
<path d="M400.977 212C400.977 255.882 365.313 291.459 321.313 291.459C277.314 291.459 241.649 255.882 241.649 212C241.649 168.119 277.314 132.542 321.313 132.542C365.313 132.542 400.977 168.119 400.977 212Z" stroke="#E7EDFF" stroke-width="2"/>
<path d="M393.561 212C393.561 251.795 361.217 284.06 321.314 284.06C281.411 284.06 249.067 251.795 249.067 212C249.067 172.204 281.411 139.939 321.314 139.939C361.217 139.939 393.561 172.204 393.561 212Z" stroke="#E7EDFF" stroke-width="2"/>
<path d="M386.143 211.999C386.143 247.708 357.12 276.661 321.314 276.661C285.507 276.661 256.484 247.708 256.484 211.999C256.484 176.29 285.507 147.337 321.314 147.337C357.12 147.337 386.143 176.29 386.143 211.999Z" stroke="#E7EDFF" stroke-width="2"/>
<path d="M379.653 212C379.653 244.134 353.536 270.188 321.314 270.188C289.092 270.188 262.975 244.134 262.975 212C262.975 179.866 289.092 153.812 321.314 153.812C353.536 153.812 379.653 179.866 379.653 212Z" stroke="#E7EDFF" stroke-width="2"/>
<path d="M372.236 211.999C372.236 240.047 349.44 262.789 321.314 262.789C293.189 262.789 270.393 240.047 270.393 211.999C270.393 183.952 293.189 161.21 321.314 161.21C349.44 161.21 372.236 183.952 372.236 211.999Z" stroke="#E7EDFF" stroke-width="2"/>
<path d="M414.885 212C414.885 263.543 372.994 305.331 321.314 305.331C269.633 305.331 227.742 263.543 227.742 212C227.742 160.457 269.633 118.669 321.314 118.669C372.994 118.669 414.885 160.457 414.885 212Z" stroke="#E7EDFF" stroke-width="2"/>
</svg>
