<svg width="486" height="175" viewBox="0 0 486 175" fill="none" xmlns="http://www.w3.org/2000/svg">
<g clip-path="url(#clip0_617_3606)">
<rect x="1" y="1" width="484" height="173" fill="white"/>
<path d="M643 -9.38194C643 72.6951 576.293 139.236 494 139.236C411.707 139.236 345 72.6951 345 -9.38194C345 -91.459 411.707 -158 494 -158C576.293 -158 643 -91.459 643 -9.38194Z" stroke="#E7EDFF" stroke-width="2"/>
<path d="M633.977 -9.38252C633.977 67.7242 571.31 130.236 494 130.236C416.69 130.236 354.022 67.7242 354.022 -9.38252C354.022 -86.4893 416.69 -149.001 494 -149.001C571.31 -149.001 633.977 -86.4893 633.977 -9.38252Z" stroke="#E7EDFF" stroke-width="2"/>
<path d="M626.083 -9.38162C626.083 63.3761 566.95 122.362 494 122.362C421.051 122.362 361.917 63.3761 361.917 -9.38162C361.917 -82.1393 421.051 -141.125 494 -141.125C566.95 -141.125 626.083 -82.1393 626.083 -9.38162Z" stroke="#E7EDFF" stroke-width="2"/>
<path d="M617.06 -9.38221C617.06 58.4052 561.967 113.362 494 113.362C426.033 113.362 370.94 58.4052 370.94 -9.38221C370.94 -77.1696 426.033 -132.126 494 -132.126C561.967 -132.126 617.06 -77.1696 617.06 -9.38221Z" stroke="#E7EDFF" stroke-width="2"/>
<path d="M599.014 -9.38137C599.014 48.4653 552 95.3637 493.999 95.3637C435.999 95.3637 388.984 48.4653 388.984 -9.38137C388.984 -67.2281 435.999 -114.126 493.999 -114.126C552 -114.126 599.014 -67.2281 599.014 -9.38137Z" stroke="#E7EDFF" stroke-width="2"/>
<path d="M591.12 -9.3815C591.12 44.1162 547.64 87.489 494 87.489C440.359 87.489 396.879 44.1162 396.879 -9.3815C396.879 -62.8792 440.359 -106.252 494 -106.252C547.64 -106.252 591.12 -62.8792 591.12 -9.3815Z" stroke="#E7EDFF" stroke-width="2"/>
<path d="M582.097 -9.38205C582.097 39.1453 542.657 78.4888 494 78.4888C445.342 78.4888 405.902 39.1453 405.902 -9.38205C405.902 -57.9094 445.342 -97.2529 494 -97.2529C542.657 -97.2529 582.097 -57.9094 582.097 -9.38205Z" stroke="#E7EDFF" stroke-width="2"/>
<path d="M573.075 -9.38309C573.075 34.1739 537.674 69.4882 494 69.4882C450.325 69.4882 414.924 34.1739 414.924 -9.38309C414.924 -52.9401 450.325 -88.2544 494 -88.2544C537.674 -88.2544 573.075 -52.9401 573.075 -9.38309Z" stroke="#E7EDFF" stroke-width="2"/>
<path d="M565.18 -9.38223C565.18 29.8257 533.314 61.6144 494 61.6144C454.686 61.6144 422.819 29.8257 422.819 -9.38223C422.819 -48.5902 454.686 -80.3789 494 -80.3789C533.314 -80.3789 565.18 -48.5902 565.18 -9.38223Z" stroke="#E7EDFF" stroke-width="2"/>
<path d="M556.158 -9.3828C556.158 24.8548 528.331 52.6143 494 52.6143C459.668 52.6143 431.842 24.8548 431.842 -9.3828C431.842 -43.6204 459.668 -71.3799 494 -71.3799C528.331 -71.3799 556.158 -43.6204 556.158 -9.3828Z" stroke="#E7EDFF" stroke-width="2"/>
<path d="M608.037 -9.38179C608.037 53.4353 556.983 104.363 494 104.363C431.016 104.363 379.962 53.4353 379.962 -9.38179C379.962 -72.1988 431.016 -123.126 494 -123.126C556.983 -123.126 608.037 -72.1988 608.037 -9.38179Z" stroke="#E7EDFF" stroke-width="2"/>
<path d="M369 166.5C369 199.913 341.913 227 308.5 227C275.087 227 248 199.913 248 166.5C248 133.087 275.087 106 308.5 106C341.913 106 369 133.087 369 166.5ZM296.527 166.5C296.527 173.112 301.888 178.473 308.5 178.473C315.112 178.473 320.473 173.112 320.473 166.5C320.473 159.888 315.112 154.527 308.5 154.527C301.888 154.527 296.527 159.888 296.527 166.5Z" fill="white"/>
<path d="M369 166.5C369 199.913 341.913 227 308.5 227C275.087 227 248 199.913 248 166.5C248 133.087 275.087 106 308.5 106C341.913 106 369 133.087 369 166.5ZM286.087 166.5C286.087 178.878 296.122 188.913 308.5 188.913C320.878 188.913 330.913 178.878 330.913 166.5C330.913 154.122 320.878 144.087 308.5 144.087C296.122 144.087 286.087 154.122 286.087 166.5Z" fill="#1D1F31"/>
<path d="M-140.499 32.5307L338.5 256.03L-219 202.272L-140.499 32.5307Z" fill="#BC090D"/>
</g>
<defs>
<clipPath id="clip0_617_3606">
<rect x="1" y="1" width="484" height="173" fill="white"/>
</clipPath>
</defs>
</svg>
