<svg width="486" height="175" viewBox="0 0 486 175" fill="none" xmlns="http://www.w3.org/2000/svg">
<g clip-path="url(#clip0_617_3570)">
<path d="M205 221.618C205 303.695 138.293 370.236 56 370.236C-26.2928 370.236 -93 303.695 -93 221.618C-93 139.541 -26.2928 73 56 73C138.293 73 205 139.541 205 221.618Z" stroke="#E7EDFF" stroke-width="2"/>
<path d="M195.977 221.617C195.977 298.724 133.31 361.236 55.9999 361.236C-21.3099 361.236 -83.9775 298.724 -83.9775 221.617C-83.9775 144.511 -21.3099 81.999 55.9999 81.999C133.31 81.999 195.977 144.511 195.977 221.617Z" stroke="#E7EDFF" stroke-width="2"/>
<path d="M188.083 221.618C188.083 294.376 128.95 353.362 56.0002 353.362C-16.9495 353.362 -76.0825 294.376 -76.0825 221.618C-76.0825 148.861 -16.9495 89.8745 56.0002 89.8745C128.95 89.8745 188.083 148.861 188.083 221.618Z" stroke="#E7EDFF" stroke-width="2"/>
<path d="M179.06 221.618C179.06 289.405 123.967 344.362 56.0001 344.362C-11.9666 344.362 -67.0601 289.405 -67.0601 221.618C-67.0601 153.83 -11.9666 98.8735 56.0001 98.8735C123.967 98.8735 179.06 153.83 179.06 221.618Z" stroke="#E7EDFF" stroke-width="2"/>
<path d="M161.014 221.619C161.014 279.465 114 326.364 55.9994 326.364C-2.00119 326.364 -49.0156 279.465 -49.0156 221.619C-49.0156 163.772 -2.00119 116.874 55.9994 116.874C114 116.874 161.014 163.772 161.014 221.619Z" stroke="#E7EDFF" stroke-width="2"/>
<path d="M153.12 221.618C153.12 275.116 109.64 318.489 55.9997 318.489C2.35923 318.489 -41.1206 275.116 -41.1206 221.618C-41.1206 168.121 2.35923 124.748 55.9997 124.748C109.64 124.748 153.12 168.121 153.12 221.618Z" stroke="#E7EDFF" stroke-width="2"/>
<path d="M144.097 221.618C144.097 270.145 104.657 309.489 55.9996 309.489C7.34216 309.489 -32.0981 270.145 -32.0981 221.618C-32.0981 173.091 7.34216 133.747 55.9996 133.747C104.657 133.747 144.097 173.091 144.097 221.618Z" stroke="#E7EDFF" stroke-width="2"/>
<path d="M135.075 221.617C135.075 265.174 99.6739 300.488 55.9995 300.488C12.3251 300.488 -23.0757 265.174 -23.0757 221.617C-23.0757 178.06 12.3251 142.746 55.9995 142.746C99.6739 142.746 135.075 178.06 135.075 221.617Z" stroke="#E7EDFF" stroke-width="2"/>
<path d="M127.18 221.618C127.18 260.826 95.3141 292.614 55.9998 292.614C16.6855 292.614 -15.1807 260.826 -15.1807 221.618C-15.1807 182.41 16.6855 150.621 55.9998 150.621C95.3141 150.621 127.18 182.41 127.18 221.618Z" stroke="#E7EDFF" stroke-width="2"/>
<path d="M118.158 221.617C118.158 255.855 90.331 283.614 55.9997 283.614C21.6684 283.614 -6.1582 255.855 -6.1582 221.617C-6.1582 187.38 21.6684 159.62 55.9997 159.62C90.331 159.62 118.158 187.38 118.158 221.617Z" stroke="#E7EDFF" stroke-width="2"/>
<path d="M170.037 221.618C170.037 284.435 118.983 335.363 55.9995 335.363C-6.98412 335.363 -58.0381 284.435 -58.0381 221.618C-58.0381 158.801 -6.98412 107.874 55.9995 107.874C118.983 107.874 170.037 158.801 170.037 221.618Z" stroke="#E7EDFF" stroke-width="2"/>
<path d="M652.136 16.5307L173.136 240.03L730.637 186.272L652.136 16.5307Z" fill="#1D1F31"/>
<path d="M447 2C447 34.5848 420.585 61 388 61C355.415 61 329 34.5848 329 2C329 -30.5848 355.415 -57 388 -57C420.585 -57 447 -30.5848 447 2ZM366.143 2C366.143 14.0713 375.929 23.8569 388 23.8569C400.071 23.8569 409.857 14.0713 409.857 2C409.857 -10.0713 400.071 -19.8569 388 -19.8569C375.929 -19.8569 366.143 -10.0713 366.143 2Z" fill="#BC090D"/>
</g>
</svg>
