<svg width="486" height="175" viewBox="0 0 486 175" fill="none" xmlns="http://www.w3.org/2000/svg">
<g clip-path="url(#clip0_617_3679)">
<rect x="1" y="1" width="484" height="173" fill="white"/>
<path d="M150 194.618C150 276.695 83.2928 343.236 1 343.236C-81.2928 343.236 -148 276.695 -148 194.618C-148 112.541 -81.2928 46 1 46C83.2928 46 150 112.541 150 194.618Z" stroke="#E7EDFF" stroke-width="2"/>
<path d="M140.977 194.617C140.977 271.724 78.3097 334.236 0.999908 334.236C-76.3099 334.236 -138.978 271.724 -138.978 194.617C-138.978 117.511 -76.3099 54.999 0.999908 54.999C78.3097 54.999 140.977 117.511 140.977 194.617Z" stroke="#E7EDFF" stroke-width="2"/>
<path d="M133.083 194.618C133.083 267.376 73.9499 326.362 1.00021 326.362C-71.9495 326.362 -131.083 267.376 -131.083 194.618C-131.083 121.861 -71.9495 62.8745 1.00021 62.8745C73.9499 62.8745 133.083 121.861 133.083 194.618Z" stroke="#E7EDFF" stroke-width="2"/>
<path d="M124.06 194.618C124.06 262.405 68.9668 317.362 1.0001 317.362C-66.9666 317.362 -122.06 262.405 -122.06 194.618C-122.06 126.83 -66.9666 71.8735 1.0001 71.8735C68.9668 71.8735 124.06 126.83 124.06 194.618Z" stroke="#E7EDFF" stroke-width="2"/>
<path d="M106.014 194.619C106.014 252.465 59 299.364 0.99942 299.364C-57.0012 299.364 -104.016 252.465 -104.016 194.619C-104.016 136.772 -57.0012 89.8735 0.99942 89.8735C59 89.8735 106.014 136.772 106.014 194.619Z" stroke="#E7EDFF" stroke-width="2"/>
<path d="M98.12 194.618C98.12 248.116 54.6402 291.489 0.999695 291.489C-52.6408 291.489 -96.1206 248.116 -96.1206 194.618C-96.1206 141.121 -52.6408 97.748 0.999695 97.748C54.6402 97.748 98.12 141.121 98.12 194.618Z" stroke="#E7EDFF" stroke-width="2"/>
<path d="M89.0974 194.618C89.0974 243.145 49.6571 282.489 0.999603 282.489C-47.6578 282.489 -87.0981 243.145 -87.0981 194.618C-87.0981 146.091 -47.6578 106.747 0.999603 106.747C49.6571 106.747 89.0974 146.091 89.0974 194.618Z" stroke="#E7EDFF" stroke-width="2"/>
<path d="M80.0747 194.617C80.0747 238.174 44.6739 273.488 0.999512 273.488C-42.6749 273.488 -78.0757 238.174 -78.0757 194.617C-78.0757 151.06 -42.6749 115.746 0.999512 115.746C44.6739 115.746 80.0747 151.06 80.0747 194.617Z" stroke="#E7EDFF" stroke-width="2"/>
<path d="M72.1803 194.618C72.1803 233.826 40.3141 265.614 0.999809 265.614C-38.3145 265.614 -70.1807 233.826 -70.1807 194.618C-70.1807 155.41 -38.3145 123.621 0.999809 123.621C40.3141 123.621 72.1803 155.41 72.1803 194.618Z" stroke="#E7EDFF" stroke-width="2"/>
<path d="M63.1576 194.617C63.1576 228.855 35.331 256.614 0.999695 256.614C-33.3316 256.614 -61.1582 228.855 -61.1582 194.617C-61.1582 160.38 -33.3316 132.62 0.999695 132.62C35.331 132.62 63.1576 160.38 63.1576 194.617Z" stroke="#E7EDFF" stroke-width="2"/>
<path d="M115.037 194.618C115.037 257.435 63.9831 308.363 0.999512 308.363C-61.9841 308.363 -113.038 257.435 -113.038 194.618C-113.038 131.801 -61.9841 80.8735 0.999512 80.8735C63.9831 80.8735 115.037 131.801 115.037 194.618Z" stroke="#E7EDFF" stroke-width="2"/>
<path d="M581.136 50.5307L102.137 274.03L659.637 220.272L581.136 50.5307Z" fill="#BC090D"/>
<path d="M453 1C453 33.0325 427.033 59 395 59C362.967 59 337 33.0325 337 1C337 -31.0325 362.967 -57 395 -57C427.033 -57 453 -31.0325 453 1ZM373.514 1C373.514 12.8667 383.133 22.4865 395 22.4865C406.867 22.4865 416.486 12.8667 416.486 1C416.486 -10.8667 406.867 -20.4865 395 -20.4865C383.133 -20.4865 373.514 -10.8667 373.514 1Z" fill="#1D1F31"/>
</g>
<defs>
<clipPath id="clip0_617_3679">
<rect x="1" y="1" width="484" height="173" fill="white"/>
</clipPath>
</defs>
</svg>
