<svg width="239" height="85" viewBox="0 0 239 85" fill="none" xmlns="http://www.w3.org/2000/svg">
<path d="M237.081 118.738C237.081 183.76 184.235 236.475 119.041 236.475C53.8462 236.475 1 183.76 1 118.738C1 53.7153 53.8462 1 119.041 1C184.235 1 237.081 53.7153 237.081 118.738Z" stroke="#E7EDFF" stroke-width="2"/>
<path d="M229.921 118.737C229.921 179.815 180.28 229.333 119.04 229.333C57.8006 229.333 8.16016 179.815 8.16016 118.737C8.16016 57.6595 57.8006 8.14185 119.04 8.14185C180.28 8.14185 229.921 57.6595 229.921 118.737Z" stroke="#E7EDFF" stroke-width="2"/>
<path d="M223.656 118.738C223.656 176.364 176.82 223.084 119.041 223.084C61.2611 223.084 14.4258 176.364 14.4258 118.738C14.4258 61.1113 61.2611 14.3916 119.041 14.3916C176.82 14.3916 223.656 61.1113 223.656 118.738Z" stroke="#E7EDFF" stroke-width="2"/>
<path d="M216.495 118.737C216.495 172.419 172.866 215.941 119.041 215.941C65.2155 215.941 21.5859 172.419 21.5859 118.737C21.5859 65.0555 65.2155 21.5334 119.041 21.5334C172.866 21.5334 216.495 65.0555 216.495 118.737Z" stroke="#E7EDFF" stroke-width="2"/>
<path d="M202.174 118.738C202.174 164.531 164.956 201.658 119.04 201.658C73.1242 201.658 35.9062 164.531 35.9062 118.738C35.9062 72.9452 73.1242 35.8184 119.04 35.8184C164.956 35.8184 202.174 72.9452 202.174 118.738Z" stroke="#E7EDFF" stroke-width="2"/>
<path d="M195.909 118.738C195.909 161.079 161.496 195.408 119.041 195.408C76.5848 195.408 42.1719 161.079 42.1719 118.738C42.1719 76.396 76.5848 42.0671 119.041 42.0671C161.496 42.0671 195.909 76.396 195.909 118.738Z" stroke="#E7EDFF" stroke-width="2"/>
<path d="M188.749 118.737C188.749 157.134 157.542 188.266 119.04 188.266C80.5391 188.266 49.332 157.134 49.332 118.737C49.332 80.3403 80.5391 49.209 119.04 49.209C157.542 49.209 188.749 80.3403 188.749 118.737Z" stroke="#E7EDFF" stroke-width="2"/>
<path d="M181.588 118.737C181.588 153.19 153.587 181.123 119.04 181.123C84.4935 181.123 56.4922 153.19 56.4922 118.737C56.4922 84.2845 84.4935 56.3508 119.04 56.3508C153.587 56.3508 181.588 84.2845 181.588 118.737Z" stroke="#E7EDFF" stroke-width="2"/>
<path d="M175.323 118.737C175.323 149.739 150.127 174.874 119.041 174.874C87.954 174.874 62.7578 149.739 62.7578 118.737C62.7578 87.7363 87.954 62.6006 119.041 62.6006C150.127 62.6006 175.323 87.7363 175.323 118.737Z" stroke="#E7EDFF" stroke-width="2"/>
<path d="M168.163 118.737C168.163 145.794 146.172 167.732 119.04 167.732C91.9084 167.732 69.918 145.794 69.918 118.737C69.918 91.6805 91.9084 69.7424 119.04 69.7424C146.172 69.7424 168.163 91.6805 168.163 118.737Z" stroke="#E7EDFF" stroke-width="2"/>
<path d="M209.335 118.737C209.335 168.475 168.911 208.799 119.04 208.799C69.1698 208.799 28.7461 168.475 28.7461 118.737C28.7461 69 69.1698 28.6755 119.04 28.6755C168.911 28.6755 209.335 69 209.335 118.737Z" stroke="#E7EDFF" stroke-width="2"/>
</svg>
