<svg width="667" height="410" viewBox="0 0 667 410" fill="none" xmlns="http://www.w3.org/2000/svg">
<g clip-path="url(#clip0_819_1797)">
<rect width="667" height="410" fill="white"/>
<mask id="mask0_819_1797" style="mask-type:alpha" maskUnits="userSpaceOnUse" x="619" y="21" width="12" height="12">
<rect x="619" y="21" width="11.9304" height="11.8985" fill="#C4C4C4"/>
</mask>
<g mask="url(#mask0_819_1797)">
<line x1="1" y1="-1" x2="13.9054" y2="-1" transform="matrix(0.708053 0.70616 -0.708053 0.70616 619.042 22.3316)" stroke="black" stroke-width="2" stroke-linecap="square"/>
<line x1="1" y1="-1" x2="13.9054" y2="-1" transform="matrix(0.708053 -0.70616 0.708053 0.70616 620.418 32.9398)" stroke="black" stroke-width="2" stroke-linecap="square"/>
</g>
<path d="M218.84 225.24C217.613 225.24 216.64 225.02 215.92 224.58C215.213 224.127 214.713 223.5 214.42 222.7C214.127 221.887 213.98 220.933 213.98 219.84V214C213.98 212.88 214.127 211.92 214.42 211.12C214.713 210.307 215.213 209.68 215.92 209.24C216.64 208.8 217.613 208.58 218.84 208.58C220.04 208.58 220.973 208.78 221.64 209.18C222.32 209.567 222.8 210.113 223.08 210.82C223.36 211.527 223.5 212.34 223.5 213.26V214.66H220V213.04C220 212.72 219.98 212.413 219.94 212.12C219.913 211.827 219.82 211.587 219.66 211.4C219.5 211.2 219.227 211.1 218.84 211.1C218.467 211.1 218.187 211.2 218 211.4C217.827 211.6 217.713 211.853 217.66 212.16C217.62 212.453 217.6 212.767 217.6 213.1V220.72C217.6 221.08 217.627 221.413 217.68 221.72C217.747 222.013 217.867 222.253 218.04 222.44C218.227 222.613 218.493 222.7 218.84 222.7C219.213 222.7 219.48 222.607 219.64 222.42C219.8 222.22 219.9 221.967 219.94 221.66C219.98 221.353 220 221.04 220 220.72V219.02H223.5V220.42C223.5 221.34 223.36 222.167 223.08 222.9C222.813 223.62 222.34 224.193 221.66 224.62C220.993 225.033 220.053 225.24 218.84 225.24ZM225.29 225V213.44H233.49V225H230.23V215.66H228.55V225H225.29ZM237.884 225.2C237.298 225.2 236.804 225.06 236.404 224.78C236.004 224.5 235.704 224.147 235.504 223.72C235.304 223.28 235.204 222.833 235.204 222.38C235.204 221.66 235.344 221.053 235.624 220.56C235.918 220.067 236.298 219.653 236.764 219.32C237.231 218.987 237.744 218.707 238.304 218.48C238.864 218.24 239.418 218.027 239.964 217.84V216.68C239.964 216.48 239.944 216.307 239.904 216.16C239.864 216 239.798 215.88 239.704 215.8C239.611 215.707 239.471 215.66 239.284 215.66C239.098 215.66 238.951 215.7 238.844 215.78C238.751 215.86 238.684 215.973 238.644 216.12C238.604 216.253 238.578 216.407 238.564 216.58L238.484 217.42L235.444 217.3C235.511 215.913 235.878 214.893 236.544 214.24C237.224 213.573 238.238 213.24 239.584 213.24C240.758 213.24 241.631 213.567 242.204 214.22C242.791 214.86 243.084 215.693 243.084 216.72V222.12C243.084 222.6 243.091 223.02 243.104 223.38C243.131 223.74 243.158 224.053 243.184 224.32C243.224 224.587 243.258 224.813 243.284 225H240.364C240.324 224.693 240.278 224.36 240.224 224C240.171 223.64 240.131 223.427 240.104 223.36C239.971 223.84 239.718 224.267 239.344 224.64C238.984 225.013 238.498 225.2 237.884 225.2ZM239.044 223C239.178 223 239.298 222.973 239.404 222.92C239.524 222.867 239.631 222.793 239.724 222.7C239.818 222.607 239.898 222.513 239.964 222.42V219.26C239.698 219.42 239.451 219.587 239.224 219.76C238.998 219.92 238.804 220.1 238.644 220.3C238.484 220.5 238.358 220.72 238.264 220.96C238.184 221.187 238.144 221.447 238.144 221.74C238.144 222.127 238.224 222.433 238.384 222.66C238.544 222.887 238.764 223 239.044 223ZM248.776 225.2C247.936 225.2 247.216 225.047 246.616 224.74C246.029 224.433 245.576 223.993 245.256 223.42C244.936 222.847 244.776 222.153 244.776 221.34V217.1C244.776 216.273 244.936 215.573 245.256 215C245.576 214.427 246.029 213.993 246.616 213.7C247.216 213.393 247.936 213.24 248.776 213.24C249.603 213.24 250.303 213.367 250.876 213.62C251.463 213.873 251.909 214.26 252.216 214.78C252.523 215.287 252.676 215.933 252.676 216.72V217.94H249.536V216.62C249.536 216.313 249.503 216.08 249.436 215.92C249.383 215.747 249.296 215.627 249.176 215.56C249.069 215.493 248.936 215.46 248.776 215.46C248.616 215.46 248.483 215.507 248.376 215.6C248.269 215.68 248.189 215.82 248.136 216.02C248.083 216.207 248.056 216.473 248.056 216.82V221.62C248.056 222.14 248.116 222.493 248.236 222.68C248.369 222.867 248.556 222.96 248.796 222.96C248.969 222.96 249.109 222.927 249.216 222.86C249.323 222.78 249.403 222.66 249.456 222.5C249.509 222.327 249.536 222.1 249.536 221.82V220.28H252.676V221.68C252.676 222.453 252.516 223.107 252.196 223.64C251.889 224.16 251.443 224.553 250.856 224.82C250.283 225.073 249.589 225.2 248.776 225.2ZM254.372 225V213.44H256.952V219.62L259.972 213.44H262.512V225H259.872V218.88L256.932 225H254.372ZM268.308 225.2C267.241 225.173 266.421 224.98 265.848 224.62C265.288 224.26 264.908 223.74 264.708 223.06C264.508 222.367 264.408 221.54 264.408 220.58V214.12C264.408 213.053 264.514 212.2 264.728 211.56C264.954 210.92 265.261 210.427 265.648 210.08C266.048 209.733 266.508 209.467 267.028 209.28C267.548 209.093 268.068 208.947 268.588 208.84C269.121 208.733 269.634 208.613 270.128 208.48C270.634 208.333 271.101 208.12 271.528 207.84L271.648 210.46C271.208 210.687 270.741 210.853 270.248 210.96C269.768 211.053 269.294 211.14 268.828 211.22C268.374 211.287 267.954 211.4 267.568 211.56C267.221 211.693 266.974 211.947 266.828 212.32C266.681 212.68 266.608 213.18 266.608 213.82V214.7C266.781 214.5 266.994 214.333 267.248 214.2C267.514 214.067 267.821 213.967 268.168 213.9C268.528 213.833 268.921 213.8 269.348 213.8C270.054 213.8 270.628 213.933 271.068 214.2C271.508 214.467 271.828 214.907 272.028 215.52C272.241 216.133 272.348 216.967 272.348 218.02V220.84C272.348 222.027 272.174 222.94 271.828 223.58C271.494 224.207 271.021 224.633 270.408 224.86C269.808 225.087 269.108 225.2 268.308 225.2ZM268.448 223.1C268.701 223.1 268.881 223.033 268.988 222.9C269.108 222.767 269.188 222.52 269.228 222.16C269.268 221.787 269.288 221.24 269.288 220.52V217.44C269.288 217 269.268 216.653 269.228 216.4C269.188 216.133 269.108 215.947 268.988 215.84C268.868 215.733 268.694 215.68 268.468 215.68C268.321 215.68 268.181 215.727 268.048 215.82C267.928 215.9 267.828 216.04 267.748 216.24C267.668 216.427 267.601 216.693 267.548 217.04V220.5C267.548 221.207 267.568 221.747 267.608 222.12C267.648 222.493 267.734 222.753 267.868 222.9C268.001 223.033 268.194 223.1 268.448 223.1ZM277.996 225.2C277.169 225.2 276.449 225.06 275.836 224.78C275.236 224.5 274.769 224.08 274.436 223.52C274.116 222.96 273.956 222.26 273.956 221.42V217.02C273.956 216.18 274.116 215.48 274.436 214.92C274.769 214.36 275.236 213.94 275.836 213.66C276.449 213.38 277.169 213.24 277.996 213.24C278.822 213.24 279.536 213.38 280.136 213.66C280.749 213.94 281.222 214.36 281.556 214.92C281.889 215.48 282.056 216.18 282.056 217.02V221.42C282.056 222.26 281.889 222.96 281.556 223.52C281.222 224.08 280.749 224.5 280.136 224.78C279.536 225.06 278.822 225.2 277.996 225.2ZM278.016 223.04C278.229 223.04 278.396 222.987 278.516 222.88C278.636 222.76 278.716 222.6 278.756 222.4C278.809 222.187 278.836 221.933 278.836 221.64V216.8C278.836 216.507 278.809 216.26 278.756 216.06C278.716 215.847 278.636 215.687 278.516 215.58C278.396 215.46 278.229 215.4 278.016 215.4C277.802 215.4 277.636 215.46 277.516 215.58C277.396 215.687 277.309 215.847 277.256 216.06C277.202 216.26 277.176 216.507 277.176 216.8V221.64C277.176 221.933 277.202 222.187 277.256 222.4C277.309 222.6 277.396 222.76 277.516 222.88C277.636 222.987 277.802 223.04 278.016 223.04ZM292.421 225.22C291.621 225.22 290.974 225.113 290.481 224.9C290.001 224.673 289.628 224.373 289.361 224C289.108 223.613 288.934 223.18 288.841 222.7C288.761 222.207 288.721 221.693 288.721 221.16H291.301C291.301 221.773 291.394 222.233 291.581 222.54C291.781 222.833 292.088 222.98 292.501 222.98C292.808 222.98 293.041 222.913 293.201 222.78C293.361 222.647 293.468 222.46 293.521 222.22C293.588 221.98 293.621 221.713 293.621 221.42C293.621 221.033 293.548 220.727 293.401 220.5C293.268 220.273 293.041 220.113 292.721 220.02C292.414 219.913 291.994 219.86 291.461 219.86V218.18C292.261 218.18 292.781 218.073 293.021 217.86C293.274 217.647 293.401 217.273 293.401 216.74C293.401 216.353 293.321 216.047 293.161 215.82C293.014 215.593 292.748 215.48 292.361 215.48C291.948 215.48 291.654 215.6 291.481 215.84C291.321 216.067 291.241 216.473 291.241 217.06H288.681C288.681 216.367 288.788 215.733 289.001 215.16C289.214 214.573 289.594 214.107 290.141 213.76C290.701 213.413 291.494 213.24 292.521 213.24C293.428 213.24 294.161 213.387 294.721 213.68C295.294 213.96 295.708 214.347 295.961 214.84C296.228 215.32 296.361 215.867 296.361 216.48C296.361 216.987 296.281 217.413 296.121 217.76C295.961 218.107 295.754 218.38 295.501 218.58C295.248 218.767 294.968 218.907 294.661 219C294.994 219.12 295.288 219.28 295.541 219.48C295.808 219.68 296.021 219.967 296.181 220.34C296.341 220.7 296.421 221.193 296.421 221.82C296.421 222.793 296.108 223.607 295.481 224.26C294.854 224.9 293.834 225.22 292.421 225.22ZM300.365 225.2C299.778 225.2 299.285 225.06 298.885 224.78C298.485 224.5 298.185 224.147 297.985 223.72C297.785 223.28 297.685 222.833 297.685 222.38C297.685 221.66 297.825 221.053 298.105 220.56C298.398 220.067 298.778 219.653 299.245 219.32C299.712 218.987 300.225 218.707 300.785 218.48C301.345 218.24 301.898 218.027 302.445 217.84V216.68C302.445 216.48 302.425 216.307 302.385 216.16C302.345 216 302.278 215.88 302.185 215.8C302.092 215.707 301.952 215.66 301.765 215.66C301.578 215.66 301.432 215.7 301.325 215.78C301.232 215.86 301.165 215.973 301.125 216.12C301.085 216.253 301.058 216.407 301.045 216.58L300.965 217.42L297.925 217.3C297.992 215.913 298.358 214.893 299.025 214.24C299.705 213.573 300.718 213.24 302.065 213.24C303.238 213.24 304.112 213.567 304.685 214.22C305.272 214.86 305.565 215.693 305.565 216.72V222.12C305.565 222.6 305.572 223.02 305.585 223.38C305.612 223.74 305.638 224.053 305.665 224.32C305.705 224.587 305.738 224.813 305.765 225H302.845C302.805 224.693 302.758 224.36 302.705 224C302.652 223.64 302.612 223.427 302.585 223.36C302.452 223.84 302.198 224.267 301.825 224.64C301.465 225.013 300.978 225.2 300.365 225.2ZM301.525 223C301.658 223 301.778 222.973 301.885 222.92C302.005 222.867 302.112 222.793 302.205 222.7C302.298 222.607 302.378 222.513 302.445 222.42V219.26C302.178 219.42 301.932 219.587 301.705 219.76C301.478 219.92 301.285 220.1 301.125 220.3C300.965 220.5 300.838 220.72 300.745 220.96C300.665 221.187 300.625 221.447 300.625 221.74C300.625 222.127 300.705 222.433 300.865 222.66C301.025 222.887 301.245 223 301.525 223ZM312.614 225V213.44H316.714C317.874 213.44 318.747 213.567 319.334 213.82C319.92 214.06 320.314 214.393 320.514 214.82C320.714 215.247 320.814 215.747 320.814 216.32C320.814 217.08 320.647 217.64 320.314 218C319.994 218.347 319.567 218.593 319.034 218.74C319.594 218.873 320.02 219.073 320.314 219.34C320.607 219.607 320.807 219.933 320.914 220.32C321.034 220.707 321.094 221.153 321.094 221.66C321.094 222.407 320.954 223.033 320.674 223.54C320.394 224.033 319.92 224.4 319.254 224.64C318.587 224.88 317.68 225 316.534 225H312.614ZM315.854 223.2H316.394C316.687 223.2 316.947 223.173 317.174 223.12C317.4 223.067 317.58 222.927 317.714 222.7C317.86 222.46 317.934 222.08 317.934 221.56C317.934 220.973 317.867 220.553 317.734 220.3C317.614 220.047 317.44 219.893 317.214 219.84C316.987 219.787 316.72 219.76 316.414 219.76H315.854V223.2ZM315.854 218H316.674C317.06 218 317.327 217.88 317.474 217.64C317.62 217.387 317.694 217.04 317.694 216.6C317.694 216.173 317.614 215.82 317.454 215.54C317.307 215.26 316.967 215.12 316.434 215.12H315.854V218ZM325.052 225.2C324.466 225.2 323.972 225.06 323.572 224.78C323.172 224.5 322.872 224.147 322.672 223.72C322.472 223.28 322.372 222.833 322.372 222.38C322.372 221.66 322.512 221.053 322.792 220.56C323.086 220.067 323.466 219.653 323.932 219.32C324.399 218.987 324.912 218.707 325.472 218.48C326.032 218.24 326.586 218.027 327.132 217.84V216.68C327.132 216.48 327.112 216.307 327.072 216.16C327.032 216 326.966 215.88 326.872 215.8C326.779 215.707 326.639 215.66 326.452 215.66C326.266 215.66 326.119 215.7 326.012 215.78C325.919 215.86 325.852 215.973 325.812 216.12C325.772 216.253 325.746 216.407 325.732 216.58L325.652 217.42L322.612 217.3C322.679 215.913 323.046 214.893 323.712 214.24C324.392 213.573 325.406 213.24 326.752 213.24C327.926 213.24 328.799 213.567 329.372 214.22C329.959 214.86 330.252 215.693 330.252 216.72V222.12C330.252 222.6 330.259 223.02 330.272 223.38C330.299 223.74 330.326 224.053 330.352 224.32C330.392 224.587 330.426 224.813 330.452 225H327.532C327.492 224.693 327.446 224.36 327.392 224C327.339 223.64 327.299 223.427 327.272 223.36C327.139 223.84 326.886 224.267 326.512 224.64C326.152 225.013 325.666 225.2 325.052 225.2ZM326.212 223C326.346 223 326.466 222.973 326.572 222.92C326.692 222.867 326.799 222.793 326.892 222.7C326.986 222.607 327.066 222.513 327.132 222.42V219.26C326.866 219.42 326.619 219.587 326.392 219.76C326.166 219.92 325.972 220.1 325.812 220.3C325.652 220.5 325.526 220.72 325.432 220.96C325.352 221.187 325.312 221.447 325.312 221.74C325.312 222.127 325.392 222.433 325.552 222.66C325.712 222.887 325.932 223 326.212 223ZM332.164 225V213.44H335.204V222.8H336.744V213.44H339.784V222.8H341.324V213.44H344.364V225H332.164ZM350.202 225.2C349.362 225.2 348.642 225.053 348.042 224.76C347.442 224.453 346.982 224.013 346.662 223.44C346.342 222.853 346.182 222.153 346.182 221.34V217.1C346.182 216.273 346.342 215.573 346.662 215C346.982 214.427 347.442 213.993 348.042 213.7C348.656 213.393 349.376 213.24 350.202 213.24C351.056 213.24 351.762 213.387 352.322 213.68C352.896 213.973 353.322 214.407 353.602 214.98C353.896 215.553 354.042 216.26 354.042 217.1V219.42H349.402V221.64C349.402 221.933 349.436 222.173 349.502 222.36C349.569 222.547 349.662 222.68 349.782 222.76C349.902 222.84 350.042 222.88 350.202 222.88C350.362 222.88 350.502 222.847 350.622 222.78C350.756 222.7 350.856 222.58 350.922 222.42C351.002 222.26 351.042 222.04 351.042 221.76V220.54H354.042V221.66C354.042 222.833 353.702 223.72 353.022 224.32C352.342 224.907 351.402 225.2 350.202 225.2ZM349.402 217.9H351.042V216.74C351.042 216.433 351.002 216.193 350.922 216.02C350.856 215.847 350.756 215.727 350.622 215.66C350.502 215.593 350.356 215.56 350.182 215.56C350.022 215.56 349.882 215.6 349.762 215.68C349.656 215.76 349.569 215.9 349.502 216.1C349.436 216.287 349.402 216.56 349.402 216.92V217.9ZM364.734 225.2C363.907 225.2 363.187 225.06 362.574 224.78C361.974 224.5 361.507 224.08 361.174 223.52C360.854 222.96 360.694 222.26 360.694 221.42V217.02C360.694 216.18 360.854 215.48 361.174 214.92C361.507 214.36 361.974 213.94 362.574 213.66C363.187 213.38 363.907 213.24 364.734 213.24C365.561 213.24 366.274 213.38 366.874 213.66C367.487 213.94 367.961 214.36 368.294 214.92C368.627 215.48 368.794 216.18 368.794 217.02V221.42C368.794 222.26 368.627 222.96 368.294 223.52C367.961 224.08 367.487 224.5 366.874 224.78C366.274 225.06 365.561 225.2 364.734 225.2ZM364.754 223.04C364.967 223.04 365.134 222.987 365.254 222.88C365.374 222.76 365.454 222.6 365.494 222.4C365.547 222.187 365.574 221.933 365.574 221.64V216.8C365.574 216.507 365.547 216.26 365.494 216.06C365.454 215.847 365.374 215.687 365.254 215.58C365.134 215.46 364.967 215.4 364.754 215.4C364.541 215.4 364.374 215.46 364.254 215.58C364.134 215.687 364.047 215.847 363.994 216.06C363.941 216.26 363.914 216.507 363.914 216.8V221.64C363.914 221.933 363.941 222.187 363.994 222.4C364.047 222.6 364.134 222.76 364.254 222.88C364.374 222.987 364.541 223.04 364.754 223.04ZM374.382 225.2C373.315 225.173 372.495 224.98 371.922 224.62C371.362 224.26 370.982 223.74 370.782 223.06C370.582 222.367 370.482 221.54 370.482 220.58V214.12C370.482 213.053 370.589 212.2 370.802 211.56C371.029 210.92 371.335 210.427 371.722 210.08C372.122 209.733 372.582 209.467 373.102 209.28C373.622 209.093 374.142 208.947 374.662 208.84C375.195 208.733 375.709 208.613 376.202 208.48C376.709 208.333 377.175 208.12 377.602 207.84L377.722 210.46C377.282 210.687 376.815 210.853 376.322 210.96C375.842 211.053 375.369 211.14 374.902 211.22C374.449 211.287 374.029 211.4 373.642 211.56C373.295 211.693 373.049 211.947 372.902 212.32C372.755 212.68 372.682 213.18 372.682 213.82V214.7C372.855 214.5 373.069 214.333 373.322 214.2C373.589 214.067 373.895 213.967 374.242 213.9C374.602 213.833 374.995 213.8 375.422 213.8C376.129 213.8 376.702 213.933 377.142 214.2C377.582 214.467 377.902 214.907 378.102 215.52C378.315 216.133 378.422 216.967 378.422 218.02V220.84C378.422 222.027 378.249 222.94 377.902 223.58C377.569 224.207 377.095 224.633 376.482 224.86C375.882 225.087 375.182 225.2 374.382 225.2ZM374.522 223.1C374.775 223.1 374.955 223.033 375.062 222.9C375.182 222.767 375.262 222.52 375.302 222.16C375.342 221.787 375.362 221.24 375.362 220.52V217.44C375.362 217 375.342 216.653 375.302 216.4C375.262 216.133 375.182 215.947 375.062 215.84C374.942 215.733 374.769 215.68 374.542 215.68C374.395 215.68 374.255 215.727 374.122 215.82C374.002 215.9 373.902 216.04 373.822 216.24C373.742 216.427 373.675 216.693 373.622 217.04V220.5C373.622 221.207 373.642 221.747 373.682 222.12C373.722 222.493 373.809 222.753 373.942 222.9C374.075 223.033 374.269 223.1 374.522 223.1ZM380.27 228.8V213.44H383.53V214.28C383.917 213.933 384.33 213.673 384.77 213.5C385.21 213.327 385.63 213.24 386.03 213.24C386.47 213.24 386.843 213.327 387.15 213.5C387.47 213.673 387.73 213.92 387.93 214.24C388.13 214.547 388.277 214.907 388.37 215.32C388.463 215.733 388.51 216.173 388.51 216.64V221.62C388.51 222.34 388.41 222.967 388.21 223.5C388.023 224.033 387.743 224.453 387.37 224.76C386.997 225.053 386.537 225.2 385.99 225.2C385.577 225.2 385.157 225.107 384.73 224.92C384.317 224.72 383.917 224.453 383.53 224.12V228.8H380.27ZM384.39 223.1C384.603 223.1 384.77 223.04 384.89 222.92C385.01 222.8 385.097 222.647 385.15 222.46C385.217 222.26 385.25 222.04 385.25 221.8V216.4C385.25 216.173 385.223 215.973 385.17 215.8C385.117 215.613 385.03 215.467 384.91 215.36C384.79 215.253 384.637 215.2 384.45 215.2C384.277 215.2 384.11 215.24 383.95 215.32C383.803 215.387 383.663 215.48 383.53 215.6V222.8C383.677 222.893 383.817 222.967 383.95 223.02C384.097 223.073 384.243 223.1 384.39 223.1ZM392.748 225.2C392.161 225.2 391.668 225.06 391.268 224.78C390.868 224.5 390.568 224.147 390.368 223.72C390.168 223.28 390.068 222.833 390.068 222.38C390.068 221.66 390.208 221.053 390.488 220.56C390.781 220.067 391.161 219.653 391.628 219.32C392.094 218.987 392.608 218.707 393.168 218.48C393.728 218.24 394.281 218.027 394.828 217.84V216.68C394.828 216.48 394.808 216.307 394.768 216.16C394.728 216 394.661 215.88 394.568 215.8C394.474 215.707 394.334 215.66 394.148 215.66C393.961 215.66 393.814 215.7 393.708 215.78C393.614 215.86 393.548 215.973 393.508 216.12C393.468 216.253 393.441 216.407 393.428 216.58L393.348 217.42L390.308 217.3C390.374 215.913 390.741 214.893 391.408 214.24C392.088 213.573 393.101 213.24 394.448 213.24C395.621 213.24 396.494 213.567 397.068 214.22C397.654 214.86 397.948 215.693 397.948 216.72V222.12C397.948 222.6 397.954 223.02 397.968 223.38C397.994 223.74 398.021 224.053 398.048 224.32C398.088 224.587 398.121 224.813 398.148 225H395.228C395.188 224.693 395.141 224.36 395.088 224C395.034 223.64 394.994 223.427 394.968 223.36C394.834 223.84 394.581 224.267 394.208 224.64C393.848 225.013 393.361 225.2 392.748 225.2ZM393.908 223C394.041 223 394.161 222.973 394.268 222.92C394.388 222.867 394.494 222.793 394.588 222.7C394.681 222.607 394.761 222.513 394.828 222.42V219.26C394.561 219.42 394.314 219.587 394.088 219.76C393.861 219.92 393.668 220.1 393.508 220.3C393.348 220.5 393.221 220.72 393.128 220.96C393.048 221.187 393.008 221.447 393.008 221.74C393.008 222.127 393.088 222.433 393.248 222.66C393.408 222.887 393.628 223 393.908 223ZM411.339 228.14L411.139 225H399.819V213.44H402.859V223H404.399V213.44H407.439V223H408.979V213.44H412.019V223H413.679V228.14H411.339ZM419.187 225.2C418.347 225.2 417.627 225.053 417.027 224.76C416.427 224.453 415.967 224.013 415.647 223.44C415.327 222.853 415.167 222.153 415.167 221.34V217.1C415.167 216.273 415.327 215.573 415.647 215C415.967 214.427 416.427 213.993 417.027 213.7C417.64 213.393 418.36 213.24 419.187 213.24C420.04 213.24 420.747 213.387 421.307 213.68C421.88 213.973 422.307 214.407 422.587 214.98C422.88 215.553 423.027 216.26 423.027 217.1V219.42H418.387V221.64C418.387 221.933 418.42 222.173 418.487 222.36C418.553 222.547 418.647 222.68 418.767 222.76C418.887 222.84 419.027 222.88 419.187 222.88C419.347 222.88 419.487 222.847 419.607 222.78C419.74 222.7 419.84 222.58 419.907 222.42C419.987 222.26 420.027 222.04 420.027 221.76V220.54H423.027V221.66C423.027 222.833 422.687 223.72 422.007 224.32C421.327 224.907 420.387 225.2 419.187 225.2ZM418.387 217.9H420.027V216.74C420.027 216.433 419.987 216.193 419.907 216.02C419.84 215.847 419.74 215.727 419.607 215.66C419.487 215.593 419.34 215.56 419.167 215.56C419.007 215.56 418.867 215.6 418.747 215.68C418.64 215.76 418.553 215.9 418.487 216.1C418.42 216.287 418.387 216.56 418.387 216.92V217.9ZM424.801 225V213.44H428.061V217.92H430.001V213.44H433.281V225H430.001V220.16H428.061V225H424.801ZM435.309 225V213.44H437.889V219.62L440.909 213.44H443.449V225H440.809V218.88L437.869 225H435.309ZM449.245 225.2C448.405 225.2 447.685 225.053 447.085 224.76C446.485 224.453 446.025 224.013 445.705 223.44C445.385 222.853 445.225 222.153 445.225 221.34V217.1C445.225 216.273 445.385 215.573 445.705 215C446.025 214.427 446.485 213.993 447.085 213.7C447.699 213.393 448.419 213.24 449.245 213.24C450.099 213.24 450.805 213.387 451.365 213.68C451.939 213.973 452.365 214.407 452.645 214.98C452.939 215.553 453.085 216.26 453.085 217.1V219.42H448.445V221.64C448.445 221.933 448.479 222.173 448.545 222.36C448.612 222.547 448.705 222.68 448.825 222.76C448.945 222.84 449.085 222.88 449.245 222.88C449.405 222.88 449.545 222.847 449.665 222.78C449.799 222.7 449.899 222.58 449.965 222.42C450.045 222.26 450.085 222.04 450.085 221.76V220.54H453.085V221.66C453.085 222.833 452.745 223.72 452.065 224.32C451.385 224.907 450.445 225.2 449.245 225.2ZM448.445 217.9H450.085V216.74C450.085 216.433 450.045 216.193 449.965 216.02C449.899 215.847 449.799 215.727 449.665 215.66C449.545 215.593 449.399 215.56 449.225 215.56C449.065 215.56 448.925 215.6 448.805 215.68C448.699 215.76 448.612 215.9 448.545 216.1C448.479 216.287 448.445 216.56 448.445 216.92V217.9Z" fill="black"/>
<path d="M220.396 247C220.516 247 220.588 246.928 220.588 246.808L220.336 238.468C220.336 238.336 220.276 238.276 220.144 238.276H219.016C218.896 238.276 218.836 238.324 218.788 238.432L216.244 245.68L213.7 238.432C213.652 238.324 213.592 238.276 213.472 238.276H212.32C212.188 238.276 212.128 238.336 212.128 238.468L211.864 246.808C211.864 246.928 211.936 247 212.056 247H212.764C212.884 247 212.956 246.928 212.956 246.808L213.064 239.308L215.68 246.844C215.716 246.952 215.776 247 215.896 247H216.592C216.712 247 216.772 246.952 216.82 246.844L219.388 239.464L219.508 246.808C219.508 246.928 219.58 247 219.7 247H220.396ZM223.433 242.968L223.421 240.82C223.421 240.7 223.349 240.628 223.229 240.628H222.593C222.473 240.628 222.401 240.7 222.401 240.82L222.353 246.808C222.353 246.928 222.425 247 222.545 247H225.425C226.781 247 227.729 246.1 227.729 244.972C227.729 243.844 226.817 242.968 225.425 242.968H223.433ZM229.829 240.82C229.829 240.7 229.757 240.628 229.637 240.628H229.001C228.881 240.628 228.809 240.7 228.809 240.82L228.773 246.808C228.773 246.928 228.845 247 228.965 247H229.685C229.805 247 229.877 246.928 229.877 246.808L229.829 240.82ZM223.457 246.064L223.445 243.904H225.221C226.157 243.904 226.673 244.384 226.673 244.972C226.673 245.572 226.205 246.064 225.365 246.064H223.457ZM236.71 240.484C234.958 240.484 233.782 241.816 233.782 243.892C233.782 245.836 234.91 247.156 236.674 247.156C238.066 247.156 238.942 246.316 239.278 245.416C239.326 245.284 239.254 245.2 239.122 245.2H238.498C238.39 245.2 238.33 245.248 238.27 245.344C238.018 245.86 237.574 246.208 236.758 246.208C235.546 246.208 234.826 245.416 234.826 243.856C234.826 242.236 235.546 241.42 236.722 241.42C237.502 241.42 238.006 241.768 238.306 242.392C238.366 242.488 238.426 242.536 238.534 242.536H239.158C239.29 242.536 239.362 242.452 239.326 242.32C239.038 241.36 238.114 240.484 236.71 240.484ZM244.741 243.7C245.173 243.4 245.437 242.932 245.437 242.392C245.437 241.432 244.669 240.628 243.385 240.628H240.769C240.649 240.628 240.577 240.7 240.577 240.82L240.529 246.808C240.529 246.928 240.601 247 240.721 247H243.733C244.981 247 245.833 246.292 245.833 245.236C245.833 244.492 245.449 243.952 244.741 243.7ZM241.597 241.564H243.349C244.057 241.564 244.429 241.972 244.429 242.476C244.429 243.028 244.009 243.412 243.361 243.412H241.609L241.597 241.564ZM241.633 246.064L241.621 244.18H243.421C244.357 244.18 244.777 244.564 244.777 245.14C244.777 245.656 244.405 246.064 243.421 246.064H241.633ZM252.259 247C252.379 247 252.451 246.928 252.451 246.808L252.403 240.82C252.403 240.7 252.331 240.628 252.211 240.628H249.475C248.179 240.628 247.243 241.48 247.243 242.596C247.243 243.484 247.795 244.18 248.683 244.444L247.051 246.772C246.955 246.892 247.003 247 247.171 247H248.035C248.131 247 248.203 246.964 248.263 246.88L249.775 244.552H251.359L251.347 246.808C251.347 246.928 251.419 247 251.539 247H252.259ZM251.371 243.616H249.679C248.803 243.616 248.299 243.184 248.299 242.596C248.299 242.02 248.755 241.564 249.535 241.564H251.383L251.371 243.616ZM260.06 243.712L262.7 240.868C262.808 240.736 262.76 240.628 262.592 240.628H261.692C261.584 240.628 261.524 240.664 261.452 240.736L259.124 243.364H258.836L258.824 240.82C258.824 240.7 258.752 240.628 258.632 240.628H258.008C257.888 240.628 257.816 240.7 257.816 240.82L257.804 243.364H257.528L255.2 240.736C255.128 240.664 255.068 240.628 254.96 240.628H254.06C253.892 240.628 253.844 240.736 253.952 240.868L256.592 243.712L253.88 246.76C253.772 246.892 253.82 247 253.988 247H254.948C255.044 247 255.116 246.964 255.188 246.892L257.528 244.108H257.792L257.78 246.808C257.78 246.928 257.852 247 257.972 247H258.668C258.788 247 258.86 246.928 258.86 246.808L258.848 244.108H259.124L261.452 246.892C261.524 246.964 261.596 247 261.692 247H262.652C262.82 247 262.868 246.892 262.76 246.76L260.06 243.712ZM266.865 240.496C265.076 240.496 263.841 241.852 263.841 243.856C263.841 245.824 265.053 247.156 266.793 247.156C267.981 247.156 268.929 246.556 269.409 245.464C269.457 245.332 269.397 245.236 269.253 245.236H268.641C268.533 245.236 268.461 245.272 268.413 245.368C268.065 245.944 267.585 246.22 266.877 246.22C265.677 246.22 264.909 245.368 264.896 243.964H269.385C269.517 243.964 269.577 243.904 269.589 243.772C269.648 241.948 268.713 240.496 266.865 240.496ZM266.781 241.42C267.873 241.42 268.485 242.2 268.521 243.136H264.957C265.125 242.176 265.713 241.42 266.781 241.42ZM278.197 247C278.317 247 278.389 246.928 278.377 246.808L278.149 240.844C278.137 240.712 278.077 240.652 277.945 240.652H276.853C276.745 240.652 276.673 240.7 276.637 240.808L274.597 246.004L272.545 240.808C272.509 240.7 272.437 240.652 272.329 240.652H271.213C271.081 240.652 271.021 240.712 271.009 240.844L270.793 246.808C270.781 246.928 270.853 247 270.973 247H271.597C271.717 247 271.789 246.928 271.789 246.808L271.909 241.444L273.997 246.844C274.033 246.952 274.105 247 274.225 247H274.969C275.077 247 275.149 246.952 275.185 246.844L277.249 241.588L277.357 246.808C277.357 246.928 277.429 247 277.549 247H278.197ZM282.483 240.484C280.731 240.484 279.555 241.816 279.555 243.892C279.555 245.836 280.683 247.156 282.447 247.156C283.839 247.156 284.715 246.316 285.051 245.416C285.099 245.284 285.027 245.2 284.895 245.2H284.271C284.163 245.2 284.103 245.248 284.043 245.344C283.791 245.86 283.347 246.208 282.531 246.208C281.319 246.208 280.599 245.416 280.599 243.856C280.599 242.236 281.319 241.42 282.495 241.42C283.275 241.42 283.779 241.768 284.079 242.392C284.139 242.488 284.199 242.536 284.307 242.536H284.931C285.063 242.536 285.135 242.452 285.099 242.32C284.811 241.36 283.887 240.484 282.483 240.484ZM291.318 247C291.438 247 291.51 246.928 291.51 246.808L291.462 240.82C291.462 240.7 291.39 240.628 291.27 240.628H288.534C287.238 240.628 286.302 241.48 286.302 242.596C286.302 243.484 286.854 244.18 287.742 244.444L286.11 246.772C286.014 246.892 286.062 247 286.23 247H287.094C287.19 247 287.262 246.964 287.322 246.88L288.834 244.552H290.418L290.406 246.808C290.406 246.928 290.478 247 290.598 247H291.318ZM290.43 243.616H288.738C287.862 243.616 287.358 243.184 287.358 242.596C287.358 242.02 287.814 241.564 288.594 241.564H290.442L290.43 243.616ZM298.339 240.484C296.587 240.484 295.411 241.816 295.411 243.892C295.411 245.836 296.539 247.156 298.303 247.156C299.695 247.156 300.571 246.316 300.907 245.416C300.955 245.284 300.883 245.2 300.751 245.2H300.127C300.019 245.2 299.959 245.248 299.899 245.344C299.647 245.86 299.203 246.208 298.387 246.208C297.175 246.208 296.455 245.416 296.455 243.856C296.455 242.236 297.175 241.42 298.351 241.42C299.131 241.42 299.635 241.768 299.935 242.392C299.995 242.488 300.055 242.536 300.163 242.536H300.787C300.919 242.536 300.991 242.452 300.955 242.32C300.667 241.36 299.743 240.484 298.339 240.484ZM309.946 242.38C310.474 241.936 310.762 241.288 310.762 240.568C310.762 239.248 309.754 238.276 308.134 238.276H304.858C304.738 238.276 304.666 238.348 304.666 238.468L304.618 246.808C304.618 246.928 304.69 247 304.81 247H308.494C310.174 247 311.254 245.884 311.254 244.444C311.254 243.532 310.798 242.788 309.946 242.38ZM305.71 239.212H308.014C309.07 239.212 309.706 239.776 309.706 240.64C309.706 241.504 309.142 242.032 308.182 242.032H305.722L305.71 239.212ZM305.746 246.064L305.734 242.98H308.278C309.502 242.98 310.198 243.604 310.198 244.54C310.198 245.464 309.562 246.064 308.422 246.064H305.746ZM315.201 240.484C313.809 240.484 312.933 241.192 312.657 242.26C312.633 242.368 312.705 242.44 312.837 242.44H313.461C313.569 242.44 313.641 242.392 313.677 242.284C313.869 241.72 314.373 241.384 315.129 241.384C316.065 241.384 316.581 241.852 316.581 242.5C316.581 242.968 316.293 243.148 315.693 243.208C313.341 243.436 312.345 244.036 312.345 245.344C312.345 246.496 313.149 247.108 314.289 247.108C315.285 247.108 316.065 246.652 316.497 245.992H316.581L316.569 246.808C316.569 246.928 316.641 247 316.761 247H317.445C317.565 247 317.637 246.928 317.637 246.808L317.601 242.656C317.601 241.3 316.701 240.484 315.201 240.484ZM316.569 243.82L316.581 244.66C316.509 245.356 315.705 246.196 314.517 246.196C313.809 246.196 313.377 245.872 313.377 245.272C313.377 244.528 314.121 244.18 315.597 244.012C316.017 243.976 316.317 243.892 316.521 243.796L316.569 243.82ZM326.595 247C326.715 247 326.787 246.928 326.775 246.808L326.547 240.844C326.535 240.712 326.475 240.652 326.343 240.652H325.251C325.143 240.652 325.071 240.7 325.035 240.808L322.995 246.004L320.943 240.808C320.907 240.7 320.835 240.652 320.727 240.652H319.611C319.479 240.652 319.419 240.712 319.407 240.844L319.191 246.808C319.179 246.928 319.251 247 319.371 247H319.995C320.115 247 320.187 246.928 320.187 246.808L320.307 241.444L322.395 246.844C322.431 246.952 322.503 247 322.623 247H323.367C323.475 247 323.547 246.952 323.583 246.844L325.647 241.588L325.755 246.808C325.755 246.928 325.827 247 325.947 247H326.595ZM333.654 247C333.774 247 333.846 246.928 333.846 246.808L333.81 240.82C333.81 240.7 333.738 240.628 333.618 240.628H332.694C332.586 240.628 332.514 240.664 332.454 240.76L329.358 245.692L329.334 240.82C329.334 240.7 329.262 240.628 329.142 240.628H328.542C328.422 240.628 328.35 240.7 328.35 240.82L328.314 246.808C328.314 246.928 328.386 247 328.506 247H329.454C329.562 247 329.634 246.964 329.694 246.868L332.814 241.912L332.79 246.808C332.79 246.928 332.862 247 332.982 247H333.654ZM342.323 243.7C342.755 243.4 343.019 242.932 343.019 242.392C343.019 241.432 342.251 240.628 340.967 240.628H338.351C338.231 240.628 338.159 240.7 338.159 240.82L338.111 246.808C338.111 246.928 338.183 247 338.303 247H341.315C342.563 247 343.415 246.292 343.415 245.236C343.415 244.492 343.031 243.952 342.323 243.7ZM339.179 241.564H340.931C341.639 241.564 342.011 241.972 342.011 242.476C342.011 243.028 341.591 243.412 340.943 243.412H339.191L339.179 241.564ZM339.215 246.064L339.203 244.18H341.003C341.939 244.18 342.359 244.564 342.359 245.14C342.359 245.656 341.987 246.064 341.003 246.064H339.215ZM350.334 240.76C349.638 240.76 348.93 241.072 348.438 241.552L348.366 241.54V241.396C348.366 239.764 349.17 238.984 350.826 238.984C351.45 238.984 351.81 238.96 352.23 238.864C352.35 238.828 352.398 238.756 352.398 238.648V238.096C352.398 237.964 352.314 237.904 352.182 237.928C351.726 238.024 351.366 238.048 350.778 238.048C348.534 238.048 347.37 239.236 347.346 241.624L347.322 243.928C347.31 245.824 348.366 247.156 350.226 247.156C352.11 247.156 353.19 245.788 353.19 244.024C353.19 242.128 351.99 240.76 350.334 240.76ZM350.25 241.696C351.354 241.696 352.134 242.644 352.134 244C352.134 245.296 351.45 246.22 350.25 246.22C349.17 246.22 348.354 245.44 348.354 244.048V243.58C348.474 242.416 349.254 241.696 350.25 241.696ZM359.915 247C360.035 247 360.107 246.928 360.107 246.808L360.071 240.82C360.071 240.7 359.999 240.628 359.879 240.628H355.931C355.811 240.628 355.751 240.688 355.739 240.808L355.403 244.744C355.331 245.536 354.959 245.98 354.251 246.04C354.119 246.052 354.059 246.112 354.059 246.244V246.808C354.059 246.928 354.131 247 354.251 247C355.571 246.94 356.291 246.268 356.411 244.612L356.627 241.6H359.051L359.015 246.808C359.015 246.928 359.087 247 359.207 247H359.915ZM367.24 247C367.36 247 367.432 246.928 367.432 246.808L367.396 240.82C367.396 240.7 367.324 240.628 367.204 240.628H366.28C366.172 240.628 366.1 240.664 366.04 240.76L362.944 245.692L362.92 240.82C362.92 240.7 362.848 240.628 362.728 240.628H362.128C362.008 240.628 361.936 240.7 361.936 240.82L361.9 246.808C361.9 246.928 361.972 247 362.092 247H363.04C363.148 247 363.22 246.964 363.28 246.868L366.4 241.912L366.376 246.808C366.376 246.928 366.448 247 366.568 247H367.24ZM375.044 243.712L377.684 240.868C377.792 240.736 377.744 240.628 377.576 240.628H376.676C376.568 240.628 376.508 240.664 376.436 240.736L374.108 243.364H373.82L373.808 240.82C373.808 240.7 373.736 240.628 373.616 240.628H372.992C372.872 240.628 372.8 240.7 372.8 240.82L372.788 243.364H372.512L370.184 240.736C370.112 240.664 370.052 240.628 369.944 240.628H369.044C368.876 240.628 368.828 240.736 368.936 240.868L371.576 243.712L368.864 246.76C368.756 246.892 368.804 247 368.972 247H369.932C370.028 247 370.1 246.964 370.172 246.892L372.512 244.108H372.776L372.764 246.808C372.764 246.928 372.836 247 372.956 247H373.652C373.772 247 373.844 246.928 373.844 246.808L373.832 244.108H374.108L376.436 246.892C376.508 246.964 376.58 247 376.676 247H377.636C377.804 247 377.852 246.892 377.744 246.76L375.044 243.712ZM381.693 240.484C380.301 240.484 379.425 241.192 379.149 242.26C379.125 242.368 379.197 242.44 379.329 242.44H379.953C380.061 242.44 380.133 242.392 380.169 242.284C380.361 241.72 380.865 241.384 381.621 241.384C382.557 241.384 383.073 241.852 383.073 242.5C383.073 242.968 382.785 243.148 382.185 243.208C379.833 243.436 378.837 244.036 378.837 245.344C378.837 246.496 379.641 247.108 380.781 247.108C381.777 247.108 382.557 246.652 382.989 245.992H383.073L383.061 246.808C383.061 246.928 383.133 247 383.253 247H383.937C384.057 247 384.129 246.928 384.129 246.808L384.093 242.656C384.093 241.3 383.193 240.484 381.693 240.484ZM383.061 243.82L383.073 244.66C383.001 245.356 382.197 246.196 381.009 246.196C380.301 246.196 379.869 245.872 379.869 245.272C379.869 244.528 380.613 244.18 382.089 244.012C382.509 243.976 382.809 243.892 383.013 243.796L383.061 243.82ZM388.707 239.8C389.619 239.8 390.291 239.32 390.291 238.276C390.291 238.156 390.219 238.096 390.099 238.096H389.703C389.583 238.096 389.511 238.156 389.511 238.276C389.511 238.864 389.163 239.116 388.707 239.116C388.263 239.116 387.915 238.864 387.915 238.276C387.915 238.156 387.843 238.096 387.723 238.096H387.339C387.219 238.096 387.147 238.156 387.147 238.276C387.147 239.32 387.807 239.8 388.707 239.8ZM391.251 247C391.371 247 391.443 246.928 391.443 246.808L391.407 240.82C391.407 240.7 391.335 240.628 391.215 240.628H390.291C390.183 240.628 390.111 240.664 390.051 240.76L386.955 245.692L386.931 240.82C386.931 240.7 386.859 240.628 386.739 240.628H386.139C386.019 240.628 385.947 240.7 385.947 240.82L385.911 246.808C385.911 246.928 385.983 247 386.103 247H387.051C387.159 247 387.231 246.964 387.291 246.868L390.411 241.912L390.387 246.808C390.387 246.928 390.459 247 390.579 247H391.251ZM402.284 240.82C402.284 240.7 402.212 240.628 402.092 240.628H401.456C401.336 240.628 401.264 240.7 401.264 240.82L401.228 246.04H398.324L398.288 240.82C398.288 240.7 398.216 240.628 398.096 240.628H397.46C397.34 240.628 397.268 240.7 397.268 240.82L397.232 246.04H394.328L394.292 240.82C394.292 240.7 394.22 240.628 394.1 240.628H393.464C393.344 240.628 393.272 240.7 393.272 240.82L393.224 246.808C393.224 246.928 393.296 247 393.416 247H402.128C402.248 247 402.32 246.928 402.32 246.808L402.284 240.82ZM406.775 240.496C404.987 240.496 403.751 241.852 403.751 243.856C403.751 245.824 404.963 247.156 406.703 247.156C407.891 247.156 408.839 246.556 409.319 245.464C409.367 245.332 409.307 245.236 409.163 245.236H408.551C408.443 245.236 408.371 245.272 408.323 245.368C407.975 245.944 407.495 246.22 406.787 246.22C405.587 246.22 404.819 245.368 404.807 243.964H409.295C409.427 243.964 409.487 243.904 409.499 243.772C409.559 241.948 408.623 240.496 406.775 240.496ZM406.691 241.42C407.783 241.42 408.395 242.2 408.431 243.136H404.867C405.035 242.176 405.623 241.42 406.691 241.42ZM413.595 240.496C411.807 240.496 410.571 241.852 410.571 243.856C410.571 245.824 411.783 247.156 413.523 247.156C414.711 247.156 415.659 246.556 416.139 245.464C416.187 245.332 416.127 245.236 415.983 245.236H415.371C415.263 245.236 415.191 245.272 415.143 245.368C414.795 245.944 414.315 246.22 413.607 246.22C412.407 246.22 411.639 245.368 411.627 243.964H416.115C416.247 243.964 416.307 243.904 416.319 243.772C416.379 241.948 415.443 240.496 413.595 240.496ZM413.511 241.42C414.603 241.42 415.215 242.2 415.251 243.136H411.687C411.855 242.176 412.443 241.42 413.511 241.42ZM424.448 243.7C424.88 243.4 425.144 242.932 425.144 242.392C425.144 241.432 424.376 240.628 423.092 240.628H420.476C420.356 240.628 420.284 240.7 420.284 240.82L420.236 246.808C420.236 246.928 420.308 247 420.428 247H423.44C424.688 247 425.54 246.292 425.54 245.236C425.54 244.492 425.156 243.952 424.448 243.7ZM421.304 241.564H423.056C423.764 241.564 424.136 241.972 424.136 242.476C424.136 243.028 423.716 243.412 423.068 243.412H421.316L421.304 241.564ZM421.34 246.064L421.328 244.18H423.128C424.064 244.18 424.484 244.564 424.484 245.14C424.484 245.656 424.112 246.064 423.128 246.064H421.34ZM430.155 240.484C429.351 240.484 428.571 240.832 428.103 241.552H428.031L428.019 240.82C428.019 240.7 427.947 240.628 427.826 240.628H427.191C427.071 240.628 426.999 240.7 426.999 240.82L426.951 249.448C426.951 249.568 427.023 249.64 427.143 249.64H427.863C427.983 249.64 428.055 249.568 428.055 249.448L428.043 246.388H428.103C428.595 246.892 429.171 247.156 429.963 247.156C431.631 247.156 432.831 245.776 432.831 243.76C432.831 241.852 431.751 240.484 430.155 240.484ZM429.879 241.408C431.007 241.408 431.775 242.332 431.775 243.844C431.775 245.308 431.079 246.22 429.891 246.22C428.895 246.22 428.091 245.572 427.971 244.264V243.46C428.079 242.14 428.895 241.408 429.879 241.408ZM436.915 240.496C435.127 240.496 433.891 241.852 433.891 243.856C433.891 245.824 435.103 247.156 436.843 247.156C438.031 247.156 438.979 246.556 439.459 245.464C439.507 245.332 439.447 245.236 439.303 245.236H438.691C438.583 245.236 438.511 245.272 438.463 245.368C438.115 245.944 437.635 246.22 436.927 246.22C435.727 246.22 434.959 245.368 434.947 243.964H439.435C439.567 243.964 439.627 243.904 439.639 243.772C439.699 241.948 438.763 240.496 436.915 240.496ZM436.831 241.42C437.923 241.42 438.535 242.2 438.571 243.136H435.007C435.175 242.176 435.763 241.42 436.831 241.42ZM448.248 247C448.368 247 448.44 246.928 448.428 246.808L448.2 240.844C448.188 240.712 448.128 240.652 447.996 240.652H446.904C446.796 240.652 446.724 240.7 446.688 240.808L444.648 246.004L442.596 240.808C442.56 240.7 442.488 240.652 442.38 240.652H441.264C441.132 240.652 441.072 240.712 441.06 240.844L440.844 246.808C440.832 246.928 440.904 247 441.024 247H441.648C441.768 247 441.84 246.928 441.84 246.808L441.96 241.444L444.048 246.844C444.084 246.952 444.156 247 444.276 247H445.02C445.128 247 445.2 246.952 445.236 246.844L447.3 241.588L447.408 246.808C447.408 246.928 447.48 247 447.6 247H448.248ZM454.982 247C455.102 247 455.174 246.928 455.174 246.808L455.126 240.82C455.126 240.7 455.054 240.628 454.934 240.628H452.198C450.902 240.628 449.966 241.48 449.966 242.596C449.966 243.484 450.518 244.18 451.406 244.444L449.774 246.772C449.678 246.892 449.726 247 449.894 247H450.758C450.854 247 450.926 246.964 450.986 246.88L452.498 244.552H454.082L454.07 246.808C454.07 246.928 454.142 247 454.262 247H454.982ZM454.094 243.616H452.402C451.526 243.616 451.022 243.184 451.022 242.596C451.022 242.02 451.478 241.564 452.258 241.564H454.106L454.094 243.616Z" fill="black"/>
<circle cx="334" cy="178" r="19" fill="#BC090D"/>
<path d="M326.683 178.743L326.212 179.13L326.683 179.516L331.394 183.386L331.744 183.673L332.064 183.354L341.353 174.114L341.745 173.724L341.317 173.373L340.393 172.614L340.04 172.324L339.719 172.649L331.676 180.805L328.242 177.984L327.925 177.723L327.607 177.984L326.683 178.743Z" fill="white" stroke="white"/>
<path d="M172.081 398.738C172.081 463.76 119.235 516.475 54.0406 516.475C-11.1538 516.475 -64 463.76 -64 398.738C-64 333.715 -11.1538 281 54.0406 281C119.235 281 172.081 333.715 172.081 398.738Z" stroke="#E7EDFF" stroke-width="2"/>
<path d="M164.921 398.737C164.921 459.815 115.28 509.333 54.0405 509.333C-7.19945 509.333 -56.8398 459.815 -56.8398 398.737C-56.8398 337.66 -7.19945 288.142 54.0405 288.142C115.28 288.142 164.921 337.66 164.921 398.737Z" stroke="#E7EDFF" stroke-width="2"/>
<path d="M158.656 398.738C158.656 456.364 111.82 503.084 54.0408 503.084C-3.73888 503.084 -50.5742 456.364 -50.5742 398.738C-50.5742 341.111 -3.73888 294.392 54.0408 294.392C111.82 294.392 158.656 341.111 158.656 398.738Z" stroke="#E7EDFF" stroke-width="2"/>
<path d="M151.495 398.737C151.495 452.419 107.866 495.941 54.0406 495.941C0.215473 495.941 -43.4141 452.419 -43.4141 398.737C-43.4141 345.056 0.215473 301.534 54.0406 301.534C107.866 301.534 151.495 345.056 151.495 398.737Z" stroke="#E7EDFF" stroke-width="2"/>
<path d="M137.174 398.738C137.174 444.531 99.9563 481.658 54.0402 481.658C8.1242 481.658 -29.0938 444.531 -29.0938 398.738C-29.0938 352.945 8.1242 315.818 54.0402 315.818C99.9563 315.818 137.174 352.945 137.174 398.738Z" stroke="#E7EDFF" stroke-width="2"/>
<path d="M130.909 398.737C130.909 441.079 96.4964 475.408 54.0406 475.408C11.5848 475.408 -22.8281 441.079 -22.8281 398.737C-22.8281 356.396 11.5848 322.067 54.0406 322.067C96.4964 322.067 130.909 356.396 130.909 398.737Z" stroke="#E7EDFF" stroke-width="2"/>
<path d="M123.749 398.737C123.749 437.134 92.5416 468.266 54.0404 468.266C15.5391 468.266 -15.668 437.134 -15.668 398.737C-15.668 360.34 15.5391 329.209 54.0404 329.209C92.5416 329.209 123.749 360.34 123.749 398.737Z" stroke="#E7EDFF" stroke-width="2"/>
<path d="M116.588 398.737C116.588 433.19 88.5869 461.123 54.0402 461.123C19.4935 461.123 -8.50781 433.19 -8.50781 398.737C-8.50781 364.285 19.4935 336.351 54.0402 336.351C88.5869 336.351 116.588 364.285 116.588 398.737Z" stroke="#E7EDFF" stroke-width="2"/>
<path d="M110.323 398.737C110.323 429.739 85.127 454.874 54.0405 454.874C22.954 454.874 -2.24219 429.739 -2.24219 398.737C-2.24219 367.736 22.954 342.601 54.0405 342.601C85.127 342.601 110.323 367.736 110.323 398.737Z" stroke="#E7EDFF" stroke-width="2"/>
<path d="M103.163 398.737C103.163 425.794 81.1723 447.732 54.0403 447.732C26.9084 447.732 4.91797 425.794 4.91797 398.737C4.91797 371.681 26.9084 349.742 54.0403 349.742C81.1723 349.742 103.163 371.681 103.163 398.737Z" stroke="#E7EDFF" stroke-width="2"/>
<path d="M144.335 398.737C144.335 448.475 103.911 488.799 54.0404 488.799C4.16983 488.799 -36.2539 448.475 -36.2539 398.737C-36.2539 349 4.16983 308.675 54.0404 308.675C103.911 308.675 144.335 349 144.335 398.737Z" stroke="#E7EDFF" stroke-width="2"/>
<path d="M472.798 420.557C472.798 488.241 527.807 543.115 595.67 543.115C663.533 543.115 718.543 488.241 718.543 420.557C718.543 352.873 663.533 298 595.67 298C527.807 298 472.798 352.873 472.798 420.557Z" stroke="#E7EDFF" stroke-width="2"/>
<path d="M480.249 420.557C480.249 484.137 531.923 535.682 595.671 535.682C659.419 535.682 711.093 484.137 711.093 420.557C711.093 356.978 659.419 305.432 595.671 305.432C531.923 305.432 480.249 356.978 480.249 420.557Z" stroke="#E7EDFF" stroke-width="2"/>
<path d="M486.767 420.557C486.767 480.546 535.522 529.18 595.67 529.18C655.817 529.18 704.572 480.546 704.572 420.557C704.572 360.569 655.817 311.935 595.67 311.935C535.522 311.935 486.767 360.569 486.767 420.557Z" stroke="#E7EDFF" stroke-width="2"/>
<path d="M494.219 420.557C494.219 476.441 539.638 521.748 595.67 521.748C651.703 521.748 697.122 476.441 697.122 420.557C697.122 364.674 651.703 319.367 595.67 319.367C539.638 319.367 494.219 364.674 494.219 420.557Z" stroke="#E7EDFF" stroke-width="2"/>
<path d="M509.122 420.558C509.122 468.232 547.869 506.884 595.671 506.884C643.473 506.884 682.22 468.232 682.22 420.558C682.22 372.884 643.473 334.232 595.671 334.232C547.869 334.232 509.122 372.884 509.122 420.558Z" stroke="#E7EDFF" stroke-width="2"/>
<path d="M515.642 420.557C515.642 464.64 551.47 500.38 595.671 500.38C639.873 500.38 675.701 464.64 675.701 420.557C675.701 376.475 639.873 340.734 595.671 340.734C551.47 340.734 515.642 376.475 515.642 420.557Z" stroke="#E7EDFF" stroke-width="2"/>
<path d="M523.092 420.557C523.092 460.535 555.584 492.948 595.67 492.948C635.757 492.948 668.249 460.535 668.249 420.557C668.249 380.579 635.757 348.166 595.67 348.166C555.584 348.166 523.092 380.579 523.092 420.557Z" stroke="#E7EDFF" stroke-width="2"/>
<path d="M530.544 420.557C530.544 456.43 559.7 485.516 595.671 485.516C631.643 485.516 660.799 456.43 660.799 420.557C660.799 384.683 631.643 355.598 595.671 355.598C559.7 355.598 530.544 384.683 530.544 420.557Z" stroke="#E7EDFF" stroke-width="2"/>
<path d="M537.062 420.557C537.062 452.839 563.299 479.013 595.67 479.013C628.041 479.013 654.278 452.839 654.278 420.557C654.278 388.275 628.041 362.101 595.67 362.101C563.299 362.101 537.062 388.275 537.062 420.557Z" stroke="#E7EDFF" stroke-width="2"/>
<path d="M544.514 420.557C544.514 448.734 567.415 471.581 595.671 471.581C623.926 471.581 646.828 448.734 646.828 420.557C646.828 392.38 623.926 369.533 595.671 369.533C567.415 369.533 544.514 392.38 544.514 420.557Z" stroke="#E7EDFF" stroke-width="2"/>
<path d="M501.67 420.557C501.67 472.336 543.753 514.315 595.67 514.315C647.588 514.315 689.67 472.336 689.67 420.557C689.67 368.778 647.588 326.799 595.67 326.799C543.753 326.799 501.67 368.778 501.67 420.557Z" stroke="#E7EDFF" stroke-width="2"/>
<path d="M432.828 335.611L96.7989 437.5L502.155 432.145L432.828 335.611Z" fill="#1D1F31"/>
<rect width="28.7271" height="327.162" transform="matrix(-0.667423 0.744678 -0.746276 -0.665637 233.126 549.771)" fill="#1D1F31"/>
<path d="M266.281 421.347C266.281 459.094 237.519 489.694 202.04 489.694C166.561 489.694 137.799 459.094 137.799 421.347C137.799 383.6 166.561 353 202.04 353C237.519 353 266.281 383.6 266.281 421.347ZM193.754 421.347C193.754 426.216 197.464 430.163 202.04 430.163C206.616 430.163 210.326 426.216 210.326 421.347C210.326 416.478 206.616 412.532 202.04 412.532C197.464 412.532 193.754 416.478 193.754 421.347Z" fill="white"/>
<path d="M266.281 421.347C266.281 459.094 237.519 489.694 202.04 489.694C166.561 489.694 137.799 459.094 137.799 421.347C137.799 383.6 166.561 353 202.04 353C237.519 353 266.281 383.6 266.281 421.347ZM178.241 421.347C178.241 435.331 188.896 446.667 202.04 446.667C215.183 446.667 225.838 435.331 225.838 421.347C225.838 407.363 215.183 396.027 202.04 396.027C188.896 396.027 178.241 407.363 178.241 421.347Z" fill="#BC090D"/>
<circle cx="705.801" cy="394.999" r="91" fill="#BC090D"/>
<path d="M342.998 -40.4427C342.998 27.2414 398.007 82.1146 465.87 82.1146C533.734 82.1146 588.743 27.2414 588.743 -40.4427C588.743 -108.127 533.734 -163 465.87 -163C398.007 -163 342.998 -108.127 342.998 -40.4427Z" stroke="#E7EDFF" stroke-width="2"/>
<path d="M350.449 -40.4429C350.449 23.1367 402.123 74.6824 465.871 74.6824C529.619 74.6824 581.293 23.1367 581.293 -40.4429C581.293 -104.022 529.619 -155.568 465.871 -155.568C402.123 -155.568 350.449 -104.022 350.449 -40.4429Z" stroke="#E7EDFF" stroke-width="2"/>
<path d="M356.968 -40.4425C356.968 19.5455 405.722 68.1798 465.87 68.1798C526.017 68.1798 574.772 19.5455 574.772 -40.4425C574.772 -100.431 526.017 -149.065 465.87 -149.065C405.722 -149.065 356.968 -100.431 356.968 -40.4425Z" stroke="#E7EDFF" stroke-width="2"/>
<path d="M364.419 -40.4427C364.419 15.4407 409.838 60.7475 465.871 60.7475C521.903 60.7475 567.322 15.4407 567.322 -40.4427C567.322 -96.3262 521.903 -141.633 465.871 -141.633C409.838 -141.633 364.419 -96.3262 364.419 -40.4427Z" stroke="#E7EDFF" stroke-width="2"/>
<path d="M379.322 -40.4421C379.322 7.23218 418.069 45.8841 465.871 45.8841C513.673 45.8841 552.42 7.23218 552.42 -40.4421C552.42 -88.1163 513.673 -126.768 465.871 -126.768C418.069 -126.768 379.322 -88.1163 379.322 -40.4421Z" stroke="#E7EDFF" stroke-width="2"/>
<path d="M385.842 -40.4428C385.842 3.63994 421.67 39.3804 465.871 39.3804C510.073 39.3804 545.901 3.63994 545.901 -40.4428C545.901 -84.5255 510.073 -120.266 465.871 -120.266C421.67 -120.266 385.842 -84.5255 385.842 -40.4428Z" stroke="#E7EDFF" stroke-width="2"/>
<path d="M393.292 -40.443C393.292 -0.464828 425.784 31.9482 465.871 31.9482C505.957 31.9482 538.449 -0.464828 538.449 -40.443C538.449 -80.4211 505.957 -112.834 465.871 -112.834C425.784 -112.834 393.292 -80.4211 393.292 -40.443Z" stroke="#E7EDFF" stroke-width="2"/>
<path d="M400.744 -40.4431C400.744 -4.56955 429.9 24.5161 465.871 24.5161C501.843 24.5161 530.999 -4.56955 530.999 -40.4431C530.999 -76.3167 501.843 -105.402 465.871 -105.402C429.9 -105.402 400.744 -76.3167 400.744 -40.4431Z" stroke="#E7EDFF" stroke-width="2"/>
<path d="M407.262 -40.4428C407.262 -8.16071 433.499 18.0134 465.87 18.0134C498.241 18.0134 524.478 -8.16071 524.478 -40.4428C524.478 -72.7248 498.241 -98.8989 465.87 -98.8989C433.499 -98.8989 407.262 -72.7248 407.262 -40.4428Z" stroke="#E7EDFF" stroke-width="2"/>
<path d="M414.714 -40.443C414.714 -12.2655 437.615 10.5812 465.871 10.5812C494.126 10.5812 517.028 -12.2655 517.028 -40.443C517.028 -68.6204 494.126 -91.4671 465.871 -91.4671C437.615 -91.4671 414.714 -68.6204 414.714 -40.443Z" stroke="#E7EDFF" stroke-width="2"/>
<path d="M371.87 -40.4429C371.87 11.3359 413.953 53.3153 465.87 53.3153C517.788 53.3153 559.871 11.3359 559.871 -40.4429C559.871 -92.2218 517.788 -134.201 465.87 -134.201C413.953 -134.201 371.87 -92.2218 371.87 -40.4429Z" stroke="#E7EDFF" stroke-width="2"/>
<path d="M536.998 -8.47852L348.63 -70.0003L268.998 -8.47852L321.166 59.0456L536.998 -8.47852Z" fill="#BC090D"/>
<path d="M226.48 -6.65297C226.48 31.0941 197.719 61.6941 162.239 61.6941C126.76 61.6941 97.998 31.0941 97.998 -6.65297C97.998 -44.4 126.76 -75 162.239 -75C197.719 -75 226.48 -44.4 226.48 -6.65297ZM153.953 -6.65297C153.953 -1.7843 157.663 2.16253 162.239 2.16253C166.815 2.16253 170.525 -1.7843 170.525 -6.65297C170.525 -11.5216 166.815 -15.4685 162.239 -15.4685C157.663 -15.4685 153.953 -11.5216 153.953 -6.65297Z" fill="white"/>
<path d="M226.48 -6.65297C226.48 31.0941 197.719 61.6941 162.239 61.6941C126.76 61.6941 97.998 31.0941 97.998 -6.65297C97.998 -44.4 126.76 -75 162.239 -75C197.719 -75 226.48 -44.4 226.48 -6.65297ZM138.441 -6.65297C138.441 7.33066 149.096 18.6666 162.239 18.6666C175.383 18.6666 186.038 7.33066 186.038 -6.65297C186.038 -20.6366 175.383 -31.9726 162.239 -31.9726C149.096 -31.9726 138.441 -20.6366 138.441 -6.65297Z" fill="#1D1F31"/>
<path d="M-73.8021 142.891L-5.30169 -63.9987L50.6982 118.501L2.72362 202.013L-73.8021 142.891Z" fill="#BC090D"/>
<path d="M628.144 83.1401L743.896 -0.486557L711.033 251L628.144 83.1401Z" fill="#1D1F31"/>
</g>
<defs>
<clipPath id="clip0_819_1797">
<rect width="667" height="410" fill="white"/>
</clipPath>
</defs>
</svg>
