<svg width="400" height="332" viewBox="0 0 400 332" fill="none" xmlns="http://www.w3.org/2000/svg">
<g clip-path="url(#clip0_816_109728)">
<rect width="400" height="332" fill="white"/>
<path d="M400.426 -128.312L398.396 400.448L321.466 -167.342L400.426 -128.312Z" fill="#E7EDFF"/>
<path d="M300.437 -105.372L413.557 410.935L214.907 -125.963L300.437 -105.372Z" fill="#E7EDFF"/>
<path d="M206.61 -76.1156L422.759 405.609L118.709 -78.4914L206.61 -76.1156Z" fill="#E7EDFF"/>
<path d="M115.256 -20.7093L444.283 390.935L29.5746 -0.771626L115.256 -20.7093Z" fill="#E7EDFF"/>
<path d="M-35.9999 -2.99998L470.5 374.5L-218.454 0.500183L-35.9999 -2.99998Z" fill="#E7EDFF"/>
<path d="M-12.4605 161.756L493.086 301.656L-70.4121 228.462L-12.4605 161.756Z" fill="#E7EDFF"/>
<ellipse rx="156.04" ry="156.747" transform="matrix(0.999997 0.00257087 -0.00252419 0.999997 150.45 204.148)" fill="white"/>
<ellipse cx="322.643" cy="196.893" rx="125.698" ry="126.16" fill="#1D1F31"/>
<path d="M441.092 196.893C441.092 262.76 387.892 316.15 322.275 316.15C256.658 316.15 203.458 262.76 203.458 196.893C203.458 131.025 256.658 77.6348 322.275 77.6348C387.892 77.6348 441.092 131.025 441.092 196.893Z" stroke="white" stroke-width="2"/>
<path d="M433.885 196.892C433.885 258.765 383.912 308.917 322.275 308.917C260.638 308.917 210.665 258.765 210.665 196.892C210.665 135.02 260.638 84.8682 322.275 84.8682C383.912 84.8682 433.885 135.02 433.885 196.892Z" stroke="white" stroke-width="2"/>
<path d="M427.579 196.893C427.579 255.27 380.429 302.587 322.275 302.587C264.121 302.587 216.971 255.27 216.971 196.893C216.971 138.515 264.121 91.1978 322.275 91.1978C380.429 91.1978 427.579 138.515 427.579 196.893Z" stroke="white" stroke-width="2"/>
<path d="M420.372 196.893C420.372 251.275 376.449 295.354 322.275 295.354C268.101 295.354 224.178 251.275 224.178 196.893C224.178 142.51 268.101 98.4312 322.275 98.4312C376.449 98.4312 420.372 142.51 420.372 196.893Z" stroke="white" stroke-width="2"/>
<path d="M405.958 196.893C405.958 243.285 368.488 280.887 322.275 280.887C276.062 280.887 238.592 243.285 238.592 196.893C238.592 150.5 276.062 112.898 322.275 112.898C368.488 112.898 405.958 150.5 405.958 196.893Z" stroke="white" stroke-width="2"/>
<path d="M399.651 196.892C399.651 239.789 365.005 274.557 322.275 274.557C279.545 274.557 244.898 239.789 244.898 196.892C244.898 153.996 279.545 119.228 322.275 119.228C365.005 119.228 399.651 153.996 399.651 196.892Z" stroke="white" stroke-width="2"/>
<path d="M392.444 196.893C392.444 235.794 361.025 267.324 322.275 267.324C283.525 267.324 252.105 235.794 252.105 196.893C252.105 157.991 283.525 126.461 322.275 126.461C361.025 126.461 392.444 157.991 392.444 196.893Z" stroke="white" stroke-width="2"/>
<path d="M385.237 196.893C385.237 231.799 357.045 260.09 322.275 260.09C287.505 260.09 259.312 231.799 259.312 196.893C259.312 161.986 287.505 133.695 322.275 133.695C357.045 133.695 385.237 161.986 385.237 196.893Z" stroke="white" stroke-width="2"/>
<path d="M378.931 196.892C378.931 228.303 353.562 253.761 322.275 253.761C290.988 253.761 265.619 228.303 265.619 196.892C265.619 165.481 290.988 140.024 322.275 140.024C353.562 140.024 378.931 165.481 378.931 196.892Z" stroke="white" stroke-width="2"/>
<path d="M371.724 196.893C371.724 224.309 349.582 246.528 322.275 246.528C294.968 246.528 272.826 224.309 272.826 196.893C272.826 169.477 294.968 147.258 322.275 147.258C349.582 147.258 371.724 169.477 371.724 196.893Z" stroke="white" stroke-width="2"/>
<path d="M413.165 196.892C413.165 247.279 372.469 288.12 322.275 288.12C272.081 288.12 231.385 247.279 231.385 196.892C231.385 146.505 272.081 105.665 322.275 105.665C372.469 105.665 413.165 146.505 413.165 196.892Z" stroke="white" stroke-width="2"/>
<path d="M41.5063 284.797L-90.3726 279.252L-116.823 319.683L-288.778 335L-21.714 379.962H455.14L419.286 319.683V298.883L401.874 297.303L419.286 285.916V264.524L401.874 263.339L41.5063 284.797Z" fill="#BC090D"/>
<path d="M335.765 228.293C335.765 228.307 339.477 231.629 339.477 231.629C339.477 231.815 339.345 240.967 339.345 240.967L303.021 241.768L303.154 309.005L306.468 307.538L312.169 308.071L305.408 312.073V319.731C305.408 319.824 305.514 319.878 305.58 319.824L312.566 315.275V308.605L402.844 263.113V188.138L335.368 142.112C335.341 142.085 335.765 228.293 335.765 228.293Z" fill="#E7EDFF" stroke="#1D1F31" stroke-width="2" stroke-miterlimit="10"/>
<path d="M229.579 188.671L230.374 190.272L230.241 231.895L268.818 229.761L268.155 201.612L269.879 201.078L269.746 184.669L271.072 183.068V180.133L229.181 164.124C229.022 164.071 229.579 188.671 229.579 188.671Z" fill="#E7EDFF" stroke="#1D1F31" stroke-width="2" stroke-miterlimit="10"/>
<path d="M229.048 164.124L40.1406 221.223V222.823H40.8035L40.6709 283.524L131.877 290.995V298.466L157.33 301.401V300.2L279.556 314.608L282.473 313.541L172.31 300.067V298.199L282.34 309.539L293.608 305.67V308.471L287.51 311.006V318.077L305.155 319.918C305.287 319.931 305.407 319.824 305.407 319.678V312.06L312.167 308.058L306.467 307.524L303.286 308.992C303.246 309.005 303.153 308.938 303.153 308.898L303.02 241.754L339.344 240.954L339.476 231.615L335.764 228.28L335.632 142.192C335.632 142.072 335.526 141.992 335.406 142.018L239.256 167.593L271.072 180.133V183.068L269.746 184.669L269.879 201.078L268.155 201.612V229.761L230.109 231.895L230.374 190.272L229.578 188.804L229.313 164.391C229.313 164.217 229.207 164.071 229.048 164.124Z" fill="white" stroke="#1D1F31" stroke-width="2" stroke-miterlimit="10"/>
<path d="M293.342 242.034L293.608 303.669L228.915 298.066V244.702L293.342 242.034Z" fill="#E7EDFF" stroke="#1D1F31" stroke-width="2" stroke-miterlimit="10"/>
<path d="M230.11 231.896L137.976 238.433L126.442 242.702L129.359 242.435V248.972L228.916 244.703" stroke="#1D1F31" stroke-width="2" stroke-miterlimit="10"/>
<path d="M157.198 299.8V302.334L280.087 319.544L287.511 316.209V311.006L293.609 308.471V305.67L282.738 309.405L172.31 298.199V300.066L282.473 313.541L279.557 314.608L157.198 299.8Z" fill="#E7EDFF" stroke="#1D1F31" stroke-width="2" stroke-miterlimit="10"/>
<path d="M191.425 162.35L211.443 169.007L191.133 175.144V162.563C191.133 162.417 191.279 162.31 191.425 162.35Z" fill="#E7EDFF" stroke="#1D1F31" stroke-width="2" stroke-miterlimit="10"/>
<path d="M190.922 162.337L94.0957 196.809V204.493L191.135 175.064V162.483C191.135 162.377 191.028 162.297 190.922 162.337Z" fill="white" stroke="#1D1F31" stroke-width="2" stroke-miterlimit="10"/>
<path d="M228.915 282.057L131.081 277.921V274.586L228.915 278.321V282.057Z" stroke="#1D1F31" stroke-width="2" stroke-miterlimit="10"/>
<path d="M171.78 298.065H228.917" stroke="#1D1F31" stroke-width="2" stroke-miterlimit="10"/>
<path d="M157.198 299.8L172.31 300.064" stroke="#1D1F31" stroke-width="2" stroke-miterlimit="10"/>
<path d="M133.468 248.971V274.679" stroke="#1D1F31" stroke-width="2" stroke-miterlimit="10"/>
<path d="M223.427 244.942V278.108" stroke="#1D1F31" stroke-width="2" stroke-miterlimit="10"/>
<path d="M269.944 201.145L229.578 188.805L67.9126 225.559H69.636L230.373 190.272L268.221 201.679L239.123 192.94L239.255 229.627L268.645 229.868L303.51 228.133L336.029 228.293" stroke="#1D1F31" stroke-width="2" stroke-miterlimit="10"/>
<path d="M40.2065 222.357L228.942 167.5L270.873 183.135" stroke="#1D1F31" stroke-width="2" stroke-miterlimit="10"/>
<path d="M306.135 307.338V241.421" stroke="#1D1F31" stroke-width="2" stroke-miterlimit="10"/>
<path d="M137.975 238.432V226.826L303.948 210.55V228.16L310.576 231.495V241.634" stroke="#1D1F31" stroke-width="2" stroke-miterlimit="10"/>
<path d="M339.211 231.628L310.577 231.495L129.358 242.568" stroke="#1D1F31" stroke-width="2" stroke-miterlimit="10"/>
<path d="M174.814 247.024V276.254" stroke="#1D1F31" stroke-width="2" stroke-miterlimit="10"/>
<path d="M136.384 248.665V274.786" stroke="#1D1F31" stroke-width="2" stroke-miterlimit="10"/>
<path d="M154.135 247.904V275.466" stroke="#1D1F31" stroke-width="2" stroke-miterlimit="10"/>
<path d="M198.597 245.996V277.16" stroke="#1D1F31" stroke-width="2" stroke-miterlimit="10"/>
<path d="M69.8359 225.558L69.9022 245.169L82.2309 244.236V222.797L69.8359 225.558Z" stroke="#1D1F31" stroke-width="2" stroke-miterlimit="10"/>
<path d="M85.5449 222.09V243.969L100.79 242.635V218.755L85.5449 222.09Z" stroke="#1D1F31" stroke-width="2" stroke-miterlimit="10"/>
<path d="M104.715 217.848L104.768 242.234L122.664 240.9V213.952L104.715 217.848Z" stroke="#1D1F31" stroke-width="2" stroke-miterlimit="10"/>
<path d="M126.999 212.951L126.973 240.7L133.76 239.993" stroke="#1D1F31" stroke-width="2" stroke-miterlimit="10"/>
<path d="M149.668 207.976V237.565" stroke="#1D1F31" stroke-width="2" stroke-miterlimit="10"/>
<path d="M168.451 203.839V236.177" stroke="#1D1F31" stroke-width="2" stroke-miterlimit="10"/>
<path d="M204.921 195.835V233.469" stroke="#1D1F31" stroke-width="2" stroke-miterlimit="10"/>
<path d="M293.608 305.67V303.669" stroke="#1D1F31" stroke-width="2" stroke-miterlimit="10"/>
<path d="M293.608 308.472L303.285 309.005" stroke="#1D1F31" stroke-width="2" stroke-miterlimit="10"/>
<path d="M287.774 311.139L305.406 312.073" stroke="#1D1F31" stroke-width="2" stroke-miterlimit="10"/>
<path d="M293.344 242.032L303.021 241.768" stroke="#1D1F31" stroke-width="2" stroke-miterlimit="10"/>
<path d="M250.059 171.848L335.644 151.45" stroke="#1D1F31" stroke-width="2" stroke-miterlimit="10"/>
<path d="M263.29 177.064L335.645 161.149" stroke="#1D1F31" stroke-width="2" stroke-miterlimit="10"/>
<path d="M336.03 241.034V296.785" stroke="#1D1F31" stroke-width="2" stroke-miterlimit="10"/>
<path d="M238.302 298.879L238.328 253.507L256.357 253.24L256.888 300.493" stroke="#1D1F31" stroke-width="2" stroke-miterlimit="10"/>
<path d="M266.658 301.334L266.433 252.841L286.052 252.44V303.135" stroke="#1D1F31" stroke-width="2" stroke-miterlimit="10"/>
<path d="M182.133 200.838V235.351" stroke="#1D1F31" stroke-width="2" stroke-miterlimit="10"/>
<path d="M190.073 199.09V234.804" stroke="#1D1F31" stroke-width="2" stroke-miterlimit="10"/>
<path d="M168.451 216.94L182.132 214.953" stroke="#1D1F31" stroke-width="2" stroke-miterlimit="10"/>
<path d="M190.073 214.086L204.92 212.084" stroke="#1D1F31" stroke-width="2" stroke-miterlimit="10"/>
<path d="M242.624 194.101L242.571 229.627" stroke="#1D1F31" stroke-width="2" stroke-miterlimit="10"/>
<path d="M246.017 194.981V229.627" stroke="#1D1F31" stroke-width="2" stroke-miterlimit="10"/>
<path d="M249.291 196.075L249.465 229.627" stroke="#1D1F31" stroke-width="2" stroke-miterlimit="10"/>
<path d="M252.407 196.996L252.513 229.761" stroke="#1D1F31" stroke-width="2" stroke-miterlimit="10"/>
<path d="M255.19 197.823L255.427 229.627" stroke="#1D1F31" stroke-width="2" stroke-miterlimit="10"/>
<path d="M257.684 198.557L257.947 229.761" stroke="#1D1F31" stroke-width="2" stroke-miterlimit="10"/>
<path d="M260.333 199.304L260.557 229.387" stroke="#1D1F31" stroke-width="2" stroke-miterlimit="10"/>
<path d="M262.892 200.291L262.853 229.627" stroke="#1D1F31" stroke-width="2" stroke-miterlimit="10"/>
<path d="M265.702 200.812V229.668" stroke="#1D1F31" stroke-width="2" stroke-miterlimit="10"/>
<path d="M239.096 197.209L268.022 204.68" stroke="#1D1F31" stroke-width="2" stroke-miterlimit="10"/>
<path d="M239.096 201.251L268.155 207.482" stroke="#1D1F31" stroke-width="2" stroke-miterlimit="10"/>
<path d="M239.109 205.44L268.022 210.55" stroke="#1D1F31" stroke-width="2" stroke-miterlimit="10"/>
<path d="M239.109 209.896L268.155 213.712" stroke="#1D1F31" stroke-width="2" stroke-miterlimit="10"/>
<path d="M239.096 213.979L268.155 217.22" stroke="#1D1F31" stroke-width="2" stroke-miterlimit="10"/>
<path d="M239.109 217.62L268.022 220.288" stroke="#1D1F31" stroke-width="2" stroke-miterlimit="10"/>
<path d="M239.083 221.489L267.89 223.223" stroke="#1D1F31" stroke-width="2" stroke-miterlimit="10"/>
<path d="M239.083 225.491L267.89 226.292" stroke="#1D1F31" stroke-width="2" stroke-miterlimit="10"/>
<path d="M57.5067 218.154L57.4404 284.898" stroke="#1D1F31" stroke-width="2" stroke-miterlimit="10"/>
<path d="M133.759 211.47L133.732 239.633" stroke="#1D1F31" stroke-width="2" stroke-miterlimit="10"/>
<path d="M141.381 209.79V238.192" stroke="#1D1F31" stroke-width="2" stroke-miterlimit="10"/>
<path d="M133.759 223.998L141.421 222.957" stroke="#1D1F31" stroke-width="2" stroke-miterlimit="10"/>
<path d="M109.765 216.874L109.739 241.634" stroke="#1D1F31" stroke-width="2" stroke-miterlimit="10"/>
<path d="M116.472 215.393L116.433 241.234" stroke="#1D1F31" stroke-width="2" stroke-miterlimit="10"/>
<path d="M109.765 227.879L116.5 226.972" stroke="#1D1F31" stroke-width="2" stroke-miterlimit="10"/>
<path d="M90.0776 221.316V243.742" stroke="#1D1F31" stroke-width="2" stroke-miterlimit="10"/>
<path d="M95.3809 219.941V243.101" stroke="#1D1F31" stroke-width="2" stroke-miterlimit="10"/>
<path d="M90.0513 230.761L95.3804 229.867" stroke="#1D1F31" stroke-width="2" stroke-miterlimit="10"/>
<path d="M77.7241 223.557V244.582" stroke="#1D1F31" stroke-width="2" stroke-miterlimit="10"/>
<path d="M73.2422 224.798V244.916" stroke="#1D1F31" stroke-width="2" stroke-miterlimit="10"/>
<path d="M73.2422 233.723L77.7229 233.056" stroke="#1D1F31" stroke-width="2" stroke-miterlimit="10"/>
<path d="M267.889 252.813L268.218 301.441" stroke="#1D1F31" stroke-width="2" stroke-miterlimit="10"/>
<path d="M239.653 253.494V298.999" stroke="#1D1F31" stroke-width="2" stroke-miterlimit="10"/>
<path d="M353.395 164.258V207.482L346.236 205.214V159.055L353.395 164.258Z" stroke="#1D1F31" stroke-width="2" stroke-miterlimit="10"/>
<path d="M345.84 228.16H353.25V271.784L345.84 274.319V228.16Z" stroke="#1D1F31" stroke-width="2" stroke-miterlimit="10"/>
<path d="M63.208 257.51L133.468 254.081V256.309L63.208 258.577V257.51Z" stroke="#1D1F31" stroke-width="2" stroke-miterlimit="10"/>
<path d="M63.208 275.919L131.745 279.255" stroke="#1D1F31" stroke-width="2" stroke-miterlimit="10"/>
<path d="M131.877 290.995V277.961" stroke="#1D1F31" stroke-width="2" stroke-miterlimit="10"/>
<path d="M69.8359 258.363V273.118L82.2972 273.518V257.963" stroke="#1D1F31" stroke-width="2" stroke-miterlimit="10"/>
<path d="M85.5448 257.856L85.4785 273.519L100.724 273.919L100.79 257.363" stroke="#1D1F31" stroke-width="2" stroke-miterlimit="10"/>
<path d="M104.713 257.243L104.7 273.919L122.596 274.586L122.662 256.656" stroke="#1D1F31" stroke-width="2" stroke-miterlimit="10"/>
<path d="M126.973 256.522V274.719L131.082 274.893" stroke="#1D1F31" stroke-width="2" stroke-miterlimit="10"/>
<path d="M69.8359 268.982H82.2972" stroke="#1D1F31" stroke-width="2" stroke-miterlimit="10"/>
<path d="M85.4917 268.982H100.79" stroke="#1D1F31" stroke-width="2" stroke-miterlimit="10"/>
<path d="M104.7 268.982H122.662" stroke="#1D1F31" stroke-width="2" stroke-miterlimit="10"/>
<path d="M126.973 268.982C126.973 269.115 133.468 268.982 133.468 268.982" stroke="#1D1F31" stroke-width="2" stroke-miterlimit="10"/>
<path d="M137.975 234.39L303.948 223.224L335.751 223.49" stroke="#1D1F31" stroke-width="2" stroke-miterlimit="10"/>
<path d="M137.975 231.896L303.948 218.755L335.645 219.555" stroke="#1D1F31" stroke-width="2" stroke-miterlimit="10"/>
<path d="M137.777 229.254L303.949 214.165L335.646 215.392" stroke="#1D1F31" stroke-width="2" stroke-miterlimit="10"/>
<path d="M303.948 210.55L335.685 211.871" stroke="#1D1F31" stroke-width="2" stroke-miterlimit="10"/>
<path d="M90.4517 187.812L71.4501 157.994L64.268 162.631L60.7888 157.171L61.9993 156.291C63.6933 154.934 64.7776 153.443 65.252 151.82C65.7265 150.196 65.7344 148.149 65.2757 145.679L73.7827 140.187L100.144 181.554L90.4517 187.812ZM116.658 172.078C112.8 174.569 109.342 175.681 106.286 175.415C103.23 175.149 100.601 173.29 98.4006 169.837L96.0812 166.197L105.704 159.984L108.737 164.744C109.421 165.817 110.097 166.467 110.767 166.693C111.406 166.873 112.098 166.723 112.842 166.243C113.585 165.763 113.995 165.169 114.069 164.462C114.16 163.679 113.879 162.774 113.225 161.747L107.069 152.088C107.043 153.488 106.536 154.803 105.549 156.034C104.608 157.234 103.509 158.239 102.254 159.05C100.72 160.04 99.1705 160.646 97.605 160.866C96.0098 161.04 94.4175 160.652 92.8281 159.702C91.2387 158.752 89.6709 157.064 88.1246 154.638L83.7979 147.848C82.3706 145.608 81.6925 143.412 81.7636 141.258C81.805 139.058 82.5027 136.961 83.8566 134.967C85.1808 132.926 87.0747 131.111 89.5385 129.52C92.0488 127.899 94.4548 126.939 96.7565 126.638C99.075 126.261 101.249 126.635 103.279 127.762C105.279 128.841 107.127 130.711 108.822 133.371L122.203 154.37C124.374 157.776 124.888 161.001 123.743 164.045C122.646 167.059 120.284 169.737 116.658 172.078ZM102.716 150.354C103.321 149.964 103.728 149.47 103.938 148.873C104.165 148.2 104.153 147.615 103.902 147.118L97.3454 136.829C96.6615 135.756 95.9384 135.136 95.1762 134.969C94.3842 134.756 93.6396 134.875 92.9423 135.325C92.245 135.775 91.8126 136.384 91.6451 137.15C91.4776 137.917 91.7507 138.86 92.4644 139.98L98.5306 149.5C99.1848 150.526 99.9182 151.008 100.731 150.944C101.513 150.834 102.175 150.637 102.716 150.354ZM143.21 154.342C140.467 156.112 137.952 157.21 135.663 157.634C133.345 158.011 131.245 157.753 129.363 156.86C127.499 155.89 125.883 154.332 124.515 152.186L121.303 147.146L130.996 140.888L132.334 142.988C133.642 145.041 134.786 146.476 135.766 147.293C136.745 148.109 137.746 148.187 138.769 147.527C139.652 146.957 139.989 146.147 139.779 145.097C139.616 144.017 139.118 142.823 138.285 141.517L135.698 137.457C134.866 136.15 133.836 135.564 132.609 135.697C131.428 135.801 129.893 136.43 128.004 137.584L125.006 139.52L121.705 134.34L124.773 132.359C125.61 131.819 126.309 131.268 126.87 130.708C127.449 130.071 127.843 129.455 128.053 128.858C128.449 128.141 128.592 127.489 128.48 126.903C128.415 126.286 128.205 125.698 127.848 125.138L125.93 122.128C125.157 120.914 124.316 120.008 123.409 119.408C122.549 118.778 121.677 118.748 120.793 119.319C119.724 120.009 119.377 120.958 119.753 122.164C120.128 123.371 120.94 124.954 122.189 126.914L123.036 128.244L113.344 134.502L110.623 130.232C108.542 126.966 107.965 123.847 108.893 120.877C109.868 117.876 112.401 115.055 116.492 112.414C120.908 109.563 124.545 108.268 127.402 108.531C130.23 108.747 132.64 110.418 134.633 113.545L136.952 117.185C138.439 119.518 139.039 121.798 138.752 124.025C138.512 126.222 137.251 128.156 134.969 129.826C137.307 128.449 139.526 128.07 141.626 128.69C143.744 129.233 145.561 130.694 147.077 133.074L149.129 136.294C150.675 138.72 151.506 140.95 151.621 142.984C151.706 144.97 151.065 146.899 149.698 148.77C148.348 150.563 146.185 152.421 143.21 154.342ZM164.471 140.022L145.469 110.204L138.287 114.841L134.808 109.381L136.018 108.501C137.712 107.144 138.797 105.653 139.271 104.03C139.746 102.406 139.754 100.359 139.295 97.889L147.802 92.3965L174.163 133.764L164.471 140.022Z" fill="black"/>
<path d="M41.0881 174.12C42.8226 172.553 44.6227 170.768 46.4884 168.764L46.7768 168.77C47.0314 169.458 47.2682 170.277 47.4874 171.226L47.369 171.547C45.3519 173.453 43.403 175.165 41.5226 176.684L43.9531 176.448L47.8097 175.917L48.0905 178.479L44.4364 178.757L35.8831 179.857L35.5981 177.257L41.2762 176.712L36.4072 173.783L35.155 173.214L34.8512 170.442L41.0881 174.12Z" fill="black"/>
<path d="M45.5443 152.94L50.0731 153.224L50.1196 155.141L47.5094 155.322L46.9992 163.119L49.3946 163.594L49.4387 165.55L44.7385 165.255L44.8047 164.245C44.574 163.681 44.2023 163.23 43.6895 162.892C43.1639 162.553 42.4063 162.256 41.4166 162.003C40.415 161.736 38.9877 161.455 37.1345 161.16L34.8482 160.768L35.2998 153.867L43.6637 154.525L45.4358 154.598L45.5443 152.94ZM45.2748 157.057L43.7373 156.903L37.09 156.582L36.9428 158.831L37.7371 158.958C39.8796 159.31 41.4986 159.679 42.5941 160.066C43.6779 160.441 44.4746 160.919 44.9843 161.499L45.2748 157.057Z" fill="black"/>
<path d="M49.2326 136.581L53.6306 137.69L53.331 139.566L50.7283 139.284L48.5159 147.99L45.001 146.965L36.6152 144.988L37.2601 142.45L45.3581 144.631L47.0861 145.027L48.1923 140.674L46.7096 140.241L38.3239 138.264L38.9688 135.726L47.0667 137.907L48.7995 138.285L49.2326 136.581Z" fill="black"/>
<path d="M51.1979 124.812C50.851 125.051 50.5126 125.189 50.1829 125.224C49.8419 125.254 49.4836 125.174 49.1084 124.987C48.2445 124.557 47.574 123.568 47.0969 122.02L48.0011 121.488L48.1888 121.539C48.4615 122.245 48.8307 122.713 49.2968 122.945C49.5698 123.082 49.8284 123.146 50.0729 123.14C50.3174 123.134 50.5761 123.042 50.849 122.865L51.0366 122.958C51.1615 123.619 51.2152 124.236 51.1979 124.812ZM52.6061 121.989C52.259 122.229 51.921 122.367 51.5911 122.402C51.25 122.431 50.8919 122.352 50.5167 122.165C49.6526 121.734 48.9823 120.746 48.5052 119.198L49.4094 118.666L49.597 118.716C49.8696 119.422 50.239 119.891 50.7051 120.123C50.9778 120.259 51.2369 120.324 51.4809 120.318C51.7253 120.311 51.9842 120.22 52.2572 120.042L52.445 120.136C52.5696 120.796 52.6235 121.414 52.6061 121.989Z" fill="black"/>
<path d="M67.4023 108.005L66.0665 109.87L62.9364 107.86L58.8409 105.462L58.7291 105.618L62.9319 112.021L61.7627 113.652L54.4985 111.523L54.3983 111.663L57.7583 114.661L60.8223 117.189L59.553 118.961L50.3068 110.797L52.0437 108.373L53.8036 109.025L59.6612 110.827L59.7614 110.687L56.231 105.637L55.0831 104.131L56.7868 101.753L67.4023 108.005Z" fill="black"/>
<path d="M67.1585 94.3087C68.2025 93.2989 69.2953 92.8165 70.4363 92.8619C71.5768 92.9074 72.6719 93.4744 73.7215 94.5629C74.8678 95.7521 75.447 96.9772 75.4589 98.2383C75.4715 99.4813 74.9141 100.648 73.7877 101.737C72.7531 102.738 71.6607 103.211 70.511 103.157C69.3521 103.093 68.2396 102.508 67.1726 101.401C66.0438 100.23 65.4779 99.0277 65.4745 97.7938C65.4706 96.5601 66.0321 95.3983 67.1585 94.3087ZM68.3566 95.8545C67.7889 96.4037 67.5309 96.9535 67.5835 97.5037C67.6364 98.0358 68.0246 98.6769 68.7472 99.4272C69.3292 100.031 69.8383 100.458 70.2738 100.708C70.7101 100.94 71.113 101.019 71.483 100.944C71.8625 100.86 72.2489 100.627 72.6427 100.246C73.2199 99.6882 73.482 99.143 73.4291 98.6109C73.3852 98.0699 72.9973 97.4197 72.2655 96.6604C71.6835 96.0567 71.1746 95.6387 70.7388 95.4064C70.2938 95.1651 69.8863 95.082 69.5163 95.1571C69.1458 95.2323 68.7594 95.4647 68.3566 95.8545Z" fill="black"/>
<path d="M78.675 84.795C79.4496 84.2361 80.2692 83.8486 81.1332 83.6326L81.9705 85.5203L81.8712 85.7095C81.5148 85.7158 81.1435 85.7879 80.7565 85.926C80.3696 86.0641 80.0161 86.2487 79.696 86.4798C79.0656 86.9344 78.7291 87.4594 78.686 88.0547C78.6356 88.6396 78.8917 89.3245 79.4552 90.1092C80.6777 91.8129 81.9452 92.1914 83.2569 91.2449C83.5672 91.0212 83.8576 90.749 84.1286 90.4279C84.4002 90.1067 84.6181 89.777 84.7829 89.4387L85.0199 89.4087L86.0325 91.1466C85.6009 91.8341 85.0233 92.4388 84.3003 92.9605C83.0296 93.8773 81.8193 94.2334 80.6693 94.0289C79.5188 93.8245 78.4843 93.082 77.5655 91.8017C76.6315 90.5008 76.2602 89.2407 76.4516 88.0213C76.6424 86.8022 77.3836 85.7268 78.675 84.795Z" fill="black"/>
<path d="M92.5149 81.8619C94.2583 82.6975 96.0805 83.463 97.9804 84.1587L98.0621 84.439C97.396 85.0336 96.7593 85.5194 96.1515 85.8965L95.8191 85.9205C93.933 85.0308 92.1798 84.1356 90.5601 83.2349L91.312 84.7573L92.8265 87.4515L90.697 88.5718L89.4571 85.9916L86.2389 80.0345L88.4026 78.8964L90.3306 82.7954L91.101 78.5761L91.1748 77.4382L93.4986 76.1943L92.5149 81.8619Z" fill="black"/>
<path d="M103.005 72.2945C104.375 71.8187 105.568 71.8423 106.582 72.3656C107.595 72.8889 108.349 73.8662 108.84 75.2979C109.377 76.8619 109.386 78.2189 108.866 79.3688C108.354 80.5028 107.358 81.3263 105.88 81.8396C104.521 82.3114 103.333 82.2796 102.314 81.7443C101.292 81.1971 100.531 80.1956 100.031 78.7399C99.5019 77.2 99.4955 75.8692 100.012 74.7474C100.528 73.6256 101.526 72.808 103.005 72.2945ZM103.439 74.2041C102.693 74.4628 102.229 74.8531 102.044 75.3748C101.868 75.8804 101.949 76.6265 102.288 77.613C102.561 78.4069 102.842 79.0096 103.131 79.4209C103.428 79.8159 103.76 80.0575 104.127 80.1457C104.506 80.2296 104.954 80.1818 105.47 80.0023C106.228 79.7395 106.695 79.3552 106.871 78.8497C107.059 78.34 106.982 77.5858 106.639 76.5873C106.366 75.7932 106.081 75.1987 105.784 74.8036C105.483 74.3966 105.149 74.1489 104.782 74.0609C104.415 73.9727 103.967 74.0205 103.439 74.2041Z" fill="black"/>
<path d="M119.82 72.9509C120.513 72.9882 121.049 73.1588 121.429 73.4625C121.819 73.7514 122.069 74.1899 122.178 74.778C122.355 75.7289 122.091 76.5041 121.387 77.1036C120.684 77.703 119.557 78.1493 118.007 78.4425C117.32 78.5725 116.346 78.7308 115.087 78.9172L114.658 76.0841L113.326 69.4389L117.128 68.7002C118.178 68.5015 119.035 68.5531 119.7 68.8548C120.376 69.1543 120.787 69.6918 120.931 70.4677C121.024 70.9682 120.974 71.431 120.781 71.8559C120.589 72.2809 120.268 72.6459 119.82 72.9509ZM118.534 71.2513C118.462 70.8634 118.275 70.6204 117.972 70.5223C117.682 70.4218 117.199 70.4354 116.524 70.563L115.943 70.673L116.32 72.9136L117.696 72.6922C118.042 72.5362 118.285 72.3476 118.425 72.1269C118.563 71.8936 118.599 71.6017 118.534 71.2513ZM118.112 76.7129C118.713 76.5992 119.15 76.4128 119.426 76.1535C119.711 75.8794 119.815 75.5359 119.738 75.1229C119.683 74.8225 119.532 74.605 119.287 74.4701C119.042 74.335 118.692 74.2589 118.236 74.2415L116.612 74.5877L116.753 75.4545L117.052 76.8551C117.459 76.817 117.813 76.7696 118.112 76.7129Z" fill="black"/>
<path d="M131.059 67.0282C132.012 66.9816 132.908 67.1036 133.749 67.3937L133.422 69.4366L133.236 69.5413C132.935 69.3521 132.585 69.2099 132.186 69.1146C131.787 69.0194 131.391 68.9815 130.997 69.0008C130.222 69.0386 129.655 69.2959 129.295 69.7723C128.934 70.2362 128.776 70.9515 128.82 71.918C128.917 74.0166 129.772 75.0265 131.384 74.9477C131.765 74.9289 132.156 74.8589 132.558 74.7372C132.96 74.6156 133.322 74.4577 133.644 74.2634L133.859 74.3676L133.76 76.3802C133.025 76.7221 132.213 76.9148 131.324 76.9583C129.761 77.0348 128.555 76.673 127.703 75.8735C126.852 75.0737 126.391 73.8853 126.318 72.3082C126.245 70.7055 126.62 69.4443 127.443 68.5245C128.266 67.6047 129.472 67.1058 131.059 67.0282Z" fill="black"/>
<path d="M144.237 72.12C145.242 73.7735 146.349 75.4113 147.561 77.0331L147.477 77.3131C146.596 77.449 145.799 77.5093 145.085 77.4944L144.794 77.333C143.699 75.5559 142.719 73.847 141.854 72.2062L141.655 73.8953L141.456 76.9855L139.064 76.7638L139.431 73.9196L139.979 67.1586L142.409 67.3839L141.901 71.7117L144.842 68.5878L145.522 67.6724L148.144 67.896L144.237 72.12Z" fill="black"/>
<path d="M152.651 75.5503L154.215 68.9868L156.631 69.4635L154.951 75.3272L155.118 75.3693L160.325 70.4821L162.818 71.1166L161.075 77.4572L160.38 80.4754L158.034 79.8784L158.857 77.1295L159.663 74.0609L159.497 74.0186L154.267 78.9196L151.828 78.2993L152.651 75.5503Z" fill="black"/>
<path d="M177.875 73.5819C177.406 74.0157 176.843 74.2689 176.186 74.3414C175.54 74.419 174.875 74.3066 174.189 74.0043C173.515 73.707 172.998 73.3051 172.639 72.7985C172.279 72.2918 172.095 71.7024 172.087 71.0301L173.61 70.7407L173.854 70.8483C173.82 71.3345 173.875 71.7138 174.018 71.9861C174.173 72.2634 174.455 72.4917 174.861 72.6711C175.256 72.8454 175.595 72.897 175.876 72.826C176.174 72.7485 176.494 72.5275 176.836 72.1628L177.062 72.2627L177.875 73.5819ZM167.001 79.7143L169.623 73.4954L171.926 74.3645L169.305 79.8732L169.462 79.9423L175.4 75.9798L177.753 77.017L174.991 82.9865L173.81 85.8498L171.595 84.8734L172.859 82.2969L174.158 79.402L174.001 79.3329L168.039 83.3056L165.737 82.2908L167.001 79.7143Z" fill="black"/>
<path d="M184.65 80.7495C184.856 81.1166 184.957 81.4715 184.955 81.8142C184.958 82.1467 184.85 82.491 184.629 82.8491C184.12 83.6731 183.073 84.2546 181.49 84.5943L181.046 83.6455L181.114 83.4629C181.841 83.2529 182.342 82.9258 182.616 82.4813C182.777 82.2209 182.866 81.969 182.882 81.7243C182.899 81.4801 182.832 81.2141 182.682 80.9261L182.792 80.7468C183.46 80.6804 184.08 80.6811 184.65 80.7495ZM187.226 82.3421C187.433 82.7097 187.534 83.0646 187.532 83.4073C187.536 83.7391 187.427 84.0841 187.206 84.4422C186.697 85.2661 185.65 85.8477 184.067 86.1874L183.623 85.2386L183.691 85.056C184.418 84.846 184.919 84.5189 185.193 84.0744C185.354 83.814 185.443 83.5621 185.459 83.3174C185.476 83.0732 185.409 82.8066 185.258 82.5187L185.369 82.3399C186.037 82.2735 186.656 82.2742 187.226 82.3421Z" fill="black"/>
</g>
<defs>
<clipPath id="clip0_816_109728">
<rect width="400" height="332" fill="white"/>
</clipPath>
</defs>
</svg>
