<svg width="38" height="39" viewBox="0 0 38 39" fill="none" xmlns="http://www.w3.org/2000/svg">
<path d="M19.2799 37.7144C29.2493 37.7144 37.3264 29.589 37.3264 19.5716C37.3264 9.55413 29.2493 1.42871 19.2799 1.42871C9.31051 1.42871 1.2334 9.55413 1.2334 19.5716C1.2334 29.589 9.31051 37.7144 19.2799 37.7144Z" fill="#1D1F31" stroke="#1D1F31"/>
<path d="M22.2773 20.374L20.6696 21.996C20.0176 22.6539 18.8705 22.668 18.2044 21.996L16.5967 20.374L10.8223 26.199C11.0372 26.2989 11.2742 26.3586 11.5261 26.3586H27.3478C27.5998 26.3586 27.8367 26.299 28.0516 26.199L22.2773 20.374Z" fill="white"/>
<path d="M27.3478 12.7861H11.5261C11.2741 12.7861 11.0371 12.8458 10.8223 12.9457L16.9926 19.1705C16.993 19.171 16.9935 19.171 16.9939 19.1714C16.9943 19.1719 16.9944 19.1724 16.9944 19.1724L19.0007 21.1964C19.2138 21.4107 19.6601 21.4107 19.8732 21.1964L21.8791 19.1728C21.8791 19.1728 21.8796 19.1719 21.88 19.1714C21.88 19.1714 21.8809 19.171 21.8813 19.1705L28.0515 12.9457C27.8366 12.8457 27.5997 12.7861 27.3478 12.7861Z" fill="white"/>
<path d="M10.0237 13.7373C9.91247 13.9634 9.84424 14.2144 9.84424 14.4833V24.6618C9.84424 24.9306 9.9124 25.1816 10.0236 25.4077L15.808 19.5727L10.0237 13.7373Z" fill="white"/>
<path d="M28.8551 13.7363L23.0708 19.5718L28.8551 25.4069C28.9663 25.1808 29.0346 24.9298 29.0346 24.6609V14.4824C29.0346 14.2134 28.9663 13.9624 28.8551 13.7363Z" fill="white"/>
</svg>
