<svg width="21" height="14" viewBox="0 0 21 14" fill="none" xmlns="http://www.w3.org/2000/svg">
<path d="M20.7267 6.97238C20.6806 6.90895 19.5736 5.40071 17.7773 3.8759C15.7147 2.12525 13.1931 0.740234 10.4999 0.740234C7.80582 0.740234 5.28427 2.12565 3.22251 3.8759C1.4262 5.40071 0.319158 6.90895 0.273099 6.97238C0.117951 7.1849 0.117951 7.47338 0.273099 7.6859C0.319158 7.74973 1.4262 9.25757 3.22251 10.7828C5.28508 12.5334 7.80662 13.918 10.4999 13.918C13.1939 13.918 15.7155 12.5326 17.7773 10.7828C19.5736 9.25757 20.6806 7.74973 20.7267 7.6859C20.8818 7.47338 20.8818 7.1849 20.7267 6.97238ZM10.4999 10.8705C8.54721 10.8705 6.95857 9.28181 6.95857 7.32914C6.95857 5.37647 8.54721 3.78823 10.4999 3.78823C12.4526 3.78823 14.0412 5.37647 14.0412 7.32914C14.0412 9.28181 12.4526 10.8705 10.4999 10.8705Z" fill="#FAFAF7"/>
<path d="M10.5289 5C9.24453 5 8.19971 6.04482 8.19971 7.32882C8.19971 8.61323 9.24453 9.65805 10.5289 9.65805C11.8133 9.65805 12.8582 8.61323 12.8582 7.32882C12.8582 6.04482 11.8133 5 10.5289 5Z" fill="#FAFAF7"/>
</svg>
