<svg width="36" height="37" viewBox="0 0 36 37" fill="none" xmlns="http://www.w3.org/2000/svg">
<ellipse cx="18" cy="18.0989" rx="18" ry="18.0989" fill="#1D1F31"/>
<path d="M11.7894 20.1322C12.4236 19.5543 13.2153 19.5543 13.8454 20.1322C14.326 20.5722 14.8067 21.0121 15.2793 21.4595C15.4085 21.5826 15.5176 21.6087 15.6751 21.5266C15.9861 21.37 16.3173 21.2433 16.6162 21.0718C18.0097 20.2627 19.177 19.2225 20.2111 18.0518C20.724 17.4702 21.1805 16.8476 21.4995 16.1466C21.5642 16.005 21.5521 15.9117 21.4268 15.7962C20.9462 15.3674 20.4776 14.9275 20.0051 14.4875C19.3467 13.8761 19.3467 13.1602 20.0091 12.5451C20.3847 12.1946 20.7604 11.8516 21.136 11.5011C21.5238 11.1432 21.9075 10.7816 22.2993 10.4274C22.9334 9.85693 23.7251 9.85693 24.3552 10.4311C24.8399 10.871 25.3044 11.3222 25.7972 11.7547C26.2536 12.1536 26.4839 12.642 26.5323 13.2124C26.6091 14.1408 26.3627 15.0169 26.0153 15.8707C25.3044 17.638 24.2219 19.2076 22.9092 20.6467C21.136 22.5929 19.0195 24.1327 16.5435 25.2438C15.4287 25.7434 14.2735 26.1274 13.0173 26.1908C12.153 26.2355 11.4017 26.0342 10.7999 25.4116C10.3879 24.9865 9.92336 24.5988 9.48713 24.1924C8.84087 23.5884 8.83683 22.8576 9.47906 22.2611C10.2465 21.549 11.018 20.8406 11.7894 20.1322Z" fill="white"/>
</svg>
