<svg width="40" height="40" viewBox="0 0 40 40" fill="none" xmlns="http://www.w3.org/2000/svg">
<rect x="38.5391" y="0.5" width="38.3232" height="37.1584" transform="rotate(90 38.5391 0.5)" fill="#1D1F31" stroke="#1D1F31"/>
<path d="M19.5 10C15.3645 10 12 13.4716 12 17.7388C12 23.0345 19.5 31 19.5 31C19.5 31 27 23.0345 27 17.7388C26.9999 13.4716 23.6355 10 19.5 10ZM19.5 21.6324C17.4193 21.6324 15.7266 19.8857 15.7266 17.7388C15.7266 15.5919 17.4194 13.8452 19.5 13.8452C21.5806 13.8452 23.2734 15.5919 23.2734 17.7388C23.2734 19.8858 21.5806 21.6324 19.5 21.6324Z" fill="white"/>
</svg>
