<svg width="24" height="21" viewBox="0 0 24 21" fill="none" xmlns="http://www.w3.org/2000/svg">
<path d="M6.88472 1.90317C6.2355 2.0511 5.61482 2.17684 5.0084 2.33956C4.05954 2.59843 3.12495 2.90168 2.31164 3.48599C1.58394 4.00374 1.58394 4.36616 2.31877 4.86912C3.09641 5.39426 3.96679 5.6901 4.85145 5.93418C7.61242 6.69601 10.4305 6.88831 13.2699 6.78476C15.132 6.71819 16.9798 6.5111 18.7919 6.04513C19.7193 5.80844 20.6254 5.52739 21.4601 5.03183C21.6955 4.8913 21.9238 4.71379 22.1165 4.51409C22.359 4.27001 22.359 4.05551 22.1093 3.81883C21.8739 3.58954 21.6028 3.38245 21.3174 3.21973C20.2401 2.60583 19.0558 2.30258 17.8573 2.0511C17.6575 2.00672 17.4578 1.97714 17.2509 1.94016C17.2295 1.93276 17.2009 1.94756 17.151 1.95495C17.151 2.69459 17.151 3.42683 17.151 4.16646C17.151 4.55847 16.9298 4.87651 16.566 5.00224C16.2307 5.12059 15.8525 5.02443 15.6314 4.71379C15.5315 4.56586 15.4459 4.36616 15.4459 4.18865C15.4316 3.0792 15.4316 1.97714 15.4387 0.867686C15.4387 0.364734 15.8311 -0.0420644 16.3234 0.0171063C17.101 0.113259 17.8715 0.246397 18.6349 0.409116C19.7978 0.660592 20.9322 1.00082 21.988 1.56294C22.5873 1.88099 23.1438 2.2656 23.5504 2.82772C23.8501 3.23452 23.9928 3.69309 23.9928 4.21823C23.9856 8.21966 23.9714 12.2285 23.9999 16.2299C24.007 17.2506 23.6004 17.9754 22.8584 18.5597C21.9381 19.2772 20.8822 19.684 19.7907 20.002C18.1498 20.4902 16.4732 20.7343 14.7753 20.8822C13.1272 21.0227 11.4792 21.0375 9.83119 20.9266C7.52681 20.7713 5.24384 20.4532 3.06074 19.61C2.2617 19.2994 1.50546 18.9222 0.863375 18.3231C0.292631 17.7905 -0.00700981 17.1544 0.000124491 16.3335C0.0215274 12.369 0.0215274 8.39717 0.000124491 4.43273C-0.00700981 3.46381 0.371109 2.74636 1.0774 2.17684C1.87645 1.53336 2.8039 1.15615 3.75277 0.838108C4.95846 0.446101 6.19983 0.202015 7.44833 0.0171063C8.1689 -0.0864425 8.56842 0.283378 8.56842 1.03781C8.56842 2.0585 8.56842 3.08659 8.56842 4.10729C8.56842 4.64722 8.2117 5.03923 7.71944 5.03923C7.2129 5.03923 6.85619 4.65462 6.85619 4.0925C6.88472 3.39724 6.88472 2.68719 6.88472 1.90317ZM1.74803 6.61465C1.74803 6.70341 1.74803 6.80696 1.74803 6.90311C1.74803 10.0392 1.75516 13.1752 1.7409 16.3113C1.7409 16.6737 1.85504 16.9547 2.14041 17.1249C2.63982 17.4207 3.13922 17.7314 3.68142 17.9385C5.77177 18.7447 7.95487 19.0257 10.1665 19.1589C11.8217 19.2624 13.4768 19.218 15.132 19.0627C16.7015 18.9148 18.2568 18.6485 19.7621 18.1603C20.5184 17.9163 21.2603 17.6352 21.9024 17.1322C22.1664 16.9252 22.2948 16.6663 22.2948 16.3039C22.2877 13.1678 22.2877 10.0318 22.2877 6.89571C22.2877 6.79955 22.2877 6.70341 22.2877 6.62205C21.6242 6.89571 20.9892 7.19896 20.34 7.42085C17.8644 8.25664 15.2961 8.52291 12.7134 8.58208C10.8657 8.62646 9.02501 8.52291 7.19863 8.24185C5.95013 8.04954 4.70876 7.79807 3.51734 7.35429C2.92519 7.14719 2.35444 6.87352 1.74803 6.61465Z" fill="#1D1F31"/>
<path d="M11.1487 13.5509C11.8355 12.9269 12.4655 12.3536 13.1027 11.7803C13.5204 11.403 13.931 11.0184 14.3558 10.6483C14.7735 10.2782 15.1841 10.2709 15.5948 10.641C16.8479 11.7731 18.0939 12.9124 19.3399 14.0516C19.7293 14.4072 19.7647 14.9369 19.439 15.307C19.1133 15.6771 18.5965 15.7134 18.2072 15.3578C17.1948 14.4508 16.1965 13.5292 15.1912 12.6221C15.1275 12.564 15.0567 12.506 14.9717 12.4334C14.1151 13.2099 13.2655 13.9791 12.4514 14.7265C12.593 14.9877 12.77 15.2054 12.8337 15.4522C12.9328 15.815 12.7346 16.1851 12.416 16.3665C12.0832 16.5552 11.6939 16.5116 11.4107 16.2286C10.908 15.7279 10.4195 15.22 9.92395 14.712C9.49209 14.2693 9.06731 13.8267 8.61421 13.3623C8.53633 13.4421 8.46553 13.5001 8.40182 13.5727C7.55934 14.4362 6.70978 15.2998 5.8673 16.1633C5.60535 16.4318 5.308 16.5479 4.95402 16.4391C4.34517 16.2504 4.13278 15.4812 4.5788 15.0168C5.71863 13.8267 6.87261 12.6511 8.03367 11.4828C8.3735 11.1417 8.86199 11.1635 9.22306 11.5263C9.81067 12.1141 10.3912 12.7164 10.9717 13.3115C11.0355 13.3623 11.0779 13.4566 11.1487 13.5509Z" fill="#1D1F31"/>
<path d="M11.1065 11.1645C11.6 11.1645 12.0001 10.8075 12.0001 10.367C12.0001 9.92662 11.6 9.56958 11.1065 9.56958C10.613 9.56958 10.2129 9.92662 10.2129 10.367C10.2129 10.8075 10.613 11.1645 11.1065 11.1645Z" fill="#1D1F31"/>
</svg>
