<svg width="30" height="30" viewBox="0 0 30 30" fill="none" xmlns="http://www.w3.org/2000/svg">
<circle cx="15" cy="15" r="15" fill="#1D1F31"/>
<path d="M9.3847 16.6618C9.92682 16.1677 10.6036 16.1677 11.1423 16.6618C11.5532 17.0379 11.9641 17.414 12.3681 17.7964C12.4785 17.9016 12.5718 17.9239 12.7064 17.8538C12.9723 17.7199 13.2555 17.6116 13.511 17.4649C14.7022 16.7733 15.7002 15.8841 16.5841 14.8833C17.0226 14.3861 17.4128 13.8538 17.6856 13.2546C17.7408 13.1335 17.7305 13.0538 17.6234 12.955C17.2125 12.5885 16.812 12.2124 16.408 11.8363C15.8452 11.3135 15.8452 10.7016 16.4115 10.1757C16.7326 9.8761 17.0537 9.58287 17.3748 9.28327C17.7063 8.97729 18.0343 8.66813 18.3693 8.36534C18.9114 7.87769 19.5882 7.87769 20.1268 8.36853C20.5412 8.74462 20.9383 9.13028 21.3595 9.5C21.7497 9.84104 21.9465 10.2586 21.988 10.7462C22.0536 11.5398 21.843 12.2888 21.546 13.0187C20.9383 14.5295 20.0129 15.8713 18.8907 17.1016C17.3748 18.7653 15.5655 20.0817 13.4488 21.0315C12.4958 21.4586 11.5083 21.7869 10.4344 21.841C9.69547 21.8793 9.05322 21.7072 8.53873 21.1749C8.18653 20.8116 7.78944 20.4801 7.41652 20.1327C6.86405 19.6163 6.8606 18.9916 7.40962 18.4817C8.06568 17.8729 8.72519 17.2673 9.3847 16.6618Z" fill="white"/>
</svg>
