<svg width="22" height="22" viewBox="0 0 22 22" fill="none" xmlns="http://www.w3.org/2000/svg">
<path d="M10.9454 21.5C16.7168 21.5 21.3908 16.7964 21.3908 11C21.3908 5.2036 16.7168 0.5 10.9454 0.5C5.17398 0.5 0.5 5.2036 0.5 11C0.5 16.7964 5.17398 21.5 10.9454 21.5Z" fill="white" stroke="white"/>
<path d="M6.74878 12.8813C7.14633 12.4888 7.64264 12.4888 8.03765 12.8813C8.33898 13.1801 8.64031 13.4789 8.93657 13.7827C9.0176 13.8663 9.08597 13.884 9.18472 13.8283C9.3797 13.7219 9.58734 13.6359 9.77472 13.5194C10.6483 12.9699 11.3801 12.2635 12.0283 11.4684C12.3499 11.0734 12.6361 10.6505 12.8361 10.1745C12.8766 10.0783 12.869 10.015 12.7905 9.93646C12.4892 9.64527 12.1955 9.34648 11.8992 9.04769C11.4865 8.63243 11.4865 8.14627 11.9017 7.72847C12.1372 7.49046 12.3727 7.2575 12.6082 7.01949C12.8513 6.7764 13.0919 6.53079 13.3375 6.29024C13.735 5.90283 14.2313 5.90283 14.6263 6.29277C14.9302 6.59156 15.2214 6.89795 15.5303 7.19167C15.8165 7.4626 15.9608 7.79431 15.9912 8.18172C16.0393 8.81221 15.8848 9.40725 15.6671 9.9871C15.2214 11.1873 14.5428 12.2533 13.7198 13.2307C12.6082 14.5525 11.2814 15.5982 9.72914 16.3528C9.03026 16.6921 8.30606 16.9529 7.51856 16.9959C6.97668 17.0263 6.50569 16.8896 6.1284 16.4667C5.87012 16.1781 5.57892 15.9147 5.30545 15.6387C4.9003 15.2285 4.89777 14.7322 5.30038 14.3271C5.7815 13.8435 6.26514 13.3624 6.74878 12.8813Z" fill="#1D1F31"/>
</svg>
